<svg width="163" height="59" viewBox="0 0 163 59" fill="none" xmlns="http://www.w3.org/2000/svg">
<path d="M139.576 54.084C139.024 54.084 138.528 53.988 138.088 53.796C137.656 53.596 137.316 53.324 137.068 52.98C136.82 52.628 136.692 52.224 136.684 51.768H137.848C137.888 52.16 138.048 52.492 138.328 52.764C138.616 53.028 139.032 53.16 139.576 53.16C140.096 53.16 140.504 53.032 140.8 52.776C141.104 52.512 141.256 52.176 141.256 51.768C141.256 51.448 141.168 51.188 140.992 50.988C140.816 50.788 140.596 50.636 140.332 50.532C140.068 50.428 139.712 50.316 139.264 50.196C138.712 50.052 138.268 49.908 137.932 49.764C137.604 49.62 137.32 49.396 137.08 49.092C136.848 48.78 136.732 48.364 136.732 47.844C136.732 47.388 136.848 46.984 137.08 46.632C137.312 46.28 137.636 46.008 138.052 45.816C138.476 45.624 138.96 45.528 139.504 45.528C140.288 45.528 140.928 45.724 141.424 46.116C141.928 46.508 142.212 47.028 142.276 47.676H141.076C141.036 47.356 140.868 47.076 140.572 46.836C140.276 46.588 139.884 46.464 139.396 46.464C138.94 46.464 138.568 46.584 138.28 46.824C137.992 47.056 137.848 47.384 137.848 47.808C137.848 48.112 137.932 48.36 138.1 48.552C138.276 48.744 138.488 48.892 138.736 48.996C138.992 49.092 139.348 49.204 139.804 49.332C140.356 49.484 140.8 49.636 141.136 49.788C141.472 49.932 141.76 50.16 142 50.472C142.24 50.776 142.36 51.192 142.36 51.72C142.36 52.128 142.252 52.512 142.036 52.872C141.82 53.232 141.5 53.524 141.076 53.748C140.652 53.972 140.152 54.084 139.576 54.084ZM148.911 52.14H145.263L144.591 54H143.439L146.463 45.684H147.723L150.735 54H149.583L148.911 52.14ZM148.599 51.252L147.087 47.028L145.575 51.252H148.599ZM153.145 53.112H156.073V54H152.053V45.636H153.145V53.112ZM158.325 46.524V49.32H161.373V50.22H158.325V53.1H161.733V54H157.233V45.624H161.733V46.524H158.325Z" fill="#1BAB6E"/>
<path d="M19.071 36.955H7.215L5.031 43H1.287L11.115 15.973H15.21L24.999 43H21.255L19.071 36.955ZM18.057 34.069L13.143 20.341L8.229 34.069H18.057ZM50.6543 43H47.1053L32.8313 21.355V43H29.2823V15.778H32.8313L47.1053 37.384V15.778H50.6543V43ZM60.2532 15.817V43H56.7042V15.817H60.2532ZM93.8748 16.012V43H90.3258V22.876L81.3558 43H78.8598L69.8508 22.837V43H66.3018V16.012H70.1238L80.1078 38.32L90.0918 16.012H93.8748ZM115.962 36.955H104.106L101.922 43H98.1776L108.006 15.973H112.101L121.89 43H118.146L115.962 36.955ZM114.948 34.069L110.034 20.341L105.12 34.069H114.948ZM129.722 40.114H139.238V43H126.173V15.817H129.722V40.114Z" fill="black"/>
</svg>
