<svg width="216" height="47" viewBox="0 0 216 47" fill="none" xmlns="http://www.w3.org/2000/svg">
<path d="M16.8281 7.05469L7.10156 36H0.28125L13.0312 1.875H17.3906L16.8281 7.05469ZM24.9609 36L15.1875 7.05469L14.6016 1.875H18.9844L31.8047 36H24.9609ZM24.5156 23.3203V28.4062H6.21094V23.3203H24.5156ZM48.8203 30.6094V18.9141C48.8203 18.0547 48.6719 17.3125 48.375 16.6875C48.0781 16.0625 47.625 15.5781 47.0156 15.2344C46.4062 14.8906 45.6328 14.7188 44.6953 14.7188C43.8672 14.7188 43.1406 14.8594 42.5156 15.1406C41.9062 15.4219 41.4375 15.8203 41.1094 16.3359C40.7812 16.8359 40.6172 17.4141 40.6172 18.0703H34.4062C34.4062 17.0234 34.6562 16.0312 35.1562 15.0938C35.6562 14.1406 36.3672 13.2969 37.2891 12.5625C38.2266 11.8125 39.3438 11.2266 40.6406 10.8047C41.9531 10.3828 43.4219 10.1719 45.0469 10.1719C46.9688 10.1719 48.6797 10.5 50.1797 11.1562C51.6953 11.7969 52.8828 12.7656 53.7422 14.0625C54.6172 15.3594 55.0547 16.9922 55.0547 18.9609V30.0234C55.0547 31.2891 55.1328 32.375 55.2891 33.2812C55.4609 34.1719 55.7109 34.9453 56.0391 35.6016V36H49.7344C49.4375 35.3594 49.2109 34.5469 49.0547 33.5625C48.8984 32.5625 48.8203 31.5781 48.8203 30.6094ZM49.6875 20.5547L49.7344 24.2344H45.8203C44.8516 24.2344 44 24.3359 43.2656 24.5391C42.5312 24.7266 41.9297 25.0078 41.4609 25.3828C40.9922 25.7422 40.6406 26.1797 40.4062 26.6953C40.1719 27.1953 40.0547 27.7656 40.0547 28.4062C40.0547 29.0312 40.1953 29.5938 40.4766 30.0938C40.7734 30.5938 41.1953 30.9922 41.7422 31.2891C42.3047 31.5703 42.9609 31.7109 43.7109 31.7109C44.8047 31.7109 45.7578 31.4922 46.5703 31.0547C47.3828 30.6016 48.0156 30.0547 48.4688 29.4141C48.9219 28.7734 49.1641 28.1641 49.1953 27.5859L50.9766 30.2578C50.7578 30.8984 50.4297 31.5781 49.9922 32.2969C49.5547 33.0156 48.9922 33.6875 48.3047 34.3125C47.6172 34.9375 46.7891 35.4531 45.8203 35.8594C44.8516 36.2656 43.7266 36.4688 42.4453 36.4688C40.8047 36.4688 39.3359 36.1406 38.0391 35.4844C36.7422 34.8281 35.7188 33.9297 34.9688 32.7891C34.2188 31.6484 33.8438 30.3516 33.8438 28.8984C33.8438 27.5547 34.0938 26.3672 34.5938 25.3359C35.0938 24.3047 35.8359 23.4375 36.8203 22.7344C37.8047 22.0156 39.0234 21.4766 40.4766 21.1172C41.9453 20.7422 43.625 20.5547 45.5156 20.5547H49.6875ZM71.0391 31.5938C71.9141 31.5938 72.6953 31.4219 73.3828 31.0781C74.0703 30.7344 74.6172 30.25 75.0234 29.625C75.4453 29 75.6719 28.2734 75.7031 27.4453H81.5391C81.5078 29.1641 81.0234 30.7031 80.0859 32.0625C79.1484 33.4219 77.8984 34.5 76.3359 35.2969C74.7891 36.0781 73.0547 36.4688 71.1328 36.4688C69.1797 36.4688 67.4766 36.1406 66.0234 35.4844C64.5703 34.8281 63.3594 33.9141 62.3906 32.7422C61.4375 31.5703 60.7188 30.2109 60.2344 28.6641C59.7656 27.1172 59.5312 25.4609 59.5312 23.6953V22.9453C59.5312 21.1797 59.7656 19.5234 60.2344 17.9766C60.7188 16.4297 61.4375 15.0703 62.3906 13.8984C63.3594 12.7266 64.5703 11.8125 66.0234 11.1562C67.4766 10.5 69.1719 10.1719 71.1094 10.1719C73.1562 10.1719 74.9531 10.5703 76.5 11.3672C78.0625 12.1641 79.2812 13.2891 80.1562 14.7422C81.0469 16.1953 81.5078 17.9062 81.5391 19.875H75.7031C75.6719 18.9688 75.4688 18.1562 75.0938 17.4375C74.7188 16.7188 74.1875 16.1406 73.5 15.7031C72.8125 15.2656 71.9766 15.0469 70.9922 15.0469C69.9453 15.0469 69.0703 15.2656 68.3672 15.7031C67.6797 16.1406 67.1406 16.7422 66.75 17.5078C66.375 18.2578 66.1094 19.1016 65.9531 20.0391C65.8125 20.9609 65.7422 21.9297 65.7422 22.9453V23.6953C65.7422 24.7266 65.8125 25.7109 65.9531 26.6484C66.1094 27.5859 66.375 28.4297 66.75 29.1797C67.1406 29.9141 67.6797 30.5 68.3672 30.9375C69.0703 31.375 69.9609 31.5938 71.0391 31.5938ZM97.6641 10.6406V15.0938H83.1328V10.6406H97.6641ZM87.0234 4.40625H93.2344V28.6875C93.2344 29.4375 93.3359 30.0156 93.5391 30.4219C93.7422 30.8281 94.0469 31.1016 94.4531 31.2422C94.8594 31.3828 95.3438 31.4531 95.9062 31.4531C96.3125 31.4531 96.6875 31.4297 97.0312 31.3828C97.375 31.3359 97.6641 31.2891 97.8984 31.2422L97.9219 35.8828C97.4062 36.0547 96.8203 36.1953 96.1641 36.3047C95.5234 36.4141 94.7969 36.4688 93.9844 36.4688C92.5938 36.4688 91.375 36.2344 90.3281 35.7656C89.2812 35.2812 88.4688 34.5078 87.8906 33.4453C87.3125 32.3672 87.0234 30.9453 87.0234 29.1797V4.40625ZM108.352 10.6406V36H102.141V10.6406H108.352ZM101.719 4.00781C101.719 3.08594 102.031 2.32031 102.656 1.71094C103.297 1.10156 104.156 0.796875 105.234 0.796875C106.312 0.796875 107.164 1.10156 107.789 1.71094C108.43 2.32031 108.75 3.08594 108.75 4.00781C108.75 4.91406 108.43 5.67188 107.789 6.28125C107.164 6.89062 106.312 7.19531 105.234 7.19531C104.156 7.19531 103.297 6.89062 102.656 6.28125C102.031 5.67188 101.719 4.91406 101.719 4.00781ZM122.672 31.3125L128.578 10.6406H135.047L126.352 36H122.414L122.672 31.3125ZM118.359 10.6406L124.336 31.3594L124.547 36H120.586L111.867 10.6406H118.359ZM151.898 23.5547H143.109V18.4922H151.898C153.336 18.4922 154.5 18.2578 155.391 17.7891C156.297 17.3047 156.961 16.6484 157.383 15.8203C157.805 14.9766 158.016 14.0156 158.016 12.9375C158.016 11.8906 157.805 10.9141 157.383 10.0078C156.961 9.10156 156.297 8.36719 155.391 7.80469C154.5 7.24219 153.336 6.96094 151.898 6.96094H145.219V36H138.773V1.875H151.898C154.555 1.875 156.82 2.35156 158.695 3.30469C160.586 4.24219 162.023 5.54688 163.008 7.21875C164.008 8.875 164.508 10.7656 164.508 12.8906C164.508 15.0938 164.008 16.9922 163.008 18.5859C162.023 20.1797 160.586 21.4062 158.695 22.2656C156.82 23.125 154.555 23.5547 151.898 23.5547ZM182.789 30.6094V18.9141C182.789 18.0547 182.641 17.3125 182.344 16.6875C182.047 16.0625 181.594 15.5781 180.984 15.2344C180.375 14.8906 179.602 14.7188 178.664 14.7188C177.836 14.7188 177.109 14.8594 176.484 15.1406C175.875 15.4219 175.406 15.8203 175.078 16.3359C174.75 16.8359 174.586 17.4141 174.586 18.0703H168.375C168.375 17.0234 168.625 16.0312 169.125 15.0938C169.625 14.1406 170.336 13.2969 171.258 12.5625C172.195 11.8125 173.312 11.2266 174.609 10.8047C175.922 10.3828 177.391 10.1719 179.016 10.1719C180.938 10.1719 182.648 10.5 184.148 11.1562C185.664 11.7969 186.852 12.7656 187.711 14.0625C188.586 15.3594 189.023 16.9922 189.023 18.9609V30.0234C189.023 31.2891 189.102 32.375 189.258 33.2812C189.43 34.1719 189.68 34.9453 190.008 35.6016V36H183.703C183.406 35.3594 183.18 34.5469 183.023 33.5625C182.867 32.5625 182.789 31.5781 182.789 30.6094ZM183.656 20.5547L183.703 24.2344H179.789C178.82 24.2344 177.969 24.3359 177.234 24.5391C176.5 24.7266 175.898 25.0078 175.43 25.3828C174.961 25.7422 174.609 26.1797 174.375 26.6953C174.141 27.1953 174.023 27.7656 174.023 28.4062C174.023 29.0312 174.164 29.5938 174.445 30.0938C174.742 30.5938 175.164 30.9922 175.711 31.2891C176.273 31.5703 176.93 31.7109 177.68 31.7109C178.773 31.7109 179.727 31.4922 180.539 31.0547C181.352 30.6016 181.984 30.0547 182.438 29.4141C182.891 28.7734 183.133 28.1641 183.164 27.5859L184.945 30.2578C184.727 30.8984 184.398 31.5781 183.961 32.2969C183.523 33.0156 182.961 33.6875 182.273 34.3125C181.586 34.9375 180.758 35.4531 179.789 35.8594C178.82 36.2656 177.695 36.4688 176.414 36.4688C174.773 36.4688 173.305 36.1406 172.008 35.4844C170.711 34.8281 169.688 33.9297 168.938 32.7891C168.188 31.6484 167.812 30.3516 167.812 28.8984C167.812 27.5547 168.062 26.3672 168.562 25.3359C169.062 24.3047 169.805 23.4375 170.789 22.7344C171.773 22.0156 172.992 21.4766 174.445 21.1172C175.914 20.7422 177.594 20.5547 179.484 20.5547H183.656ZM201.656 33.1875L208.453 10.6406H215.086L204.914 39.8438C204.68 40.4688 204.375 41.1484 204 41.8828C203.641 42.6172 203.156 43.3125 202.547 43.9688C201.938 44.6406 201.172 45.1875 200.25 45.6094C199.344 46.0312 198.242 46.2422 196.945 46.2422C196.383 46.2422 195.883 46.2031 195.445 46.125C195.008 46.0469 194.547 45.9453 194.062 45.8203V41.1797C194.219 41.1953 194.398 41.2031 194.602 41.2031C194.82 41.2188 195.008 41.2266 195.164 41.2266C196.07 41.2266 196.82 41.1172 197.414 40.8984C198.008 40.6953 198.484 40.3594 198.844 39.8906C199.219 39.4375 199.531 38.8438 199.781 38.1094L201.656 33.1875ZM198.305 10.6406L204.047 29.3203L205.055 35.8594L200.789 36.6328L191.625 10.6406H198.305Z" fill="white"/>
</svg>
