<svg width="30" height="30" viewBox="0 0 30 30" fill="none" xmlns="http://www.w3.org/2000/svg">
<circle cx="15" cy="15" r="14.5" stroke="#3C35FF"/>
<path d="M21.2924 14.7745L15.1657 20.9012C14.4152 21.6517 13.3972 22.0734 12.3357 22.0734C11.2743 22.0734 10.2563 21.6517 9.50572 20.9012C8.75516 20.1506 8.3335 19.1326 8.3335 18.0712C8.3335 17.0097 8.75516 15.9917 9.50572 15.2412L15.6324 9.11449C16.1328 8.61412 16.8114 8.33301 17.5191 8.33301C18.2267 8.33301 18.9053 8.61412 19.4057 9.11449C19.9061 9.61487 20.1872 10.2935 20.1872 11.0012C20.1872 11.7088 19.9061 12.3874 19.4057 12.8878L13.2724 19.0145C13.1485 19.1384 13.0014 19.2366 12.8396 19.3037C12.6777 19.3707 12.5042 19.4052 12.3291 19.4052C12.1539 19.4052 11.9804 19.3707 11.8185 19.3037C11.6567 19.2366 11.5096 19.1384 11.3857 19.0145C11.2618 18.8906 11.1636 18.7435 11.0965 18.5817C11.0295 18.4198 10.995 18.2464 10.995 18.0712C10.995 17.896 11.0295 17.7225 11.0965 17.5606C11.1636 17.3988 11.2618 17.2517 11.3857 17.1278L17.0457 11.4745" stroke="#3C35FF" stroke-linecap="round" stroke-linejoin="round"/>
</svg>
