<svg width="43" height="44" viewBox="0 0 43 44" fill="none" xmlns="http://www.w3.org/2000/svg">
<ellipse cx="21.5" cy="22" rx="21.5" ry="22" fill="white"/>
<path d="M25.2557 34.9999C24.9846 35.0008 24.7166 34.9396 24.4716 34.8207C24.2266 34.7018 24.0107 34.5282 23.8398 34.3128L15.0721 23.171C14.8051 22.8387 14.6592 22.4219 14.6592 21.9918C14.6592 21.5617 14.8051 21.1449 15.0721 20.8126L24.1484 9.67083C24.4566 9.29161 24.8993 9.05313 25.3793 9.00786C25.8593 8.96259 26.3373 9.11423 26.708 9.42943C27.0787 9.74463 27.3118 10.1976 27.356 10.6886C27.4003 11.1796 27.2521 11.6685 26.9439 12.0478L18.8297 22.0011L26.6717 31.9544C26.8936 32.227 27.0346 32.5589 27.078 32.9109C27.1213 33.2629 27.0652 33.6202 26.9163 33.9406C26.7673 34.261 26.5318 34.531 26.2375 34.7187C25.9432 34.9065 25.6025 35.004 25.2557 34.9999Z" fill="#2783FF"/>
</svg>
