<svg width="16" height="10" viewBox="0 0 16 10" fill="none" xmlns="http://www.w3.org/2000/svg">
<path fill-rule="evenodd" clip-rule="evenodd" d="M15.205 5.16328C15.205 5.02797 15.1481 4.8982 15.0468 4.80251C14.9455 4.70683 14.8081 4.65308 14.6648 4.65308H1.92444L5.32424 1.44287C5.37447 1.39544 5.41431 1.33912 5.44149 1.27714C5.46867 1.21516 5.48266 1.14873 5.48266 1.08165C5.48266 1.01456 5.46867 0.948135 5.44149 0.886156C5.41431 0.824177 5.37447 0.767861 5.32424 0.720425C5.27402 0.672988 5.2144 0.635359 5.14878 0.609687C5.08316 0.584014 5.01283 0.570801 4.94181 0.570801C4.87078 0.570801 4.80045 0.584014 4.73483 0.609687C4.66921 0.635359 4.60959 0.672988 4.55937 0.720425L0.23804 4.80206C0.187736 4.84945 0.147825 4.90575 0.120594 4.96774C0.0933628 5.02972 0.0793457 5.09617 0.0793457 5.16328C0.0793457 5.23039 0.0933628 5.29684 0.120594 5.35883C0.147825 5.42081 0.187736 5.47711 0.23804 5.52451L4.55937 9.60614C4.60959 9.65358 4.66921 9.6912 4.73483 9.71688C4.80045 9.74255 4.87078 9.75576 4.94181 9.75576C5.01283 9.75576 5.08316 9.74255 5.14878 9.71688C5.2144 9.6912 5.27402 9.65358 5.32424 9.60614C5.37447 9.5587 5.41431 9.50239 5.44149 9.44041C5.46867 9.37843 5.48266 9.312 5.48266 9.24491C5.48266 9.17783 5.46867 9.1114 5.44149 9.04942C5.41431 8.98744 5.37447 8.93113 5.32424 8.88369L1.92444 5.67349H14.6648C14.8081 5.67349 14.9455 5.61973 15.0468 5.52405C15.1481 5.42837 15.205 5.2986 15.205 5.16328Z" fill="black"/>
</svg>
