<svg width="16" height="14" viewBox="0 0 16 14" fill="none" xmlns="http://www.w3.org/2000/svg">
<path d="M16 7.99687L15.9999 11.4969C15.9719 12.8781 14.8781 14 13.5 14C12.6728 14 12 13.3263 12 12.4981V8.50313C12 7.675 12.6719 7 13.5 7C13.8384 7 14.1534 7.08509 14.4469 7.20869C14.0531 3.97188 11.3156 1.50406 8 1.50406C4.68437 1.50406 1.94656 3.97188 1.55313 7.20938C1.84656 7.08438 2.16156 7 2.5 7C3.32812 7 4 7.675 4 8.50313V12.5C4 13.325 3.32812 14 2.5 14C1.12156 14 0.028125 12.8787 0.028125 11.4981L0 8C0 3.5875 3.5875 0 8 0C12.4031 0 15.9875 3.57812 15.9719 7.97812C15.9719 7.98437 15.9719 7.99062 16 7.99687Z" fill="#3C35FF"/>
</svg>
