<svg width="16" height="16" viewBox="0 0 16 16" fill="none" xmlns="http://www.w3.org/2000/svg">
<path d="M13.5 11.725C13.5 14.75 11.05 14.75 8 14.75C4.95 14.75 2.5 14.75 2.5 11.725C2.5 8.7 4.975 3.75 8 3.75C11.025 3.75 13.5 8.675 13.5 11.725Z" fill="#D9A141"/>
<path opacity="0.5" d="M13.5001 11.725C13.5001 10.7 13.2251 9.45 12.7251 8.25C12.8251 9.025 12.6251 10.4 10.2501 10.925C6.8751 11.65 8.6251 12.6 7.3001 12.725C6.1751 12.825 3.1751 12.375 2.5751 10.675C2.5251 11.05 2.4751 11.4 2.4751 11.75C2.5001 14.75 4.9751 14.75 8.0001 14.75C11.0251 14.75 13.5001 14.75 13.5001 11.725Z" fill="#89664C"/>
<path d="M9.47489 10.275C9.37489 9.77505 8.94989 9.62505 8.49989 9.60005V8.90005C8.62489 8.95005 8.77489 9.02505 8.87489 9.10005C9.07489 9.22505 9.27489 8.90005 9.07489 8.77505C8.89989 8.67505 8.69989 8.57505 8.49989 8.50005V7.67505C8.49989 7.42505 8.12489 7.42505 8.12489 7.67505V8.40005C7.92489 8.37505 7.72489 8.37505 7.52489 8.40005C7.49989 8.22505 7.44989 8.05005 7.39989 7.87505C7.34989 7.62505 6.97489 7.72505 7.04989 7.97505C7.09989 8.15005 7.12489 8.32505 7.17489 8.50005C7.14989 8.50005 7.14989 8.50005 7.12489 8.52505C6.62489 8.72505 6.29989 9.22505 6.67489 9.70005C6.84989 9.92505 7.07489 10 7.32489 10.05C7.34989 10.375 7.34989 10.7 7.34989 11.025C7.17489 10.925 7.02489 10.775 6.89989 10.65C6.72489 10.475 6.47489 10.75 6.62489 10.925C6.84989 11.175 7.09989 11.35 7.34989 11.475C7.34989 11.75 7.37489 12.025 7.39989 12.3C7.42489 12.55 7.79989 12.55 7.77489 12.3C7.74989 12.05 7.72489 11.825 7.72489 11.575C7.87489 11.6 8.02489 11.6 8.17489 11.6C8.19989 11.85 8.22489 12.1 8.24989 12.375C8.27489 12.625 8.64989 12.625 8.62489 12.375C8.59989 12.1 8.57489 11.825 8.54989 11.525C9.09989 11.325 9.59989 10.9 9.47489 10.275ZM8.12489 8.77505V9.60005C7.99989 9.60005 7.89989 9.62505 7.79989 9.62505H7.67489L7.59989 8.72505C7.77489 8.72505 7.94989 8.75005 8.12489 8.77505ZM7.22489 9.57505C7.12489 9.55005 7.02489 9.47505 6.92489 9.40005C6.69989 9.17505 7.02489 8.97505 7.22489 8.87505C7.24989 9.12505 7.27489 9.35005 7.29989 9.60005C7.27489 9.60005 7.24989 9.60005 7.22489 9.57505ZM8.04989 11.175C7.92489 11.2 7.82489 11.175 7.72489 11.15C7.69989 10.775 7.69989 10.4 7.69989 10C7.84989 10 7.99989 9.97505 8.14989 9.97505C8.14989 10.375 8.17489 10.75 8.17489 11.15C8.12489 11.175 8.09989 11.175 8.04989 11.175ZM8.87489 10.9C8.77489 10.975 8.64989 11.025 8.54989 11.075C8.52489 10.7 8.52489 10.35 8.52489 9.97505H8.64989C9.12489 10.075 9.24989 10.6 8.87489 10.9Z" fill="white"/>
<path d="M11.5 0.5C11.5 2.025 9.525 4.5 8 4.5C6.475 4.5 4.5 2.275 4.5 0.75C4.5 -0.775 4.725 0.75 6.25 0.75C6.475 0.75 7.525 0 8 0C8.325 0 9.25 0.75 9.75 0.75C11.075 0.75 11.5 -0.65 11.5 0.5Z" fill="#D9A141"/>
<path d="M7.5502 3.32502C7.4002 3.42502 6.6752 3.35002 6.4502 3.52502C6.1502 3.75002 6.5752 4.27502 6.2752 4.60002C5.6752 5.20002 5.2002 5.87502 5.3502 6.25002C5.6002 6.90002 6.0752 5.05002 6.5002 5.75002C6.9252 6.45002 6.8502 5.27502 7.5002 5.87502C8.1502 6.47502 7.6002 4.80002 8.2252 5.52502C8.8502 6.25002 8.8752 7.07502 9.3252 7.07502C9.8502 7.07502 8.7752 5.10002 9.4752 5.57502C10.1752 6.05002 10.9502 5.87502 10.2502 5.15002C10.0252 4.92502 9.7252 4.52502 9.3752 4.17502C9.2502 4.05002 9.3502 3.40002 9.2252 3.30002C9.0752 3.17502 8.7002 3.57502 8.5502 3.50002C8.2502 3.35002 8.3502 3.62502 7.9002 3.70002C7.6002 3.80002 7.8502 3.12502 7.5502 3.32502Z" fill="#89664C"/>
<path d="M4.67504 4.8C5.65004 3.875 7.42504 4.4 8.47504 4.85C9.50004 5.3 10.125 3.875 9.47504 3.15C9.10004 2.725 8.50004 3.225 8.27504 3.525C8.02504 3.825 7.82504 4.15 7.55004 4.45C7.15004 4.9 6.17504 4.525 6.47504 3.9C6.80004 3.25 8.17504 4 8.62504 4.125C9.50004 4.375 10.425 4.475 11.3 4.15C11.6 4.05 11.475 3.55 11.175 3.675C10.2 4.025 9.22504 3.8 8.30004 3.5C7.82504 3.35 7.07504 2.95 6.57504 3.175C5.15004 3.85 6.47504 5.775 7.67504 5.025C7.95004 4.85 8.12504 4.575 8.32504 4.325C8.45004 4.175 9.07504 3.225 9.22504 3.7C9.30004 3.95 9.22504 4.4 8.95004 4.475C8.77504 4.55 8.42504 4.3 8.25004 4.25C7.92504 4.125 7.60004 4.025 7.25004 3.95C6.32504 3.75 5.07504 3.8 4.35004 4.475C4.10004 4.675 4.45004 5.025 4.67504 4.8Z" fill="#E8E8E8"/>
<path d="M11.2 0.125C10.95 0.325 10.5 0.75 9.75 0.75C9.25 0.75 8.325 0 8 0C7.525 0 6.475 0.75 6.25 0.75C5.425 0.75 4.975 0.325 4.75 0.15C4.75 0.15 5.025 1.275 5.875 1.85C6.5 2.25 6.425 1.775 6.75 1.325C7.075 0.875 7.3 0.65 7.875 1.775C8.175 2.4 8.75 0.075 9.2 0.825C10.025 2.2 10.325 1.45 11.2 0.125Z" fill="#89664C"/>
</svg>
