<svg width="61" height="61" viewBox="0 0 61 61" fill="none" xmlns="http://www.w3.org/2000/svg">
<path d="M28.3396 8.64167L18.8846 24.095C17.8425 25.7725 19.0625 27.9583 21.045 27.9583H39.9296C41.9121 27.9583 43.1321 25.7725 42.09 24.095L32.6604 8.64167C32.4357 8.26966 32.1188 7.96197 31.7403 7.7484C31.3618 7.53483 30.9346 7.42261 30.5 7.42261C30.0654 7.42261 29.6382 7.53483 29.2597 7.7484C28.8812 7.96197 28.5643 8.26966 28.3396 8.64167Z" fill="#FAFAFA"/>
<path d="M44.4792 55.9167C50.7959 55.9167 55.9167 50.796 55.9167 44.4792C55.9167 38.1625 50.7959 33.0417 44.4792 33.0417C38.1624 33.0417 33.0417 38.1625 33.0417 44.4792C33.0417 50.796 38.1624 55.9167 44.4792 55.9167Z" fill="#FAFAFA"/>
<path d="M10.1667 54.6458H25.4167C26.8146 54.6458 27.9583 53.5021 27.9583 52.1042V36.8542C27.9583 35.4562 26.8146 34.3125 25.4167 34.3125H10.1667C8.76875 34.3125 7.625 35.4562 7.625 36.8542V52.1042C7.625 53.5021 8.76875 54.6458 10.1667 54.6458Z" fill="#FAFAFA"/>
</svg>
