<svg width="24" height="25" viewBox="0 0 24 25" fill="none" xmlns="http://www.w3.org/2000/svg">
<path d="M0.791886 9.13946C0.763864 9.09736 0.749271 9.04776 0.750028 8.9972H0.750044C0.750828 8.94638 0.767022 8.89699 0.796483 8.85558C0.825878 8.81425 0.867098 8.78281 0.914713 8.76537C0.914821 8.76533 0.914929 8.76529 0.915037 8.76525L22.9144 0.765472L22.9153 0.765157C22.9601 0.748819 23.0086 0.745612 23.0551 0.755912C23.1016 0.766211 23.1442 0.789589 23.1779 0.823291C23.2115 0.856996 23.2349 0.899622 23.2452 0.946147C23.2554 0.992679 23.2522 1.04117 23.2358 1.0859L23.2353 1.08732L15.2353 23.0872C15.2353 23.0873 15.2353 23.0873 15.2353 23.0873C15.218 23.1349 15.1866 23.176 15.1454 23.2054C15.1052 23.234 15.0575 23.2501 15.0083 23.2516H15.0001H14.9999C14.9499 23.2516 14.901 23.2367 14.8596 23.2086C14.8182 23.1806 14.7862 23.1408 14.7676 23.0944L14.7675 23.0941L10.9265 13.4921L10.8071 13.1937L10.5087 13.0743L0.907714 9.23328L0.907282 9.23311C0.860216 9.21432 0.819971 9.18166 0.791886 9.13946Z" stroke="white" stroke-width="1.5"/>
</svg>
