<svg width="18" height="18" viewBox="0 0 18 18" fill="none" xmlns="http://www.w3.org/2000/svg">
<path d="M0.600098 3.0001C0.600098 2.36358 0.852954 1.75313 1.30304 1.30304C1.75313 0.852954 2.36358 0.600098 3.0001 0.600098H11.4001C12.0366 0.600098 12.6471 0.852954 13.0972 1.30304C13.5472 1.75313 13.8001 2.36358 13.8001 3.0001V11.4001H17.4001V13.8001C17.4001 14.7549 17.0208 15.6706 16.3457 16.3457C15.6706 17.0208 14.7549 17.4001 13.8001 17.4001H4.2001C3.24532 17.4001 2.32964 17.0208 1.65451 16.3457C0.979382 15.6706 0.600098 14.7549 0.600098 13.8001V3.0001ZM13.8001 12.6001V16.2001C14.4366 16.2001 15.0471 15.9472 15.4972 15.4972C15.9472 15.0471 16.2001 14.4366 16.2001 13.8001V12.6001H13.8001ZM12.6001 16.2001V3.0001C12.6001 2.68184 12.4737 2.37661 12.2486 2.15157C12.0236 1.92653 11.7184 1.8001 11.4001 1.8001H3.0001C2.68184 1.8001 2.37661 1.92653 2.15157 2.15157C1.92653 2.37661 1.8001 2.68184 1.8001 3.0001V13.8001C1.8001 14.4366 2.05295 15.0471 2.50304 15.4972C2.95313 15.9472 3.56358 16.2001 4.2001 16.2001H12.6001ZM4.2001 4.8001C4.2001 4.64097 4.26331 4.48836 4.37583 4.37583C4.48836 4.26331 4.64097 4.2001 4.8001 4.2001H9.6001C9.75923 4.2001 9.91184 4.26331 10.0244 4.37583C10.1369 4.48836 10.2001 4.64097 10.2001 4.8001C10.2001 4.95923 10.1369 5.11184 10.0244 5.22436C9.91184 5.33688 9.75923 5.4001 9.6001 5.4001H4.8001C4.64097 5.4001 4.48836 5.33688 4.37583 5.22436C4.26331 5.11184 4.2001 4.95923 4.2001 4.8001ZM4.2001 8.4001C4.2001 8.24097 4.26331 8.08836 4.37583 7.97583C4.48836 7.86331 4.64097 7.8001 4.8001 7.8001H9.6001C9.75923 7.8001 9.91184 7.86331 10.0244 7.97583C10.1369 8.08836 10.2001 8.24097 10.2001 8.4001C10.2001 8.55923 10.1369 8.71184 10.0244 8.82436C9.91184 8.93688 9.75923 9.0001 9.6001 9.0001H4.8001C4.64097 9.0001 4.48836 8.93688 4.37583 8.82436C4.26331 8.71184 4.2001 8.55923 4.2001 8.4001ZM4.2001 12.0001C4.2001 11.841 4.26331 11.6884 4.37583 11.5758C4.48836 11.4633 4.64097 11.4001 4.8001 11.4001H7.2001C7.35923 11.4001 7.51184 11.4633 7.62436 11.5758C7.73688 11.6884 7.8001 11.841 7.8001 12.0001C7.8001 12.1592 7.73688 12.3118 7.62436 12.4244C7.51184 12.5369 7.35923 12.6001 7.2001 12.6001H4.8001C4.64097 12.6001 4.48836 12.5369 4.37583 12.4244C4.26331 12.3118 4.2001 12.1592 4.2001 12.0001Z" fill="#3C35FF"/>
</svg>
