<svg width="11" height="6" viewBox="0 0 11 6" fill="none" xmlns="http://www.w3.org/2000/svg">
<path d="M10.9999 0.995538C11.0003 1.12361 10.9744 1.25016 10.9241 1.36588C10.8738 1.48159 10.8004 1.58354 10.7093 1.66423L5.99542 5.80498C5.85484 5.93107 5.67851 6 5.49654 6C5.31456 6 5.13823 5.93107 4.99765 5.80498L0.283814 1.51849C0.123374 1.37297 0.0224781 1.16387 0.00332444 0.937177C-0.0158293 0.710485 0.0483276 0.484775 0.181681 0.3097C0.315034 0.134626 0.506661 0.0245285 0.714405 0.00362778C0.922149 -0.0172729 1.12899 0.0527353 1.28943 0.198252L5.50046 4.03037L9.7115 0.326847C9.82682 0.222013 9.96724 0.155422 10.1162 0.13495C10.2651 0.114478 10.4163 0.140983 10.5518 0.211329C10.6873 0.281675 10.8016 0.392918 10.881 0.531895C10.9604 0.670871 11.0017 0.831765 10.9999 0.995538Z" fill="black"/>
</svg>
