<svg width="20" height="17" viewBox="0 0 20 17" fill="none" xmlns="http://www.w3.org/2000/svg">
<path d="M0 5.23008V13.5001C0 14.3841 0.351189 15.232 0.976311 15.8571C1.60143 16.4822 2.44928 16.8334 3.33333 16.8334H16.6667C17.5507 16.8334 18.3986 16.4822 19.0237 15.8571C19.6488 15.232 20 14.3841 20 13.5001V3.50008C20 2.61603 19.6488 1.76818 19.0237 1.14306C18.3986 0.517937 17.5507 0.166748 16.6667 0.166748H3.33333C2.44928 0.166748 1.60143 0.517937 0.976311 1.14306C0.351189 1.76818 0 2.61603 0 3.50008V5.23008ZM3.33333 1.83341H16.6667C17.1087 1.83341 17.5326 2.00901 17.8452 2.32157C18.1577 2.63413 18.3333 3.05805 18.3333 3.50008V4.73341L10 9.22008L1.66667 4.73341V3.50008C1.66667 3.05805 1.84226 2.63413 2.15482 2.32157C2.46738 2.00901 2.89131 1.83341 3.33333 1.83341ZM1.66667 6.62675L9.605 10.9001C9.7264 10.9654 9.86212 10.9996 10 10.9996C10.1379 10.9996 10.2736 10.9654 10.395 10.9001L18.3333 6.62675V13.5001C18.3333 13.9421 18.1577 14.366 17.8452 14.6786C17.5326 14.9912 17.1087 15.1667 16.6667 15.1667H3.33333C2.89131 15.1667 2.46738 14.9912 2.15482 14.6786C1.84226 14.366 1.66667 13.9421 1.66667 13.5001V6.62675Z" fill="#2783FF"/>
</svg>
