<svg width="43" height="55" viewBox="0 0 43 55" fill="none" xmlns="http://www.w3.org/2000/svg">
<path d="M21.5 0.8125C15.9408 0.819058 10.6111 3.03037 6.68012 6.96135C2.74914 10.8923 0.537831 16.222 0.531272 21.7812C0.524614 26.3243 2.00858 30.744 4.75552 34.3625C4.75552 34.3625 5.3274 35.1155 5.4208 35.2241L21.5 54.1875L37.5869 35.2146C37.6707 35.1136 38.2445 34.3625 38.2445 34.3625L38.2464 34.3568C40.992 30.7399 42.4753 26.3222 42.4688 21.7812C42.4622 16.222 40.2509 10.8923 36.3199 6.96135C32.3889 3.03037 27.0593 0.819058 21.5 0.8125ZM21.5 29.4062C19.9919 29.4062 18.5177 28.9591 17.2638 28.1212C16.0099 27.2834 15.0326 26.0925 14.4554 24.6992C13.8783 23.3059 13.7273 21.7728 14.0215 20.2937C14.3157 18.8146 15.042 17.4559 16.1083 16.3896C17.1747 15.3232 18.5334 14.597 20.0125 14.3028C21.4916 14.0085 23.0247 14.1595 24.418 14.7367C25.8113 15.3138 27.0021 16.2911 27.84 17.545C28.6778 18.799 29.125 20.2732 29.125 21.7812C29.1225 23.8028 28.3183 25.7407 26.8889 27.1702C25.4595 28.5996 23.5215 29.4037 21.5 29.4062Z" fill="#3C35FF"/>
</svg>
