<svg width="35" height="35" viewBox="0 0 35 35" fill="none" xmlns="http://www.w3.org/2000/svg">
<path fill-rule="evenodd" clip-rule="evenodd" d="M34.1632 18.6084L34.2301 18.6756C34.8324 19.1459 35.1001 19.8177 34.9662 20.4894C34.8324 21.2284 34.3639 21.833 33.6278 22.1017L33.5609 22.1689C33.2932 22.2361 33.0925 22.4376 33.0255 22.7063C32.9921 22.8071 32.9419 22.9247 32.8917 23.0422C32.8415 23.1598 32.7913 23.2774 32.7579 23.3781C32.6909 23.6468 32.6909 23.9155 32.8248 24.1171L32.8917 24.1843C33.2263 24.856 33.2263 25.595 32.8917 26.2668C32.4902 26.9386 31.821 27.3416 31.0848 27.3416H30.951C30.6833 27.3416 30.4826 27.476 30.2818 27.6775C30.148 27.8119 29.9472 28.0134 29.8134 28.215C29.6795 28.4165 29.5457 28.618 29.6126 28.8868V29.0211C29.7464 29.7601 29.4787 30.499 28.9434 30.9693C28.3411 31.5067 27.605 31.6411 26.8689 31.3724H26.8019C26.6012 31.238 26.3335 31.3052 26.0658 31.4395C25.7981 31.5067 25.5974 31.6411 25.3966 31.7754C25.1289 31.9098 24.9951 32.1113 24.9282 32.38V32.4472C24.7943 33.119 24.259 33.7236 23.5898 33.9923C22.8536 34.261 22.1175 34.1267 21.5152 33.6564L21.5821 33.5893C21.3814 33.3877 21.1137 33.3205 20.846 33.3877C20.7122 33.4213 20.5783 33.4381 20.4445 33.4549C20.3107 33.4717 20.1768 33.4885 20.043 33.5221C19.7753 33.5221 19.5745 33.7236 19.4407 33.9251L19.3738 33.9923C18.9722 34.5969 18.303 35 17.5669 35C16.8308 35 16.1616 34.6641 15.7601 33.9923L15.6931 33.9251C15.5593 33.7236 15.3585 33.5892 15.0909 33.5221C14.957 33.4885 14.8232 33.4717 14.6893 33.4549C14.5555 33.4381 14.4217 33.4213 14.2878 33.3877C14.0201 33.3205 13.7525 33.3877 13.5517 33.5893L13.4848 33.6564C12.8825 34.1939 12.1464 34.3282 11.4102 33.9923C10.6741 33.7908 10.2057 33.1862 10.0718 32.4472V32.38C10.0049 32.1113 9.87107 31.9098 9.60339 31.7754C9.33571 31.7083 9.13495 31.5739 8.93419 31.4395C8.73343 31.3052 8.46575 31.3052 8.19806 31.3724L8.13114 31.4395C7.39502 31.6411 6.6589 31.5067 6.05661 31.0365C5.52125 30.5662 5.25357 29.8273 5.38741 29.0883V28.9539C5.45433 28.7524 5.38741 28.4837 5.18665 28.2821C5.05281 28.1478 4.85204 27.9463 4.7182 27.7447C4.58436 27.5432 4.31668 27.4088 4.049 27.4088H3.91516C3.17903 27.4088 2.50983 27.0058 2.10831 26.334C1.70679 25.6622 1.70679 24.9232 2.10831 24.2514L2.17523 24.1171C2.30907 23.9155 2.30907 23.6468 2.24215 23.3781C2.13408 23.2154 2.06965 23.0089 2.01361 22.8293L2.0136 22.8293L2.01359 22.8292L2.01358 22.8292L2.01351 22.829C2.00018 22.7862 1.98732 22.745 1.97447 22.7063C1.84063 22.4376 1.70679 22.2361 1.4391 22.1689L1.37218 22.2361C0.63606 21.9674 0.167617 21.3628 0.0337767 20.6238C-0.100064 19.8848 0.167617 19.1459 0.769901 18.6756H0.836821C1.03758 18.4741 1.17142 18.2726 1.17142 18.0038V17.6008V17.1977C1.17142 16.929 1.03758 16.6603 0.836821 16.5259L0.769901 16.4587C0.167617 15.9885 -0.100064 15.2495 0.0337767 14.5106C0.167617 13.7716 0.63606 13.167 1.37218 12.8983H1.4391C1.70679 12.8311 1.90755 12.6296 1.97447 12.3608C2.00793 12.2601 2.05812 12.1425 2.10831 12.025C2.1585 11.9074 2.20869 11.7898 2.24215 11.6891C2.30907 11.4203 2.30907 11.1516 2.17523 10.9501L2.10831 10.8829C1.77371 10.2111 1.77371 9.47217 2.10831 8.80038C2.50983 8.1286 3.17903 7.72553 3.91516 7.72553H4.049C4.31668 7.72553 4.51744 7.59117 4.7182 7.38964L4.71821 7.38963L4.71822 7.38962C4.85206 7.25526 5.05281 7.05374 5.18665 6.85221C5.32049 6.65067 5.45433 6.44914 5.38741 6.18042V6.04606C5.25357 5.3071 5.52125 4.56814 6.05661 4.09789C6.6589 3.56046 7.39502 3.4261 8.13114 3.69482H8.19806C8.39883 3.82917 8.66651 3.762 8.93419 3.62764C9.20187 3.56046 9.40263 3.4261 9.60339 3.29175C9.87107 3.15739 10.0049 2.95585 10.0718 2.68714V2.61996C10.2057 1.94818 10.741 1.34357 11.4102 1.07486C12.1464 0.806142 12.8825 0.940499 13.4848 1.41075H13.4179C13.6186 1.61228 13.8863 1.67946 14.154 1.61228C14.2878 1.57869 14.4217 1.5619 14.5555 1.54511C14.6893 1.52831 14.8232 1.51152 14.957 1.47793C15.2247 1.47793 15.4255 1.27639 15.5593 1.07486L15.6262 1.00768C16.0278 0.403071 16.697 0 17.4331 0C18.1692 0 18.8384 0.335892 19.2399 1.00768L19.3069 1.07486C19.4407 1.27639 19.6415 1.41075 19.9091 1.47793C20.043 1.51152 20.1768 1.52831 20.3107 1.54511C20.4445 1.5619 20.5783 1.57869 20.7122 1.61228C20.9799 1.67946 21.2475 1.61228 21.4483 1.41075H21.5152C22.1175 0.87332 22.8536 0.738963 23.5898 1.07486C24.3259 1.27639 24.7943 1.881 24.9282 2.61996V2.68714C24.9951 2.95585 25.1289 3.15739 25.3966 3.29175C25.6643 3.35893 25.865 3.49328 26.0658 3.62764C26.2666 3.762 26.5343 3.762 26.8019 3.69482L26.8689 3.62764C27.605 3.4261 28.3411 3.56046 28.9434 4.03071C29.4787 4.50096 29.7464 5.23992 29.6126 5.97889V6.11324C29.5457 6.31478 29.6126 6.58349 29.8134 6.78503C29.9472 6.91939 30.148 7.12092 30.2818 7.32246C30.4156 7.52399 30.6833 7.65835 30.951 7.65835H31.0848C31.821 7.65835 32.4902 8.06142 32.8917 8.7332C33.2932 9.40499 33.2932 10.144 32.8917 10.8157L32.8248 10.9501C32.6909 11.1516 32.6909 11.4203 32.7579 11.6891C32.8659 11.8518 32.9304 12.0583 32.9864 12.2379C32.9998 12.2807 33.0126 12.322 33.0255 12.3608C33.1594 12.6296 33.2932 12.8311 33.5609 12.8983L33.6278 12.8311C34.3639 13.0998 34.8324 13.7044 34.9662 14.4434C35.1001 15.1823 34.8324 15.9213 34.2301 16.3916L34.1632 16.4587C33.9624 16.6603 33.8286 16.8618 33.8286 17.1305V17.5336V17.9367C33.8286 18.2054 33.9624 18.4741 34.1632 18.6084ZM7.68306 7.68306C7.56585 7.80027 7.5 7.95924 7.5 8.125V11.875C7.5 12.0408 7.56585 12.1997 7.68306 12.3169C7.80027 12.4342 7.95924 12.5 8.125 12.5C8.29076 12.5 8.44973 12.4342 8.56694 12.3169C8.68415 12.1997 8.75 12.0408 8.75 11.875V8.75H11.875C12.0408 8.75 12.1997 8.68415 12.3169 8.56694C12.4342 8.44973 12.5 8.29076 12.5 8.125C12.5 7.95924 12.4342 7.80027 12.3169 7.68306C12.1997 7.56585 12.0408 7.5 11.875 7.5H8.125C7.95924 7.5 7.80027 7.56585 7.68306 7.68306ZM22.6831 7.68306C22.5658 7.80027 22.5 7.95924 22.5 8.125C22.5 8.29076 22.5658 8.44973 22.6831 8.56694C22.8003 8.68415 22.9592 8.75 23.125 8.75H26.25V11.875C26.25 12.0408 26.3158 12.1997 26.4331 12.3169C26.5503 12.4342 26.7092 12.5 26.875 12.5C27.0408 12.5 27.1997 12.4342 27.3169 12.3169C27.4342 12.1997 27.5 12.0408 27.5 11.875V8.125C27.5 7.95924 27.4342 7.80027 27.3169 7.68306C27.1997 7.56585 27.0408 7.5 26.875 7.5H23.125C22.9592 7.5 22.8003 7.56585 22.6831 7.68306ZM8.56694 22.6831C8.44973 22.5658 8.29076 22.5 8.125 22.5C7.95924 22.5 7.80027 22.5658 7.68306 22.6831C7.56585 22.8003 7.5 22.9592 7.5 23.125V26.875C7.5 27.0408 7.56585 27.1997 7.68306 27.3169C7.80027 27.4342 7.95924 27.5 8.125 27.5H11.875C12.0408 27.5 12.1997 27.4342 12.3169 27.3169C12.4342 27.1997 12.5 27.0408 12.5 26.875C12.5 26.7092 12.4342 26.5503 12.3169 26.4331C12.1997 26.3158 12.0408 26.25 11.875 26.25H8.75V23.125C8.75 22.9592 8.68415 22.8003 8.56694 22.6831ZM27.3169 22.6831C27.1997 22.5658 27.0408 22.5 26.875 22.5C26.7092 22.5 26.5503 22.5658 26.4331 22.6831C26.3158 22.8003 26.25 22.9592 26.25 23.125V26.25H23.125C22.9592 26.25 22.8003 26.3158 22.6831 26.4331C22.5658 26.5503 22.5 26.7092 22.5 26.875C22.5 27.0408 22.5658 27.1997 22.6831 27.3169C22.8003 27.4342 22.9592 27.5 23.125 27.5H26.875C27.0408 27.5 27.1997 27.4342 27.3169 27.3169C27.4342 27.1997 27.5 27.0408 27.5 26.875V23.125C27.5 22.9592 27.4342 22.8003 27.3169 22.6831ZM13.75 12.5H12.5V13.75H13.75V12.5ZM16.25 10H10V16.25H16.25V10ZM11.25 11.25H15V15H11.25V11.25ZM13.75 21.25H12.5V22.5H13.75V21.25ZM10 18.75H16.25V25H10V18.75ZM15 20H11.25V23.75H15V20ZM22.5 12.5H21.25V13.75H22.5V12.5ZM18.75 10H25V16.25H18.75V10ZM20 11.25V15H23.75V11.25H20ZM17.5 17.5V20H18.75V21.25H17.5V22.5H20V20H21.25V22.5H22.5V21.25H25V20H21.25V17.5H17.5ZM20 20H18.75V18.75H20V20ZM25 22.5H23.75V23.75H21.25V25H25V22.5ZM20 25V23.75H17.5V25H20ZM25 18.75H22.5V17.5H25V18.75Z" fill="#3C35FF"/>
</svg>
