<svg width="14" height="16" viewBox="0 0 14 16" fill="none" xmlns="http://www.w3.org/2000/svg">
<path d="M13.6771 6.76416L7.47119 1.05475C7.26944 0.869142 7.00377 0.768693 6.72969 0.7744C6.45561 0.780108 6.19434 0.891529 6.0005 1.08538L0.292906 6.793L0 7.08588V15.5001H5.5V10.2501H8.5V15.5001H14V7.06128L13.6771 6.76416ZM6.75119 1.77419C6.76 1.77419 6.75456 1.77609 6.75078 1.77981C6.74687 1.77609 6.74237 1.77419 6.75119 1.77419ZM13 14.5001H9.5V10.2501C9.5 9.98488 9.39464 9.73053 9.20711 9.54299C9.01957 9.35545 8.76522 9.2501 8.5 9.2501H5.5C5.23478 9.2501 4.98043 9.35545 4.79289 9.54299C4.60536 9.73053 4.5 9.98488 4.5 10.2501V14.5001H1V7.5001L6.75119 1.79247C6.75159 1.79209 6.75163 1.79175 6.75194 1.79138L13 7.5001V14.5001Z" fill="#3C35FF"/>
</svg>
