<svg xmlns="http://www.w3.org/2000/svg" width="32" height="31" viewBox="0 0 32 31">
  <path id="Subtraction_1" data-name="Subtraction 1" d="M28,31H4a4,4,0,0,1-4-4V4A4,4,0,0,1,4,0H28a4,4,0,0,1,4,4V27A4,4,0,0,1,28,31ZM11.507,5A6.514,6.514,0,0,0,5,11.507v8.65a6.514,6.514,0,0,0,6.507,6.507h8.649a6.515,6.515,0,0,0,6.508-6.507v-8.65A6.515,6.515,0,0,0,20.156,5Zm8.649,19.625H11.507a4.474,4.474,0,0,1-4.469-4.469v-8.65a4.474,4.474,0,0,1,4.469-4.469h8.649a4.474,4.474,0,0,1,4.469,4.469v8.65A4.474,4.474,0,0,1,20.156,24.626ZM15.921,10.5a5.336,5.336,0,1,0,5.335,5.335A5.341,5.341,0,0,0,15.921,10.5Zm5.648-1.628a1.27,1.27,0,1,0,1.27,1.27A1.272,1.272,0,0,0,21.569,8.869ZM15.921,19.25a3.418,3.418,0,1,1,3.417-3.418A3.422,3.422,0,0,1,15.921,19.25Z"/>
</svg>
