<svg width="20" height="22" viewBox="0 0 20 22" fill="none" xmlns="http://www.w3.org/2000/svg">
<path d="M16.8748 1.61687C16.3776 1.61687 15.9007 1.83142 15.549 2.21334C15.1974 2.59525 14.9999 3.11324 14.9999 3.65334C14.9999 4.19345 15.1974 4.71144 15.549 5.09335C15.9007 5.47527 16.3776 5.68982 16.8748 5.68982C17.3721 5.68982 17.849 5.47527 18.2006 5.09335C18.5522 4.71144 18.7498 4.19345 18.7498 3.65334C18.7498 3.11324 18.5522 2.59525 18.2006 2.21334C17.849 1.83142 17.3721 1.61687 16.8748 1.61687ZM13.7499 3.65334C13.7498 2.85699 14.0075 2.08596 14.478 1.47514C14.9484 0.864329 15.6016 0.452631 16.3233 0.312078C17.045 0.171526 17.7892 0.311069 18.4257 0.706293C19.0622 1.10152 19.5505 1.72726 19.8052 2.47403C20.0598 3.22081 20.0646 4.04106 19.8187 4.79129C19.5728 5.54152 19.0919 6.17395 18.46 6.57792C17.8282 6.9819 17.0857 7.1317 16.3624 7.00111C15.6392 6.87053 14.9812 6.46788 14.5036 5.8636L6.1064 10.0995C6.29945 10.764 6.29945 11.4769 6.1064 12.1414L14.5036 16.3773C15.0084 15.7396 15.7132 15.3282 16.4813 15.2228C17.2495 15.1174 18.0263 15.3254 18.6613 15.8066C19.2962 16.2878 19.7441 17.008 19.9181 17.8274C20.0921 18.6468 19.9798 19.5073 19.603 20.2419C19.2262 20.9766 18.6117 21.5331 17.8786 21.8037C17.1456 22.0743 16.3461 22.0397 15.6352 21.7066C14.9243 21.3735 14.3526 20.7656 14.0308 20.0007C13.709 19.2358 13.6602 18.3684 13.8937 17.5666L5.49642 13.3307C5.08072 13.8569 4.52663 14.2322 3.90869 14.4061C3.29074 14.58 2.63858 14.5441 2.03994 14.3034C1.4413 14.0627 0.924899 13.6286 0.560199 13.0595C0.195499 12.4905 0 11.8138 0 11.1204C0 10.4271 0.195499 9.75037 0.560199 9.18131C0.924899 8.61226 1.4413 8.17817 2.03994 7.93744C2.63858 7.69671 3.29074 7.66089 3.90869 7.8348C4.52663 8.0087 5.08072 8.38399 5.49642 8.91017L13.8937 4.6743C13.7981 4.34394 13.7496 3.99963 13.7499 3.65334ZM3.12524 9.08395C2.62797 9.08395 2.15107 9.29851 1.79945 9.68042C1.44783 10.0623 1.25029 10.5803 1.25029 11.1204C1.25029 11.6605 1.44783 12.1785 1.79945 12.5604C2.15107 12.9423 2.62797 13.1569 3.12524 13.1569C3.6225 13.1569 4.0994 12.9423 4.45102 12.5604C4.80264 12.1785 5.00018 11.6605 5.00018 11.1204C5.00018 10.5803 4.80264 10.0623 4.45102 9.68042C4.0994 9.29851 3.6225 9.08395 3.12524 9.08395ZM16.8748 16.551C16.3776 16.551 15.9007 16.7656 15.549 17.1475C15.1974 17.5294 14.9999 18.0474 14.9999 18.5875C14.9999 19.1276 15.1974 19.6456 15.549 20.0275C15.9007 20.4094 16.3776 20.624 16.8748 20.624C17.3721 20.624 17.849 20.4094 18.2006 20.0275C18.5522 19.6456 18.7498 19.1276 18.7498 18.5875C18.7498 18.0474 18.5522 17.5294 18.2006 17.1475C17.849 16.7656 17.3721 16.551 16.8748 16.551Z" fill="#2688FF"/>
</svg>
