<svg width="17" height="13" viewBox="0 0 17 13" fill="none" xmlns="http://www.w3.org/2000/svg">
<path d="M3.62628 12.4576C2.90912 12.4577 2.20803 12.245 1.61171 11.8466C1.01538 11.4482 0.5506 10.8819 0.276142 10.2194C0.00168406 9.55678 -0.0701199 8.8277 0.0698116 8.12431C0.209743 7.42093 0.555124 6.77484 1.06227 6.26776L4.80387 2.52762C5.48389 1.84761 6.40619 1.46558 7.36788 1.46558C8.32957 1.46558 9.25187 1.84761 9.93189 2.52762C10.6119 3.20764 10.9939 4.12995 10.9939 5.09164C10.9939 6.05333 10.6119 6.97563 9.93189 7.65565L9.52666 8.06014L8.48977 7.02472L8.89793 6.61656C9.30162 6.21095 9.528 5.66182 9.52745 5.08957C9.5269 4.51731 9.29946 3.96862 8.895 3.56378C8.48335 3.17092 7.93618 2.95173 7.36715 2.95173C6.79811 2.95173 6.25095 3.17092 5.83929 3.56378L2.09916 7.30391C1.89838 7.50447 1.7391 7.74264 1.63042 8.0048C1.52174 8.26696 1.46581 8.54797 1.46581 8.83177C1.46581 9.11556 1.52174 9.39657 1.63042 9.65873C1.7391 9.92089 1.89838 10.1591 2.09916 10.3596C2.51082 10.7525 3.05798 10.9717 3.62702 10.9717C4.19605 10.9717 4.74322 10.7525 5.15487 10.3596L6.19103 11.3958C5.85494 11.7335 5.45522 12.0013 5.01499 12.1835C4.57476 12.3658 4.10275 12.4589 3.62628 12.4576Z" fill="white"/>
<path d="M9.48865 10.992C8.77148 10.9921 8.0704 10.7795 7.47407 10.3811C6.87775 9.98265 6.41297 9.41635 6.13851 8.75378C5.86405 8.0912 5.79225 7.36212 5.93218 6.65873C6.07211 5.95535 6.41749 5.30926 6.92464 4.80218L7.32987 4.39768L8.36603 5.43457L7.96153 5.83907C7.55643 6.24419 7.32884 6.79364 7.32884 7.36656C7.32884 7.93947 7.55643 8.48892 7.96153 8.89404C8.37318 9.2869 8.92035 9.5061 9.48938 9.5061C10.0584 9.5061 10.6056 9.2869 11.0172 8.89404L14.7581 5.15318C15.1624 4.7478 15.3895 4.19862 15.3895 3.62606C15.3895 3.0535 15.1624 2.50431 14.7581 2.09894C14.3464 1.70608 13.7993 1.48689 13.2302 1.48689C12.6612 1.48689 12.114 1.70608 11.7024 2.09894L10.6662 1.06205C11.3463 0.38203 12.2686 0 13.2302 0C14.1919 0 15.1142 0.38203 15.7943 1.06205C16.4743 1.74207 16.8563 2.66437 16.8563 3.62606C16.8563 4.58775 16.4743 5.51005 15.7943 6.19007L12.0541 9.92947C11.7181 10.2673 11.3184 10.5351 10.8781 10.7175C10.4379 10.8999 9.96589 10.9932 9.48938 10.992H9.48865Z" fill="white"/>
</svg>
