<svg width="295" height="52" viewBox="0 0 295 52" fill="none" xmlns="http://www.w3.org/2000/svg">
<path d="M31.775 51H0.311L9.074 1.32H21.494L14.663 40.236H33.707L31.775 51ZM107.136 18.777L118.797 1.32H131.217L109.965 31.887L106.584 51H94.0955L97.4765 31.887L86.9885 1.32H100.167L105.549 18.777H107.136ZM148.388 51L148.802 40.167H137.279L133.898 51H120.719L138.452 1.32H161.222L161.498 51H148.388ZM145.559 13.395L140.108 30.921H149.147L149.906 13.395H145.559ZM199.491 51H168.027L176.79 1.32H189.21L182.379 40.236H201.423L199.491 51ZM247.748 12.084H230.774L223.943 51H211.454L218.285 12.084H201.242L203.174 1.32H249.68L247.748 12.084ZM270.607 18.777L282.268 1.32H294.688L273.436 31.887L270.055 51H257.566L260.947 31.887L250.459 1.32H263.638L269.02 18.777H270.607Z" fill="black"/>
<path d="M64.1452 0.836996C75.2312 0.836996 80.7742 5.368 80.7742 14.43C80.7742 15.948 80.6132 17.581 80.2912 19.329L77.8762 33.129C76.7722 39.523 74.3802 44.261 70.7002 47.343C67.0202 50.425 61.8452 51.966 55.1752 51.966C48.5052 51.966 43.8592 50.425 41.2372 47.343C39.4432 45.227 38.5462 42.306 38.5462 38.58C38.5462 36.924 38.7302 35.107 39.0982 33.129L41.5132 19.329C43.6752 7.001 51.2192 0.836996 64.1452 0.836996ZM57.0382 41.271C59.3382 41.271 61.1782 40.673 62.5582 39.477C63.9382 38.281 64.9042 36.073 65.4562 32.853L67.8022 19.605C67.9402 18.685 68.0092 17.857 68.0092 17.121C68.0092 13.395 66.1232 11.532 62.3512 11.532C57.6132 11.624 54.7842 14.315 53.8642 19.605L51.5182 32.853C51.3342 34.003 51.2422 35.199 51.2422 36.441C51.2422 39.661 53.1742 41.271 57.0382 41.271Z" fill="#FFCC33"/>
</svg>
