<svg width="16" height="21" viewBox="0 0 16 21" fill="none" xmlns="http://www.w3.org/2000/svg">
<path d="M14.5455 8C14.5455 6.26404 13.8558 4.59917 12.6283 3.37166C11.4008 2.14415 9.73596 1.45455 8 1.45455C6.26404 1.45455 4.59918 2.14415 3.37166 3.37166C2.14415 4.59917 1.45455 6.26404 1.45455 8C1.45455 10.6851 3.60291 14.1847 8 18.3767C12.3971 14.1847 14.5455 10.6851 14.5455 8ZM8 20.3636C2.66618 15.5156 0 11.3935 0 8C0 5.87827 0.842855 3.84344 2.34315 2.34315C3.84344 0.842855 5.87827 0 8 0C10.1217 0 12.1566 0.842855 13.6569 2.34315C15.1571 3.84344 16 5.87827 16 8C16 11.3935 13.3338 15.5156 8 20.3636Z" fill="#2783FF"/>
<path d="M7.99989 10.1818C8.57854 10.1818 9.1335 9.95196 9.54267 9.54279C9.95184 9.13362 10.1817 8.57867 10.1817 8.00001C10.1817 7.42136 9.95184 6.8664 9.54267 6.45723C9.1335 6.04806 8.57854 5.81819 7.99989 5.81819C7.42123 5.81819 6.86628 6.04806 6.45711 6.45723C6.04794 6.8664 5.81807 7.42136 5.81807 8.00001C5.81807 8.57867 6.04794 9.13362 6.45711 9.54279C6.86628 9.95196 7.42123 10.1818 7.99989 10.1818ZM7.99989 11.6364C7.03547 11.6364 6.11054 11.2533 5.42859 10.5713C4.74664 9.88936 4.36353 8.96443 4.36353 8.00001C4.36353 7.03559 4.74664 6.11066 5.42859 5.42871C6.11054 4.74676 7.03547 4.36365 7.99989 4.36365C8.96431 4.36365 9.88924 4.74676 10.5712 5.42871C11.2531 6.11066 11.6363 7.03559 11.6363 8.00001C11.6363 8.96443 11.2531 9.88936 10.5712 10.5713C9.88924 11.2533 8.96431 11.6364 7.99989 11.6364Z" fill="#2783FF"/>
</svg>
