<svg width="80" height="9" viewBox="0 0 80 9" fill="none" xmlns="http://www.w3.org/2000/svg">
<path d="M7.01691 7.30328H3.81979L2.98159 8.80328H0L5.34052 0.196721H8.11855L10.1063 8.80328H7.29232L7.01691 7.30328ZM6.62176 5.21311L6.21464 3.0123L4.98129 5.21311H6.62176Z" fill="#3C35FF"/>
<path d="M17.3246 7.30328H14.1275L13.2893 8.80328H10.3077L15.6482 0.196721H18.4262L20.414 8.80328H17.6L17.3246 7.30328ZM16.9294 5.21311L16.5223 3.0123L15.289 5.21311H16.9294Z" fill="#3C35FF"/>
<path d="M25.7533 9C24.8991 9 24.1447 8.84016 23.4901 8.52049C22.8435 8.19262 22.3406 7.73771 21.9814 7.15574C21.6301 6.57377 21.4545 5.90574 21.4545 5.15164C21.4545 4.15164 21.678 3.2623 22.1251 2.48361C22.5801 1.70492 23.2067 1.09836 24.005 0.663934C24.8113 0.221311 25.7253 0 26.7471 0C27.5534 0 28.2678 0.151639 28.8905 0.454918C29.5132 0.75 29.9762 1.17213 30.2795 1.72131L28.2439 3.35656C27.8687 2.68443 27.3099 2.34836 26.5675 2.34836C26.1285 2.34836 25.7373 2.45902 25.394 2.68033C25.0508 2.90164 24.7833 3.21311 24.5918 3.61475C24.4002 4.0082 24.3044 4.45902 24.3044 4.96721C24.3044 5.47541 24.46 5.88525 24.7714 6.19672C25.0907 6.5 25.5098 6.65164 26.0287 6.65164C26.7391 6.65164 27.3618 6.31967 27.8966 5.65574L29.5611 7.29098C29.0741 7.90574 28.5193 8.34426 27.8966 8.60656C27.282 8.86885 26.5675 9 25.7533 9Z" fill="#3C35FF"/>
<path d="M33.1325 2.44672H30.6778L31.1208 0.196721H38.8562L38.4131 2.44672H35.9584L34.7251 8.80328H31.8991L33.1325 2.44672Z" fill="#3C35FF"/>
<path d="M39.8296 0.196721H42.6556L40.9792 8.80328H38.1533L39.8296 0.196721Z" fill="#3C35FF"/>
<path d="M53.2122 0.196721L47.9914 8.80328H45.2134L43.3454 0.196721H46.2432L47.2849 5.21311L50.3144 0.196721H53.2122Z" fill="#F5C324"/>
<path d="M57.6323 0.196721C58.7499 0.196721 59.616 0.446721 60.2307 0.946721C60.8454 1.44672 61.1527 2.14754 61.1527 3.04918C61.1527 3.77049 60.9771 4.40574 60.6258 4.95492C60.2826 5.5041 59.7876 5.93033 59.141 6.23361C58.5024 6.53689 57.76 6.68852 56.9138 6.68852H55.4649L55.0578 8.80328H52.2319L53.9083 0.196721H57.6323ZM57.0575 4.45082C57.4487 4.45082 57.752 4.35246 57.9676 4.15574C58.1831 3.95082 58.2909 3.66803 58.2909 3.30738C58.2909 2.72541 57.9396 2.43443 57.2371 2.43443H56.2912L55.896 4.45082H57.0575Z" fill="#3C35FF"/>
<path d="M66.9392 7.30328H63.7421L62.9039 8.80328H59.9223L65.2628 0.196721H68.0408L70.0285 8.80328H67.2146L66.9392 7.30328ZM66.544 5.21311L66.1369 3.0123L64.9035 5.21311H66.544Z" fill="#3C35FF"/>
<path d="M75.7611 5.68033L75.1624 8.80328H72.3365L72.9472 5.64344L70.8517 0.196721H73.6896L74.8271 3.17213L77.1621 0.196721H80L75.7611 5.68033Z" fill="#3C35FF"/>
</svg>
