<svg width="36" height="61" viewBox="0 0 36 61" fill="none" xmlns="http://www.w3.org/2000/svg">
<g opacity="0.5">
<path d="M18 56.3078L16.8923 55.0351C16.2 54.328 0 34.8131 0 23.0759C0 12.8943 8.03077 4.69238 18 4.69238C27.9692 4.69238 36 12.8943 36 23.0759C36 34.8131 19.8 54.328 19.1077 55.1765L18 56.3078ZM18 7.52062C9.55385 7.52062 2.76923 14.4498 2.76923 23.0759C2.76923 32.1263 14.4 47.3988 18 51.924C21.6 47.3988 33.2308 32.1263 33.2308 23.0759C33.2308 14.4498 26.4462 7.52062 18 7.52062Z" fill="#0A0A0E"/>
<path d="M18.0001 31.3445C13.9681 31.3445 10.8001 28.0411 10.8001 23.8368C10.8001 19.6325 13.9681 16.3291 18.0001 16.3291C22.0321 16.3291 25.2001 19.6325 25.2001 23.8368C25.2001 28.0411 22.0321 31.3445 18.0001 31.3445ZM18.0001 19.3322C15.5521 19.3322 13.6801 21.2842 13.6801 23.8368C13.6801 26.3894 15.5521 28.3414 18.0001 28.3414C20.4481 28.3414 22.3201 26.3894 22.3201 23.8368C22.3201 21.2842 20.4481 19.3322 18.0001 19.3322Z" fill="#0A0A0E"/>
</g>
</svg>
