<svg width="61" height="61" viewBox="0 0 61 61" fill="none" xmlns="http://www.w3.org/2000/svg">
<path d="M51.4688 44.7016C51.4688 56.2344 42.1281 56.2344 30.5 56.2344C18.8719 56.2344 9.53125 56.2344 9.53125 44.7016C9.53125 33.1688 18.9672 14.2969 30.5 14.2969C42.0328 14.2969 51.4688 33.0734 51.4688 44.7016Z" fill="#D9A141"/>
<path opacity="0.5" d="M51.4688 44.7016C51.4688 40.7938 50.4204 36.0281 48.5142 31.4531C48.8954 34.4078 48.1329 39.65 39.0782 41.6516C26.211 44.4156 32.8829 48.0375 27.8313 48.5141C23.5423 48.8953 12.1048 47.1797 9.81729 40.6984C9.62666 42.1281 9.43604 43.4625 9.43604 44.7969C9.53135 56.2344 18.9673 56.2344 30.5001 56.2344C42.0329 56.2344 51.4688 56.2344 51.4688 44.7016Z" fill="#89664C"/>
<path d="M36.1233 39.1732C35.7421 37.267 34.1218 36.6951 32.4062 36.5998V33.9311C32.8827 34.1217 33.4546 34.4076 33.8358 34.6936C34.5983 35.1701 35.3608 33.9311 34.5983 33.4545C33.9312 33.0732 33.1687 32.692 32.4062 32.4061V29.2607C32.4062 28.3076 30.9765 28.3076 30.9765 29.2607V32.0248C30.214 31.9295 29.4515 31.9295 28.689 32.0248C28.5937 31.3576 28.403 30.6904 28.2124 30.0232C28.0218 29.0701 26.5921 29.4514 26.878 30.4045C27.0687 31.0717 27.164 31.7389 27.3546 32.4061C27.2593 32.4061 27.2593 32.4061 27.164 32.5014C25.2577 33.2639 24.0187 35.1701 25.4484 36.9811C26.1155 37.8389 26.9733 38.1248 27.9265 38.3154C28.0218 39.5545 28.0218 40.7936 28.0218 42.0326C27.3546 41.6514 26.7827 41.0795 26.3062 40.6029C25.639 39.9357 24.6858 40.9842 25.2577 41.6514C26.1155 42.6045 27.0687 43.2717 28.0218 43.7482C28.0218 44.7967 28.1171 45.8451 28.2124 46.8936C28.3077 47.8467 29.7374 47.8467 29.6421 46.8936C29.5468 45.9404 29.4515 45.0826 29.4515 44.1295C30.0233 44.2248 30.5952 44.2248 31.1671 44.2248C31.2624 45.1779 31.3577 46.1311 31.453 47.1795C31.5483 48.1326 32.978 48.1326 32.8827 47.1795C32.7874 46.1311 32.6921 45.0826 32.5968 43.9389C34.6937 43.1764 36.5999 41.5561 36.1233 39.1732V39.1732ZM30.9765 33.4545V36.5998C30.4999 36.5998 30.1187 36.6951 29.7374 36.6951H29.2608L28.9749 33.2639C29.6421 33.2639 30.3093 33.3592 30.9765 33.4545ZM27.5452 36.5045C27.164 36.4092 26.7827 36.1232 26.4015 35.8373C25.5437 34.9795 26.7827 34.217 27.5452 33.8357C27.6405 34.7889 27.7358 35.6467 27.8312 36.5998C27.7358 36.5998 27.6405 36.5998 27.5452 36.5045V36.5045ZM30.6905 42.6045C30.214 42.6998 29.8327 42.6045 29.4515 42.5092C29.3562 41.0795 29.3562 39.6498 29.3562 38.1248C29.928 38.1248 30.4999 38.0295 31.0718 38.0295C31.0718 39.5545 31.1671 40.9842 31.1671 42.5092C30.9765 42.6045 30.8812 42.6045 30.6905 42.6045ZM33.8358 41.5561C33.4546 41.842 32.978 42.0326 32.5968 42.2232C32.5015 40.7936 32.5015 39.4592 32.5015 38.0295H32.978C34.789 38.4107 35.2655 40.4123 33.8358 41.5561" fill="white"/>
<path d="M43.8438 1.90625C43.8438 7.72031 36.3141 17.1562 30.5 17.1562C24.6859 17.1562 17.1562 8.67344 17.1562 2.85938C17.1562 -2.95469 18.0141 2.85938 23.8281 2.85938C24.6859 2.85938 28.6891 0 30.5 0C31.7391 0 35.2656 2.85938 37.1719 2.85938C42.2234 2.85938 43.8438 -2.47812 43.8438 1.90625Z" fill="#D9A141"/>
<path d="M28.7845 12.6766C28.2126 13.0578 25.4486 12.7719 24.5908 13.4391C23.447 14.2969 25.0673 16.2984 23.9236 17.5375C21.6361 19.825 19.8251 22.3984 20.397 23.8281C21.3501 26.3062 23.1611 19.2531 24.7814 21.9219C26.4017 24.5906 26.1158 20.1109 28.5939 22.3984C31.072 24.6859 28.9751 18.3 31.358 21.0641C33.7408 23.8281 33.8361 26.9734 35.5517 26.9734C37.5533 26.9734 33.4548 19.4437 36.1236 21.2547C38.7923 23.0656 41.747 22.3984 39.0783 19.6344C38.2205 18.7766 37.0767 17.2516 35.7423 15.9172C35.2658 15.4406 35.647 12.9625 35.1705 12.5812C34.5986 12.1047 33.1689 13.6297 32.597 13.3437C31.4533 12.7719 31.8345 13.8203 30.1189 14.1062C28.9751 14.4875 29.9283 11.9141 28.7845 12.6766" fill="#89664C"/>
<path d="M17.8232 18.2998C21.5404 14.7732 28.3076 16.7748 32.3107 18.4904C36.2185 20.2061 38.6014 14.7732 36.1232 12.0092C34.6935 10.3889 32.406 12.2951 31.5482 13.4389C30.5951 14.5826 29.8326 15.8217 28.7842 16.9654C27.2592 18.6811 23.542 17.2514 24.6857 14.8686C25.9248 12.3904 31.167 15.2498 32.8826 15.7264C36.2185 16.6795 39.7451 17.0607 43.081 15.8217C44.2248 15.4404 43.7482 13.5342 42.6045 14.0107C38.8873 15.3451 35.1701 14.4873 31.6435 13.3436C29.8326 12.7717 26.9732 11.2467 25.067 12.1045C19.6342 14.6779 24.6857 22.017 29.2607 19.1576C30.3092 18.4904 30.9763 17.442 31.7388 16.4889C32.2154 15.917 34.5982 12.2951 35.1701 14.1061C35.456 15.0592 35.1701 16.7748 34.1217 17.0607C33.4545 17.3467 32.1201 16.3936 31.4529 16.2029C30.2138 15.7264 28.9748 15.3451 27.6404 15.0592C24.1138 14.2967 19.3482 14.4873 16.5842 17.0607C15.631 17.8232 16.9654 19.1576 17.8232 18.2998" fill="#E8E8E8"/>
<path d="M42.7 0.476562C41.7469 1.23906 40.0313 2.85938 37.1719 2.85938C35.2656 2.85938 31.7391 0 30.5 0C28.6891 0 24.6859 2.85938 23.8281 2.85938C20.6828 2.85938 18.9672 1.23906 18.1094 0.571875C18.1094 0.571875 19.1578 4.86094 22.3984 7.05313C24.7813 8.57813 24.4953 6.76719 25.7344 5.05156C26.9734 3.33594 27.8313 2.47812 30.0234 6.76719C31.1672 9.15 33.3594 0.285937 35.075 3.14531C38.2203 8.3875 39.3641 5.52813 42.7 0.476562Z" fill="#89664C"/>
</svg>
