<svg width="61" height="61" viewBox="0 0 61 61" fill="none" xmlns="http://www.w3.org/2000/svg">
<path d="M43.2083 5.0835H33.0416V15.4001C36.6796 15.8 40.1673 17.0721 43.2083 19.1084V5.0835ZM27.9583 5.0835H17.7916V19.1084C20.8327 17.0721 24.3204 15.8 27.9583 15.4001V5.0835ZM30.5 55.9168C35.2186 55.9168 39.744 54.0424 43.0806 50.7058C46.4172 47.3692 48.2916 42.8438 48.2916 38.1252C48.2916 33.4065 46.4172 28.8811 43.0806 25.5446C39.744 22.208 35.2186 20.3335 30.5 20.3335C25.7813 20.3335 21.256 22.208 17.9194 25.5446C14.5828 28.8811 12.7083 33.4065 12.7083 38.1252C12.7083 42.8438 14.5828 47.3692 17.9194 50.7058C21.256 54.0424 25.7813 55.9168 30.5 55.9168ZM27.3864 34.2644L30.5 27.9585L33.6135 34.2644L40.5726 35.2734L35.5376 40.1839L36.7271 47.115L30.5 43.8439L24.2754 47.115L25.4649 40.1839L20.4299 35.2734L27.3864 34.2644Z" fill="#FAFAFA"/>
</svg>
