<svg width="16" height="17" viewBox="0 0 16 17" fill="none" xmlns="http://www.w3.org/2000/svg">
<path d="M7.48663 16.666C7.80209 16.6587 8.10482 16.5401 8.34127 16.3311C8.57771 16.1222 8.73264 15.8363 8.77865 15.5242H6.14453C6.19184 15.8448 6.35402 16.1374 6.6009 16.3474C6.84777 16.5574 7.16254 16.6706 7.48663 16.666Z" fill="black"/>
<path d="M14.7531 13.4361C14.2702 13.0056 13.8474 12.5121 13.4961 11.9688C13.1126 11.2189 12.8828 10.4 12.82 9.56003V7.08616C12.818 6.78567 12.7912 6.48585 12.7399 6.18976C12.3458 6.11097 11.9669 5.96891 11.6182 5.7691C11.7511 6.19719 11.8187 6.64291 11.8185 7.09117V9.56504C11.8799 10.5897 12.1617 11.5889 12.6448 12.4946C12.9905 13.0425 13.4008 13.5469 13.8667 13.997H1.04163C1.50756 13.5469 1.9178 13.0425 2.26354 12.4946C2.7466 11.5889 3.02845 10.5897 3.08983 9.56504V7.08616C3.0872 6.5066 3.19891 5.93221 3.41857 5.39588C3.63823 4.85955 3.96152 4.37181 4.36994 3.9606C4.77836 3.54939 5.26388 3.22278 5.7987 2.99948C6.33352 2.77617 6.90714 2.66055 7.48671 2.65924C8.33492 2.65991 9.16409 2.91076 9.87044 3.38036C9.79257 3.09441 9.74886 2.80024 9.74023 2.50399V2.1885C9.21734 1.93128 8.6556 1.76208 8.07763 1.68772V1.05673C8.07763 0.87942 8.0072 0.709373 7.88182 0.583996C7.75644 0.45862 7.5864 0.388184 7.40909 0.388184C7.23178 0.388184 7.06173 0.45862 6.93635 0.583996C6.81098 0.709373 6.74054 0.87942 6.74054 1.05673V1.71276C5.44638 1.89532 4.26195 2.53992 3.40594 3.52756C2.54992 4.5152 2.08012 5.77919 2.08326 7.08616V9.56003C2.02054 10.4 1.79069 11.2189 1.4072 11.9688C1.0621 12.5108 0.646108 13.0043 0.170266 13.4361C0.116848 13.483 0.0740365 13.5408 0.0446786 13.6055C0.0153207 13.6703 9.00389e-05 13.7406 0 13.8117V14.4927C0 14.6256 0.0527609 14.7529 0.146676 14.8469C0.240591 14.9408 0.367967 14.9935 0.500783 14.9935H14.4226C14.5554 14.9935 14.6827 14.9408 14.7767 14.8469C14.8706 14.7529 14.9233 14.6256 14.9233 14.4927V13.8117C14.9232 13.7406 14.908 13.6703 14.8787 13.6055C14.8493 13.5408 14.8065 13.483 14.7531 13.4361Z" fill="black"/>
<path d="M13.4961 5.00783C14.879 5.00783 16 3.88679 16 2.50392C16 1.12104 14.879 0 13.4961 0C12.1132 0 10.9922 1.12104 10.9922 2.50392C10.9922 3.88679 12.1132 5.00783 13.4961 5.00783Z" fill="#F23764"/>
</svg>
