<svg width="10" height="10" viewBox="0 0 10 10" fill="none" xmlns="http://www.w3.org/2000/svg">
<path d="M4.49205 9.99991C4.68133 9.99555 4.86297 9.92439 5.00485 9.79901C5.14672 9.67364 5.23968 9.50213 5.26728 9.31482H3.68677C3.71515 9.50722 3.81246 9.68276 3.96059 9.80878C4.10872 9.9348 4.29759 10.0027 4.49205 9.99991Z" fill="black"/>
<path d="M8.85209 8.06181C8.56233 7.8035 8.30866 7.50738 8.09789 7.18141C7.86779 6.73146 7.72987 6.24008 7.69224 5.73611V4.25175C7.69102 4.07144 7.67494 3.89155 7.64416 3.71389C7.40766 3.66661 7.18037 3.58138 6.97109 3.46149C7.05087 3.71835 7.09139 3.98579 7.09128 4.25475V5.73911C7.12811 6.3539 7.29723 6.95349 7.58707 7.49691C7.79452 7.82564 8.04067 8.12828 8.32024 8.39835H0.624995C0.904562 8.12828 1.15071 7.82564 1.35816 7.49691C1.64801 6.95349 1.81712 6.3539 1.85395 5.73911V4.25175C1.85237 3.904 1.9194 3.55935 2.0512 3.23755C2.183 2.91574 2.37698 2.62309 2.62204 2.37636C2.8671 2.12963 3.15842 1.93366 3.47932 1.79967C3.80022 1.66568 4.1444 1.5963 4.49215 1.59552C5.00109 1.59593 5.4986 1.74643 5.92242 2.02821C5.8757 1.85663 5.84948 1.68012 5.8443 1.50237V1.31307C5.53056 1.15873 5.1935 1.05721 4.84671 1.01259V0.633988C4.84671 0.527599 4.80445 0.425568 4.72922 0.35034C4.65399 0.275112 4.55196 0.232849 4.44557 0.232849C4.33919 0.232849 4.23715 0.275112 4.16193 0.35034C4.0867 0.425568 4.04444 0.527599 4.04444 0.633988V1.02761C3.26792 1.13715 2.55724 1.52393 2.04362 2.11653C1.53 2.70913 1.2481 3.46754 1.24999 4.25175V5.73611C1.21236 6.24008 1.07444 6.73146 0.844344 7.18141C0.637279 7.50663 0.387675 7.80272 0.102163 8.06181C0.070111 8.08997 0.0444231 8.12463 0.0268079 8.16349C0.00919268 8.20234 5.40248e-05 8.24451 0 8.28717V8.69582C0 8.77551 0.0316574 8.85194 0.088008 8.90829C0.144359 8.96464 0.220786 8.9963 0.300478 8.9963H8.65377C8.73346 8.9963 8.80989 8.96464 8.86624 8.90829C8.92259 8.85194 8.95425 8.77551 8.95425 8.69582V8.28717C8.9542 8.24451 8.94506 8.20234 8.92744 8.16349C8.90983 8.12463 8.88414 8.08997 8.85209 8.06181Z" fill="black"/>
<path d="M8.09785 3.00478C8.9276 3.00478 9.60024 2.33214 9.60024 1.50239C9.60024 0.672644 8.9276 0 8.09785 0C7.2681 0 6.59546 0.672644 6.59546 1.50239C6.59546 2.33214 7.2681 3.00478 8.09785 3.00478Z" fill="black"/>
</svg>
