<svg width="70" height="70" viewBox="0 0 70 70" fill="none" xmlns="http://www.w3.org/2000/svg">
<path d="M63.214 54.1137C61.339 52.4421 59.6974 50.5258 58.3334 48.4164C56.8444 45.5047 55.952 42.3249 55.7084 39.0637V29.4581C55.7213 24.3357 53.8632 19.3849 50.4832 15.5358C47.1032 11.6868 42.434 9.20451 37.3529 8.55534V6.047C37.3529 5.35855 37.0794 4.69829 36.5926 4.21147C36.1058 3.72466 35.4455 3.45117 34.7571 3.45117C34.0686 3.45117 33.4083 3.72466 32.9215 4.21147C32.4347 4.69829 32.1612 5.35855 32.1612 6.047V8.59423C27.1256 9.2902 22.5128 11.7875 19.1772 15.6236C15.8417 19.4597 14.0093 24.3746 14.0196 29.4581V39.0637C13.776 42.3249 12.8836 45.5047 11.3946 48.4164C10.0546 50.521 8.43938 52.437 6.59178 54.1137C6.38436 54.2959 6.21813 54.5202 6.10414 54.7716C5.99015 55.0231 5.93101 55.2959 5.93066 55.572V58.2164C5.93066 58.7321 6.13552 59.2267 6.50018 59.5914C6.86483 59.956 7.35941 60.1609 7.87511 60.1609H61.9307C62.4464 60.1609 62.9409 59.956 63.3056 59.5914C63.6702 59.2267 63.8751 58.7321 63.8751 58.2164V55.572C63.8748 55.2959 63.8156 55.0231 63.7016 54.7716C63.5876 54.5202 63.4214 54.2959 63.214 54.1137ZM9.97511 56.272C11.7842 54.5243 13.3771 52.5659 14.7196 50.4387C16.5952 46.9221 17.6896 43.042 17.9279 39.0637V29.4581C17.8508 27.1793 18.233 24.9083 19.0519 22.7802C19.8707 20.6522 21.1094 18.7108 22.6942 17.0714C24.279 15.4321 26.1775 14.1284 28.2766 13.2381C30.3757 12.3477 32.6325 11.8889 34.9126 11.8889C37.1927 11.8889 39.4495 12.3477 41.5486 13.2381C43.6478 14.1284 45.5462 15.4321 47.131 17.0714C48.7158 18.7108 49.9545 20.6522 50.7734 22.7802C51.5922 24.9083 51.9744 27.1793 51.8973 29.4581V39.0637C52.1357 43.042 53.23 46.9221 55.1057 50.4387C56.4481 52.5659 58.041 54.5243 59.8501 56.272H9.97511Z" fill="#0A0A0E"/>
<path d="M34.9999 66.6555C36.2248 66.6273 37.4002 66.1668 38.3183 65.3555C39.2364 64.5442 39.838 63.4343 40.0166 62.2222H29.7888C29.9725 63.4672 30.6022 64.6032 31.5608 65.4187C32.5194 66.2342 33.7415 66.6737 34.9999 66.6555Z" fill="#0A0A0E"/>
</svg>
