<svg width="26" height="28" viewBox="0 0 26 28" fill="none" xmlns="http://www.w3.org/2000/svg">
<path d="M10.8582 27.9542C11.2903 27.9424 11.7049 27.7488 12.0288 27.4078C12.3527 27.0668 12.5649 26.6003 12.6279 26.0908H9.0199C9.0847 26.6141 9.30684 27.0916 9.64499 27.4343C9.98314 27.7771 10.4143 27.9619 10.8582 27.9542V27.9542Z" fill="black"/>
<path d="M23.1845 23.5074C22.4256 22.7933 21.7612 21.9746 21.2091 21.0734C20.6065 19.8295 20.2453 18.4711 20.1467 17.0778V12.9742C20.1435 12.4758 20.1014 11.9784 20.0208 11.4873C19.4014 11.3566 18.8061 11.121 18.258 10.7895C18.4669 11.4996 18.573 12.239 18.5727 12.9825V17.0861C18.6692 18.7858 19.1121 20.4433 19.8713 21.9457C20.4146 22.8544 21.0593 23.6911 21.7915 24.4377H1.63692C2.36913 23.6911 3.01382 22.8544 3.55715 21.9457C4.31628 20.4433 4.75921 18.7858 4.85567 17.0861V12.9742C4.85153 12.0129 5.02708 11.0601 5.37228 10.1704C5.71747 9.28077 6.22553 8.47173 6.86736 7.78962C7.5092 7.10752 8.27219 6.56574 9.11266 6.19532C9.95313 5.82491 10.8546 5.63312 11.7654 5.63094C13.0983 5.63207 14.4014 6.04816 15.5114 6.82713C15.389 6.3528 15.3203 5.86483 15.3068 5.37343V4.8501C14.4851 4.42342 13.6023 4.14276 12.694 4.01941V2.97274C12.694 2.67862 12.5833 2.39655 12.3863 2.18858C12.1893 1.98061 11.922 1.86377 11.6434 1.86377C11.3647 1.86377 11.0975 1.98061 10.9005 2.18858C10.7035 2.39655 10.5928 2.67862 10.5928 2.97274V4.06094C8.55898 4.36377 6.69766 5.43303 5.35243 7.0713C4.0072 8.70958 3.2689 10.8062 3.27384 12.9742V17.0778C3.17527 18.4711 2.81407 19.8295 2.21142 21.0734C1.66909 21.9725 1.01536 22.7911 0.267574 23.5074C0.183627 23.5852 0.116348 23.681 0.0702124 23.7885C0.0240765 23.8959 0.000141496 24.0124 0 24.1304V25.2601C0 25.4804 0.0829138 25.6917 0.230501 25.8475C0.378089 26.0033 0.578261 26.0908 0.786981 26.0908H22.665C22.8738 26.0908 23.0739 26.0033 23.2215 25.8475C23.3691 25.6917 23.452 25.4804 23.452 25.2601V24.1304C23.4519 24.0124 23.428 23.8959 23.3818 23.7885C23.3357 23.681 23.2684 23.5852 23.1845 23.5074Z" fill="black"/>
<path d="M20.7461 9.31808C23.2369 9.31808 25.2561 7.23216 25.2561 4.65904C25.2561 2.08592 23.2369 0 20.7461 0C18.2553 0 16.2361 2.08592 16.2361 4.65904C16.2361 7.23216 18.2553 9.31808 20.7461 9.31808Z" fill="#FF453A"/>
</svg>
