<svg width="403" height="491" viewBox="0 0 403 491" fill="none" xmlns="http://www.w3.org/2000/svg">
<path d="M109.275 437.424L132.229 450.596L284.668 362.63L261.636 349.458L109.275 437.424Z" fill="#E6E6E6"/>
<path d="M145.324 403.994L200.245 435.961L255.551 403.994L200.553 372.105L145.324 403.994Z" fill="#E6E6E6"/>
<path d="M299.323 490.73C331.57 490.639 357.667 475.425 357.615 456.749C357.562 438.074 331.378 423.008 299.131 423.099C266.885 423.191 240.787 438.405 240.84 457.08C240.893 475.756 267.077 490.821 299.323 490.73Z" fill="#E6E6E6"/>
<path d="M209.488 429.491C209.488 429.491 213.186 442.585 214.341 444.588C215.342 448.131 201.862 456.373 200.091 454.063C197.241 451.367 194.083 430.492 194.083 430.492C195.854 427.026 207.871 425.639 209.488 429.491Z" fill="#E6E6E6"/>
<path d="M214.726 444.665C216.575 444.126 238.605 447.053 242.995 447.592C249.158 448.363 251.7 448.209 253.009 455.064C253.625 458.453 251.16 462.844 246.616 462.921C240.685 462.998 205.252 459.069 200.938 455.372C197.703 452.599 210.721 445.821 214.726 444.665Z" fill="#E6E6E6"/>
<path d="M242.687 409.155C242.687 409.155 266.797 410.927 268.954 411.851C272.574 412.545 275.193 399.142 272.728 397.678C269.724 395.136 240.607 396.985 240.607 396.985C237.295 399.065 238.682 408 242.687 409.155Z" fill="#E6E6E6"/>
<path d="M269.493 410.002C270.494 411.697 290.599 429.028 294.219 431.57C299.303 435.114 305.773 435.576 311.242 431.339C313.938 429.259 315.094 424.33 311.704 421.249C307.314 417.243 278.351 397.37 272.651 397.293C268.492 397.216 267.259 406.459 269.493 410.002Z" fill="#E6E6E6"/>
<path d="M375.098 -44.8479C375.407 -45.233 375.946 -45.156 376.177 -44.7708C393.585 -18.2732 402.828 17.7759 402.906 59.6021C402.983 90.1052 398.361 122.611 389.118 156.272C389.04 156.503 388.809 156.734 388.578 156.734H388.501C388.039 156.811 387.654 156.349 387.731 155.887C396.82 122.688 401.365 90.5674 401.211 60.4494C401.057 18.7773 391.813 -17.1948 374.405 -43.5384C374.251 -43.7695 374.251 -44.0776 374.482 -44.3087L375.098 -44.8479Z" fill="#A6A6A6"/>
<path d="M184.223 -65.0291C210.027 -79.8955 235.216 -89.37 259.248 -93.1444C282.126 -96.7647 303.385 -95.0701 322.411 -88.2146C322.796 -88.0605 322.951 -87.6754 322.796 -87.2902L322.411 -86.4429C322.257 -86.1348 321.872 -85.9808 321.564 -86.1348C282.896 -100.154 234.214 -92.066 184.3 -63.2575C141.164 -38.3774 99.5693 0.213593 63.9823 48.2791C63.7513 48.5872 63.2121 48.6642 62.981 48.3561C62.7499 48.125 62.7499 47.7399 62.9039 47.5088C98.722 -1.01885 140.702 -39.918 184.223 -65.0291Z" fill="#A6A6A6"/>
<path d="M46.0348 409.772C46.0348 409.54 45.9578 409.386 45.7267 409.232C42.4915 406.998 39.3334 404.457 36.3293 401.761C16.5331 383.736 3.6694 356.314 -0.952276 322.345C-1.0293 321.883 -1.5685 321.574 -2.03067 321.883L-2.41581 322.191C-2.64689 322.345 -2.72392 322.576 -2.6469 322.807C1.89776 357.315 14.9925 385.277 35.0198 403.609C38.1779 406.459 41.4902 409.078 44.8794 411.466C45.3416 411.774 45.9578 411.466 45.9578 410.927V409.772H46.0348Z" fill="#737373"/>
<path d="M368.32 122.611C368.089 122.688 367.935 122.919 367.858 123.15C358.845 178.611 334.428 237.691 299.149 289.454C266.181 337.75 226.511 376.187 185.378 399.835C177.83 404.226 170.204 408.077 162.578 411.389C162.347 411.466 162.193 411.697 162.193 411.928L162.116 412.314C162.039 412.853 162.578 413.238 163.04 413.007C170.435 409.695 177.83 405.92 185.224 401.684C201.554 392.286 217.653 380.501 233.521 366.482C257.708 345.145 280.046 319.495 299.996 290.224C318.175 263.572 333.426 235.226 345.366 206.033C356.766 178.148 364.777 150.341 369.244 123.15C369.321 122.688 368.859 122.226 368.397 122.38L368.32 122.611Z" fill="#737373"/>
<path d="M259.479 -57.3263C259.556 -57.5574 259.788 -57.7885 260.096 -57.7885C288.904 -59.8682 314.4 -51.6262 333.811 -33.9098C347.831 -21.1231 358.383 -3.86886 365.085 17.3138C365.162 17.5449 365.085 17.853 364.931 18.0071L364.469 18.4693C364.083 18.7774 363.544 18.6233 363.39 18.1612C356.766 -2.55938 346.367 -19.4285 332.579 -32.0611C313.476 -49.4695 288.365 -57.6344 260.019 -55.7857C259.556 -55.7857 259.171 -56.1709 259.325 -56.6331L259.479 -57.3263Z" fill="#737373"/>
<path d="M183.684 -32.1381C185.533 -33.2165 187.381 -34.2179 189.23 -35.2192C189.692 -35.4503 190.231 -35.1422 190.231 -34.603V-34.2949C190.231 -34.0638 190.077 -33.8327 189.846 -33.7557C187.843 -32.6773 185.841 -31.5219 183.838 -30.4435C142.705 -6.71889 102.419 32.2573 69.8365 80.0917C40.2577 123.381 18.4588 171.293 6.75057 218.742C6.67354 218.973 6.51948 219.204 6.21137 219.204H6.13435C5.67218 219.281 5.21001 218.896 5.36407 218.357C17.2264 170.754 39.1023 122.611 68.8351 79.1673C86.4745 53.2859 106.117 30.1775 127.222 10.3043C145.478 -6.71889 164.427 -21.0461 183.684 -32.1381Z" fill="#737373"/>
<path d="M260.635 364.171C261.02 363.94 261.559 363.632 261.944 363.324C262.406 363.016 263.023 362.553 263.485 362.245C264.255 361.629 265.256 360.782 265.95 360.166C266.335 359.78 266.874 359.241 267.259 358.856C268.106 358.009 270.263 355.544 272.343 352.001C274.5 348.303 275.501 345.145 275.732 344.221C275.886 343.759 276.04 343.065 276.194 342.526C276.426 341.602 276.657 340.292 276.811 339.368C276.888 339.137 277.042 337.75 277.042 335.748C277.042 336.903 276.271 338.058 274.654 338.983C274.654 346.917 269.108 356.545 262.252 360.474C262.252 362.399 261.636 363.632 260.635 364.171Z" fill="#FFCD35"/>
<path d="M140.856 433.419L152.873 426.487L164.889 419.554L176.905 412.622L188.922 405.689L200.938 398.757L212.954 391.824L224.971 384.892L236.987 377.959L249.004 371.026L261.02 364.094C262.021 363.555 262.637 362.245 262.56 360.474L142.705 429.645C142.397 431.57 141.781 432.803 140.856 433.419Z" fill="#FFCC33"/>
<path d="M118.364 422.173L119.597 422.866C122.292 424.407 126.914 424.33 129.918 422.635C129.918 430.569 135.541 433.727 142.397 429.722C142.397 431.493 141.781 432.803 140.856 433.342C140.317 433.65 139.547 434.035 139.008 434.343C138.391 434.652 137.621 434.96 137.005 435.114C136.235 435.345 135.233 435.653 134.54 435.807C133.924 435.961 133.076 436.038 132.46 436.038C131.536 436.115 130.689 436.038 130.149 435.961C129.456 435.884 128.609 435.73 127.993 435.576C127.607 435.499 127.145 435.345 126.837 435.191C126.221 434.96 125.451 434.575 124.911 434.266L123.679 433.573C122.138 432.649 121.137 431.647 121.137 431.57C120.675 431.108 120.136 430.415 119.674 429.876C119.288 429.414 118.903 428.72 118.595 428.181C118.287 427.565 117.902 426.641 117.671 426.024C117.44 425.485 117.286 424.715 117.132 424.099C116.978 423.56 116.901 422.866 116.823 422.327C116.746 421.48 116.669 420.324 116.669 419.4C116.515 420.478 117.132 421.403 118.364 422.173Z" fill="#FFCD35"/>
<path d="M277.042 335.825L276.965 306.092L276.888 276.359L276.811 246.626L276.734 216.893L276.657 187.161L276.58 157.428L276.503 127.695L276.426 97.9621L276.349 68.2293L276.272 38.4965C276.272 39.6519 275.501 40.8073 273.884 41.7316L274.731 338.829C276.272 338.135 277.042 336.98 277.042 335.825Z" fill="#FFCC33"/>
<path d="M253.702 23.8612C254.318 23.5531 255.089 23.2449 255.705 23.0909C256.475 22.8598 257.477 22.5517 258.17 22.3976C258.786 22.2436 259.633 22.1666 260.25 22.1666C261.251 22.0895 262.098 22.1665 262.56 22.2436C263.254 22.3206 264.101 22.4747 264.717 22.6287C265.102 22.7057 265.565 22.8598 265.873 23.0139C266.181 23.1679 266.566 23.322 266.951 23.476C267.259 23.6301 267.49 23.7071 267.798 23.8612L269.031 24.5544C270.571 25.4787 271.573 26.4801 271.573 26.5571C272.035 27.0193 272.574 27.7126 273.036 28.2518C273.421 28.7139 273.807 29.4072 274.115 29.9464C274.423 30.5626 274.808 31.4869 275.039 32.1032C275.27 32.6424 275.424 33.4126 275.578 34.0289C275.732 34.5681 275.809 35.2613 275.886 35.8005C275.963 36.6478 276.04 37.8032 276.04 38.7276C276.04 39.883 275.27 41.0384 273.653 41.9627C273.653 34.0289 268.029 30.8707 261.174 34.8762C261.174 31.4869 258.94 27.4045 256.244 25.8639L255.012 25.1706C253.702 24.4004 252.547 24.4004 251.7 24.8625C252.393 24.4774 253.163 24.0922 253.702 23.8612Z" fill="#FFCD35"/>
<path d="M117.517 125.076L118.749 125.769C121.445 127.31 126.067 127.233 129.071 125.538L129.918 422.635C126.914 424.33 122.37 424.484 119.597 422.866L118.364 422.173C117.132 421.403 116.438 420.478 116.438 419.477L116.361 389.744L116.284 360.011L116.207 330.279L116.13 300.546L116.053 270.813L115.976 241.08L115.899 211.347L115.822 181.615L115.745 151.882L115.668 122.149C115.668 123.381 116.284 124.383 117.517 125.076Z" fill="#FFCC33"/>
<path d="M251.854 24.7855C252.701 24.2463 253.856 24.3234 255.166 25.0936L256.398 25.7869C259.094 27.3274 261.328 31.4099 261.328 34.7992L141.472 103.97C141.472 100.581 139.239 96.4986 136.543 94.958L135.31 94.2648C134.001 93.4945 132.845 93.4945 131.998 93.9567C171.976 70.9253 211.953 47.8939 251.854 24.7855Z" fill="#FFCC33"/>
<path d="M141.473 104.047C134.617 107.976 128.994 117.681 129.071 125.538C129.379 224.596 129.61 323.577 129.918 422.635C129.918 430.569 135.541 433.727 142.397 429.722C182.374 406.691 222.275 383.582 262.252 360.551C269.108 356.622 274.731 346.917 274.654 339.06C274.346 240.002 274.115 141.021 273.807 41.9629C273.807 34.029 268.184 30.8708 261.328 34.8763C221.351 57.9077 181.45 81.0161 141.473 104.047Z" fill="white"/>
<path d="M115.899 118.76C116.053 117.835 116.284 116.526 116.515 115.602C116.592 115.062 116.824 114.446 116.978 113.907C117.209 112.983 118.21 109.824 120.367 106.127C122.447 102.584 124.603 100.119 125.451 99.2716C125.836 98.8864 126.298 98.3473 126.76 97.9621C127.453 97.2689 128.455 96.4216 129.225 95.8824C129.687 95.4972 130.303 95.1121 130.766 94.804C131.151 94.5729 131.69 94.1877 132.075 93.9567C132.922 93.4175 134.078 93.4945 135.387 94.2648L136.62 94.958C139.316 96.4986 141.549 100.581 141.549 103.97C134.694 107.899 129.071 117.604 129.148 125.461C126.144 127.156 121.599 127.31 118.826 125.692L117.594 124.999C116.361 124.229 115.668 123.304 115.668 122.303C115.668 120.377 115.822 119.068 115.899 118.76Z" fill="#FFCD35"/>
<path d="M189.538 87.4093C188.768 87.8714 188.151 87.4863 188.151 86.639C188.151 85.7147 188.768 84.6363 189.538 84.2511L214.264 70.0009C215.034 69.5388 215.65 69.9239 215.65 70.7712C215.65 71.6956 215.034 72.7739 214.264 73.1591L189.538 87.4093Z" fill="#FFB347"/>
<path d="M144.091 111.673C139.47 114.369 135.695 120.916 135.695 126.231L136.543 416.011C136.543 421.326 140.394 423.56 145.016 420.864L260.558 354.157C265.179 351.461 268.954 344.914 268.954 339.599L268.107 49.8196C268.107 44.5047 264.255 42.3479 259.633 44.9668L231.98 60.9116C231.98 65.2252 228.976 70.3861 225.356 72.5429L178.446 99.5797C174.749 101.736 171.744 99.9648 171.744 95.7283L144.091 111.673Z" fill="#FFCC33" fill-opacity="0.78"/>
<path d="M287.209 238.23C294.373 250.709 290.368 266.422 290.368 266.422C290.368 266.422 274.731 262.032 267.567 249.553C260.404 237.075 264.409 221.361 264.409 221.361C264.409 221.361 280.046 225.829 287.209 238.23Z" fill="#CCCCCC"/>
<path d="M262.406 231.683C259.402 230.296 257.323 229.757 257.323 229.757C257.323 229.757 254.01 242.775 258.786 254.483L262.406 231.683Z" fill="#E9C184"/>
<path d="M200.861 151.034L200.938 158.583L200.014 159.122V152.498L198.858 153.884L198.704 153.191L200.091 151.497L200.861 151.034Z" fill="#707070"/>
<path d="M205.329 148.416C206.715 147.568 207.331 148.338 207.331 149.417C207.331 150.803 206.484 152.421 205.098 154.809L204.558 155.656L207.485 153.962V154.809L203.326 157.197V156.58L204.019 155.425C205.714 152.652 206.407 151.189 206.484 150.033C206.484 149.263 206.176 148.724 205.175 149.34C204.558 149.648 204.096 150.341 203.788 150.803L203.48 150.264C203.865 149.494 204.558 148.801 205.329 148.416Z" fill="#707070"/>
<path d="M212.338 144.41V145.257L209.873 146.721L209.642 148.801C209.796 148.724 209.95 148.57 210.181 148.415C210.721 148.107 211.183 147.953 211.568 148.03C212.107 148.107 212.492 148.493 212.492 149.417C212.492 150.88 211.491 152.575 210.027 153.422C209.334 153.807 208.718 153.961 208.41 153.884L208.641 152.96C208.949 152.96 209.488 152.883 210.027 152.575C210.875 152.113 211.568 151.034 211.568 150.033C211.568 149.032 210.952 148.724 209.642 149.417C209.257 149.648 208.949 149.879 208.718 150.033L209.103 146.182L212.338 144.41Z" fill="#707070"/>
<path d="M195.392 153.268V154.424C196.008 154.116 196.393 154.039 196.702 154.039L196.47 154.963C196.239 154.963 195.854 154.963 195.161 155.271C194.391 155.733 194.083 156.426 194.083 156.889C194.083 157.505 194.468 157.582 195.315 157.505C196.393 157.428 196.856 157.659 196.856 158.737C196.856 159.662 196.316 160.817 195.238 161.664V162.897L194.622 163.282V162.127C194.006 162.435 193.466 162.589 193.081 162.512L193.312 161.587C193.697 161.664 194.237 161.587 194.776 161.279C195.469 160.894 196.008 160.124 196.008 159.431C196.008 158.814 195.623 158.66 194.853 158.737C193.852 158.891 193.158 158.737 193.158 157.659C193.158 156.658 193.775 155.656 194.699 154.886V153.73L195.392 153.268Z" fill="#707070"/>
<path d="M186.688 152.729L186.611 112.597L217.884 94.5729L217.961 134.704L186.688 152.729ZM187.843 113.291L187.92 150.649L216.806 134.011L216.729 96.6526L187.843 113.291Z" fill="white"/>
<path d="M193.235 115.833L211.337 105.357V126.077L193.235 136.553V115.833Z" fill="white"/>
<path d="M207.331 135.629V137.4L197.318 143.178V141.406L207.331 135.629Z" fill="white"/>
<path d="M210.027 130.622V132.394L194.622 141.329V139.557L210.027 130.622Z" fill="white"/>
<path d="M195.392 359.395V360.551C196.008 360.243 196.393 360.166 196.702 360.166L196.471 361.09C196.239 361.09 195.854 361.09 195.161 361.398C194.391 361.86 194.083 362.554 194.083 363.016C194.083 363.632 194.468 363.709 195.315 363.632C196.393 363.555 196.856 363.786 196.856 364.864C196.856 365.789 196.316 366.944 195.238 367.791V369.024L194.622 369.409V368.254C194.006 368.562 193.466 368.716 193.081 368.639L193.312 367.714C193.698 367.791 194.237 367.714 194.776 367.406C195.469 367.021 196.008 366.251 196.008 365.558C196.008 364.941 195.623 364.787 194.853 364.864C193.852 365.018 193.158 364.864 193.158 363.786C193.158 362.785 193.775 361.783 194.699 361.013V359.858L195.392 359.395Z" fill="#707070"/>
<path d="M200.861 357.239L200.938 364.787L200.091 365.249L200.014 358.625V358.702L198.858 360.012L198.704 359.395L200.168 357.624L200.861 357.239Z" fill="#707070"/>
<path d="M205.252 354.619C206.561 353.849 207.1 354.388 207.1 355.313C207.1 356.083 206.715 357.007 205.868 357.778C206.638 357.47 207.331 357.778 207.331 358.856C207.331 360.088 206.484 361.629 204.944 362.476C204.173 362.938 203.557 363.016 203.249 362.939L203.48 362.014C203.711 362.091 204.327 362.014 204.944 361.629C206.099 360.936 206.407 359.934 206.407 359.318C206.407 358.24 205.56 358.317 204.712 358.779L204.25 359.087V358.317L204.712 358.009C205.329 357.624 206.176 356.776 206.176 355.929C206.176 355.313 205.868 355.005 205.021 355.467C204.481 355.775 204.019 356.314 203.711 356.699L203.48 356.083C203.865 355.698 204.558 355.005 205.252 354.619Z" fill="#707070"/>
<path d="M212.415 350.614V351.461L209.873 352.925L209.642 355.005C209.796 354.928 209.95 354.774 210.182 354.62C210.721 354.311 211.183 354.157 211.568 354.234C212.107 354.234 212.492 354.697 212.492 355.621C212.492 357.084 211.491 358.779 210.027 359.626C209.334 360.012 208.718 360.166 208.41 360.089L208.641 359.164C208.949 359.164 209.488 359.087 210.027 358.779C210.875 358.317 211.568 357.239 211.568 356.237C211.568 355.236 210.952 354.928 209.642 355.698C209.257 355.929 208.949 356.16 208.718 356.314L209.103 352.463L212.415 350.614Z" fill="#707070"/>
<path d="M186.688 357.47L186.611 317.338L217.884 299.313L217.961 339.445L186.688 357.47ZM187.843 318.108L187.92 355.467L216.806 338.829L216.729 301.47L187.843 318.108Z" fill="white"/>
<path d="M193.235 320.573L211.337 310.174V330.895L193.235 341.294V320.573Z" fill="white"/>
<path d="M210.027 335.363V337.134L194.622 346.07V344.298L210.027 335.363Z" fill="white"/>
<path d="M207.331 340.369V342.141L197.318 347.918V346.146L207.331 340.369Z" fill="white"/>
<path d="M165.351 304.859C164.889 304.859 164.504 304.628 164.273 304.243C163.888 303.627 164.119 302.857 164.735 302.471L242.456 257.564L242.225 159.122C242.225 158.429 242.764 157.813 243.535 157.813C244.228 157.813 244.844 158.352 244.844 159.122L245.075 259.028L166.044 304.628C165.813 304.782 165.582 304.859 165.351 304.859Z" fill="white"/>
<path d="M145.324 206.572L145.478 258.874L200.399 290.763L200.245 238.538L145.324 206.572Z" fill="#BD9B6C"/>
<path d="M200.245 238.538L145.324 206.572V207.419L200.245 239.308V238.538Z" fill="#E6E6E6"/>
<path d="M200.245 238.538L200.399 290.763L255.705 258.874L255.551 206.572L200.245 238.538Z" fill="#E9C184"/>
<path d="M160.883 257.872C160.806 257.872 160.806 257.795 160.729 257.795C160.652 257.795 160.652 257.718 160.575 257.718V260.106V260.26C160.575 260.337 160.652 260.491 160.729 260.568C160.806 260.645 160.883 260.568 160.883 260.491V260.337V257.872Z" fill="#BABABA"/>
<path d="M157.802 252.557C157.802 254.483 159.035 256.717 160.498 257.641C160.575 257.641 160.575 257.718 160.652 257.718C160.729 257.718 160.729 257.795 160.806 257.795C161.654 258.18 162.347 258.18 162.886 257.718L161.423 255.484L162.501 256.101L161.577 254.714L157.802 252.557Z" fill="#BABABA"/>
<path d="M162.116 255.022L163.348 256.948L162.27 256.332L163.04 257.564C163.348 257.179 163.579 256.563 163.579 255.869L162.116 255.022Z" fill="#BABABA"/>
<path d="M172.053 260.645C170.281 259.644 168.817 259.644 168.817 260.722C168.817 260.414 169.203 260.414 169.665 260.645C170.127 260.876 170.512 261.338 170.512 261.647C170.512 261.338 170.897 261.338 171.359 261.57C171.667 261.724 171.976 262.032 172.13 262.263L172.053 260.645Z" fill="#BABABA"/>
<path d="M172.207 260.106C172.13 260.106 172.13 260.106 172.13 260.183V260.645V262.34V266.885C172.13 267.347 172.438 267.963 172.9 268.194C173.285 268.425 173.67 268.271 173.67 267.732C173.67 267.655 173.593 267.578 173.593 267.578C173.516 267.578 173.516 267.578 173.516 267.655C173.516 268.04 173.285 268.194 172.977 267.963C172.669 267.809 172.438 267.347 172.438 266.962V262.417V260.722V260.26C172.284 260.183 172.207 260.106 172.207 260.106Z" fill="#BABABA"/>
<path d="M175.519 264.574C175.519 263.495 174.055 261.801 172.284 260.722V262.417C172.438 262.34 172.669 262.34 172.977 262.571C173.439 262.802 173.824 263.264 173.824 263.572C173.824 263.264 174.209 263.264 174.672 263.495C175.134 263.803 175.519 264.266 175.519 264.574Z" fill="#BABABA"/>
<path d="M176.982 261.261L167.354 255.715V266.807L176.982 272.353V261.261ZM167.585 266.576V256.023L176.751 261.338V271.891L167.585 266.576Z" fill="#BABABA"/>
<path d="M159.42 259.413C159.343 259.336 159.266 259.413 159.266 259.49C159.266 259.567 159.343 259.721 159.42 259.798L161.885 261.261C161.962 261.338 162.039 261.261 162.039 261.184C162.039 261.107 161.962 260.953 161.885 260.876L160.806 260.26V260.414C160.806 260.491 160.729 260.568 160.652 260.491C160.575 260.414 160.498 260.337 160.498 260.183V260.029L159.42 259.413Z" fill="#BABABA"/>
<path d="M165.505 254.637L155.877 249.091V260.183L165.505 265.729V254.637ZM156.108 259.952V249.399L165.274 254.714V265.267L156.108 259.952Z" fill="#BABABA"/>
<path d="M182.143 265.498L180.834 270.197L181.604 270.582V273.663L182.605 274.202V271.198L183.376 271.66L182.143 265.498Z" fill="#BABABA"/>
<path d="M188.46 267.809L178.831 262.263V273.355L188.46 278.901V267.809ZM178.985 273.201V262.648L188.151 267.963V278.516L178.985 273.201Z" fill="#BABABA"/>
<path d="M185.147 267.27L183.838 271.968L184.608 272.353V275.357L185.61 275.974V272.97L186.38 273.355L185.147 267.27Z" fill="#BABABA"/>
<path d="M145.324 206.572L200.245 238.538L255.551 206.572L200.553 174.682L145.324 206.572Z" fill="#FFDCA6"/>
<path d="M159.882 215.045L215.188 183.155L200.553 174.682L145.324 206.572L159.882 215.045Z" fill="#E6E6E6"/>
<path d="M176.058 236.459L168.355 231.991V219.975L176.058 224.442V236.459Z" fill="#DECCAF"/>
<path d="M223.661 188.085L168.355 219.974L176.058 224.442L231.287 192.552L223.661 188.085Z" fill="#DECCAF"/>
<path d="M171.976 222.054L172.515 222.362L227.744 190.473L227.205 190.165L171.976 222.054Z" fill="#D9D9D9"/>
<path d="M159.882 215.045L145.324 206.572L145.478 258.874L159.882 267.27V215.045Z" fill="#E6E6E6"/>
<path d="M165.351 304.859C164.658 304.859 164.042 304.32 164.042 303.55L163.811 203.644L242.841 158.044C243.458 157.659 244.228 157.89 244.613 158.506C244.998 159.122 244.767 159.893 244.151 160.278L166.43 205.185L166.661 303.55C166.661 304.243 166.121 304.859 165.351 304.859Z" fill="white"/>
<path d="M238.836 234.148C241.532 232.607 243.226 234.148 243.226 238.076C243.226 241.465 242.225 244.392 240.993 246.549C239.991 248.321 238.528 249.784 237.141 250.863C236.602 251.248 236.14 251.556 235.832 251.787C235.755 251.864 235.601 251.941 235.524 251.941V250.246C235.601 250.169 235.755 250.169 235.832 250.092C236.14 249.938 236.525 249.63 236.91 249.399C237.989 248.629 238.913 247.55 239.683 246.318C240.531 244.932 241.224 243.16 241.455 241.234H241.378C240.608 242.698 239.606 243.93 238.22 244.7C235.832 246.087 234.291 244.932 234.291 242.313C234.368 239.309 236.14 235.688 238.836 234.148ZM241.301 239.694C241.378 239.463 241.455 239.154 241.455 238.846C241.455 236.227 240.608 234.687 238.759 235.842C237.218 236.69 236.14 238.923 236.14 241.08C236.14 243.006 237.141 243.776 238.682 242.852C239.914 242.081 240.839 240.849 241.301 239.694Z" fill="white"/>
<path d="M230.055 246.626C231.749 246.395 232.751 247.165 232.751 249.014C232.751 251.633 230.748 254.637 228.206 256.101C225.433 257.718 223.738 256.794 223.738 254.56C223.738 252.634 224.74 250.709 226.357 248.937V248.86C224.894 248.937 224.278 247.936 224.278 246.626C224.278 244.238 226.049 241.542 228.36 240.156C230.902 238.692 232.212 239.771 232.212 241.696C232.289 243.006 231.672 244.7 230.055 246.626ZM228.283 254.56C229.901 253.636 230.902 251.864 230.902 250.323C230.902 248.475 229.747 248.244 227.975 248.706C226.434 250.092 225.587 251.787 225.587 253.251C225.587 254.791 226.588 255.561 228.283 254.56ZM225.972 245.471C225.972 247.011 226.974 247.242 228.514 246.857C229.67 245.779 230.517 244.315 230.517 242.929C230.517 241.696 229.901 240.772 228.283 241.773C226.82 242.621 225.972 244.161 225.972 245.471Z" fill="white"/>
<path d="M218.346 244.238V246.549C219.579 245.856 220.426 245.779 221.042 245.856L220.503 247.704C220.041 247.704 219.271 247.627 217.961 248.398C216.421 249.322 215.805 250.709 215.805 251.633C215.805 252.865 216.575 253.019 218.346 252.865C220.426 252.634 221.505 253.25 221.505 255.33C221.505 257.179 220.426 259.567 218.269 261.184V263.649L216.96 264.419V262.032C215.805 262.725 214.572 262.956 213.802 262.802L214.264 260.953C215.034 261.107 216.036 260.953 217.191 260.26C218.655 259.413 219.656 257.872 219.656 256.563C219.656 255.253 218.886 254.945 217.345 255.099C215.265 255.33 213.956 255.022 213.956 253.019C213.956 251.094 215.188 248.86 217.037 247.473V245.085L218.346 244.238Z" fill="white"/>
<path d="M251.931 207.496C251.006 205.57 249.312 204.569 248.156 205.108C247.001 205.647 246.847 207.65 247.771 209.576C248.002 209.961 248.233 210.346 248.464 210.654L252.316 208.42C252.162 208.189 252.085 207.804 251.931 207.496Z" fill="#E6E6E6"/>
<path d="M245.075 212.657L250.544 252.326L255.628 251.633L255.551 206.957L252.778 208.189L245.075 212.657Z" fill="#E6E6E6"/>
<path d="M257.862 220.976C256.937 218.973 248.926 221.361 249.928 223.441C250.852 225.366 258.786 239.54 258.786 239.54L261.405 261.57C262.714 265.575 270.571 261.416 273.729 257.025L268.183 236.69C268.26 236.69 260.095 225.829 257.862 220.976Z" fill="#FCD2B7"/>
<path d="M269.031 233.608C267.028 230.758 257.091 234.225 256.783 237.922C256.552 240.618 263.793 251.941 263.793 251.941L275.039 293.382C277.196 299.853 287.748 293.151 292.832 286.142L278.197 247.396C278.043 247.474 273.729 240.387 269.031 233.608Z" fill="#FBBC00"/>
<path d="M260.789 244.624C262.869 241.542 267.182 238.923 271.033 238.307C272.574 238.076 273.421 236.305 272.651 234.918L269.647 229.526C269.262 228.833 268.492 228.294 267.644 228.371C261.867 228.448 255.012 233.146 253.24 237.46C252.932 238.153 253.009 239 253.471 239.694L257.014 244.701C257.939 245.933 259.864 245.933 260.789 244.624Z" fill="#FFCD35"/>
<path d="M244.998 208.497C243.457 207.881 242.225 208.42 241.84 209.191C241.686 209.422 241.84 209.73 242.071 209.884C242.764 210.269 244.228 211.424 245.306 212.503L248.387 210.731C247.617 210.5 246.076 208.883 244.998 208.497Z" fill="#E6E6E6"/>
<path d="M247.155 208.959C247.848 210.038 248.387 212.349 248.772 212.58L247.386 218.588C246.153 217.51 245.306 214.891 245.383 214.197C245.46 212.58 244.459 209.499 243.92 208.497C243.766 208.266 243.843 207.881 244.151 207.804C244.921 207.419 246.23 207.65 247.155 208.959Z" fill="#FCD2B7"/>
<path d="M254.395 203.799C257.245 204.723 259.094 206.418 259.787 208.42C260.635 210.808 258.324 216.97 257.014 217.895C256.09 218.511 258.478 221.438 258.478 222.285C258.401 225.598 251.16 225.289 250.082 223.518C249.466 221.977 248.464 219.589 247.386 218.665L248.541 212.811C248.695 212.811 249.081 211.964 248.849 209.499C248.541 206.726 246.924 206.957 247.155 206.495C247.694 203.645 252.855 203.259 254.395 203.799Z" fill="#FCD2B7"/>
<path d="M270.263 280.75C270.571 274.587 272.035 274.279 271.188 266.422C269.647 252.711 267.182 250.94 256.629 252.095C247.771 253.097 241.532 255.099 239.76 265.652C239.529 266.885 240.53 268.733 240.607 270.351C240.607 271.198 239.375 274.125 239.452 274.972C239.606 281.751 242.533 289.146 245.537 290.224C247.694 290.994 251.776 290.532 253.009 291.379C254.01 292.073 270.186 282.213 270.263 280.75Z" fill="#F0C7AD"/>
<path d="M253.009 291.38C253.856 291.688 254.55 292.227 255.551 293.767C256.321 294.923 259.325 299.236 259.787 299.776L269.57 288.298C269.878 286.989 268.415 282.059 268.029 280.673C266.489 274.664 266.335 269.195 263.1 261.955C261.944 268.348 258.401 271.66 259.942 277.283C261.713 283.523 255.243 290.301 253.009 291.38Z" fill="#D9B49C"/>
<path d="M267.182 466.156C268.492 467.465 279.122 472.087 282.588 467.08C283.127 466.31 283.127 463.768 283.127 463.768L267.028 463.306L267.182 466.156Z" fill="white"/>
<path d="M281.74 466.002C278.351 469.545 274.962 468.467 267.413 466.464C258.786 464.153 253.317 463.46 248.387 458.453C245.229 455.218 244.767 447.13 248.002 447.438C254.935 447.977 255.166 450.982 265.719 454.294C272.574 456.45 277.119 454.679 280.431 456.759C283.127 458.376 284.513 462.998 281.74 466.002Z" fill="white"/>
<path d="M281.047 466.079C276.349 468.159 272.497 465.694 265.411 463.46C256.86 460.687 255.243 461.149 249.774 456.759C245.999 453.755 245.075 448.054 247.694 447.207C251.391 445.975 256.167 446.976 266.643 450.288C273.499 452.445 279.199 453.677 281.74 456.605C283.897 459.223 284.359 464.615 281.047 466.079Z" fill="#FFB347"/>
<path d="M340.667 467.542C336.276 467.465 334.89 467.928 331.192 464.461C330.422 463.768 319.561 452.445 317.481 447.361C316.557 445.204 316.172 443.125 316.326 441.199C316.48 438.965 317.867 438.195 320.254 438.734C325.955 440.043 326.494 441.507 334.813 449.287C340.282 454.371 344.133 457.144 345.212 461.072C346.059 464.384 344.441 467.619 340.667 467.542Z" fill="white"/>
<path d="M330.499 462.305C330.499 462.844 330.499 462.844 330.499 463.537C332.579 468.544 344.056 470.315 346.059 463.768C346.444 462.536 346.29 460.302 346.29 460.302L330.345 459.3L330.499 462.305Z" fill="white"/>
<path d="M340.513 465.309C335.198 465.617 333.426 463.383 327.803 458.145C322.026 452.83 320.409 451.521 317.79 446.437C315.479 441.969 315.556 436.5 320.1 436.577C324.876 436.731 326.34 439.35 334.659 447.13C340.128 452.214 344.981 455.141 346.059 459.069C346.983 462.304 344.287 465 340.513 465.309Z" fill="#FFB347"/>
<path d="M320.64 444.819C320.408 444.819 320.254 444.742 320.1 444.588C319.792 444.28 319.792 443.818 320.1 443.51C322.565 441.045 324.645 439.889 326.34 439.889H326.417C326.802 439.889 327.187 440.274 327.187 440.66C327.187 441.045 326.879 441.43 326.417 441.43H326.34C325.03 441.43 323.336 442.508 321.179 444.588C321.025 444.742 320.871 444.819 320.64 444.819Z" fill="white"/>
<path d="M322.18 446.745C322.026 446.745 321.872 446.668 321.718 446.591C321.41 446.36 321.333 445.898 321.564 445.512C323.413 443.047 326.263 441.43 328.419 441.738C328.805 441.815 329.113 442.2 329.036 442.585C328.959 442.97 328.573 443.279 328.188 443.202C326.571 442.97 324.26 444.28 322.719 446.36C322.642 446.668 322.411 446.745 322.18 446.745Z" fill="white"/>
<path d="M323.875 449.287C323.721 449.287 323.567 449.21 323.413 449.133C323.104 448.902 323.027 448.44 323.259 448.055C325.338 445.359 327.418 444.126 329.498 444.357C329.883 444.434 330.191 444.819 330.191 445.204C330.114 445.59 329.729 445.898 329.344 445.898C327.418 445.667 325.646 447.438 324.491 448.979C324.337 449.21 324.106 449.287 323.875 449.287Z" fill="white"/>
<path d="M320.1 442.2C319.946 442.2 319.715 442.123 319.638 442.046C319.33 441.738 319.253 441.276 319.561 440.968C320.871 439.427 322.411 438.503 324.183 438.195C324.568 438.118 324.953 438.426 325.03 438.811C325.107 439.196 324.799 439.581 324.414 439.658C323.027 439.889 321.718 440.66 320.717 441.892C320.563 442.123 320.331 442.2 320.1 442.2Z" fill="white"/>
<path d="M308.623 340.215L285.361 357.392C285.361 357.392 329.344 458.761 330.191 459.84C336.353 468.082 346.444 466.464 346.367 460.071C346.29 456.913 308.623 340.215 308.623 340.215Z" fill="#8F6F4A"/>
<path d="M252.47 454.679C252.393 454.679 252.316 454.679 252.239 454.602C251.854 454.448 251.623 454.062 251.777 453.677C252.932 450.365 254.241 448.362 255.782 447.592C256.167 447.438 256.629 447.592 256.783 447.977C256.937 448.362 256.783 448.825 256.398 448.979C255.243 449.518 254.164 451.289 253.163 454.217C253.086 454.525 252.778 454.679 252.47 454.679Z" fill="white"/>
<path d="M254.627 455.757C254.55 455.757 254.55 455.757 254.473 455.757C254.087 455.68 253.779 455.295 253.856 454.91C254.396 451.829 256.244 449.21 258.247 448.44C258.632 448.286 259.094 448.517 259.248 448.902C259.402 449.287 259.171 449.749 258.786 449.903C257.246 450.442 255.782 452.676 255.397 455.218C255.32 455.449 255.012 455.757 254.627 455.757Z" fill="white"/>
<path d="M257.323 457.221C257.246 457.221 257.246 457.221 257.169 457.221C256.783 457.144 256.475 456.758 256.552 456.373C257.169 452.984 258.478 450.981 260.404 450.211C260.789 450.057 261.251 450.288 261.405 450.673C261.559 451.058 261.328 451.521 260.943 451.675C259.171 452.291 258.401 454.756 258.016 456.604C258.016 456.99 257.708 457.221 257.323 457.221Z" fill="white"/>
<path d="M250.775 452.676C250.698 452.676 250.621 452.676 250.621 452.676C250.236 452.599 249.928 452.137 250.082 451.752C250.544 449.826 251.546 448.286 252.932 447.207C253.24 446.976 253.779 447.053 254.01 447.361C254.241 447.669 254.164 448.209 253.856 448.44C252.701 449.287 251.931 450.519 251.546 452.137C251.391 452.445 251.083 452.676 250.775 452.676Z" fill="white"/>
<path d="M259.942 451.213C259.942 454.987 261.79 457.375 264.409 457.375C267.028 457.375 265.796 446.976 265.796 443.202C265.796 439.427 261.328 443.972 258.94 445.127C256.783 446.206 259.942 447.515 259.942 451.213Z" fill="#FFB347"/>
<path d="M263.87 457.067C266.72 467.003 281.124 466.695 283.358 460.687C283.82 459.455 276.657 416.55 276.657 416.55C285.13 405.535 291.677 400.682 300.92 390.669C304.695 386.586 312.629 385.123 317.713 376.033C320.794 370.41 319.33 359.395 317.25 355.159L286.362 365.866C286.362 365.866 258.247 400.682 256.937 412.236C256.244 417.782 263.716 456.451 263.87 457.067Z" fill="#A17D53"/>
<path d="M312.012 338.367L286.593 356.545L312.012 338.367Z" fill="#474747"/>
<path d="M288.442 283.214C300.843 289.454 306.852 316.568 311.704 334.438C315.325 347.918 318.329 351.538 317.173 357.238C316.095 362.399 306.312 371.566 295.066 372.259C286.901 372.798 284.359 369.717 283.743 367.56C282.973 361.475 281.509 354.157 278.582 347.456C274.346 338.058 252.085 315.258 257.091 307.709C258.478 305.63 260.635 303.55 262.637 300.469C265.642 295.924 266.566 293.536 268.569 290.455C272.574 284.37 280.662 279.286 288.442 283.214Z" fill="#FFCD35"/>
<path d="M272.189 281.828C267.644 283.292 261.559 293.69 259.556 298.081C257.939 301.624 254.55 311.946 256.86 315.874C257.708 311.792 265.411 298.158 268.107 296.001C273.344 291.842 275.501 287.143 276.194 284.986C276.349 284.447 276.271 283.908 275.732 283.831C274.962 283.754 273.036 281.52 272.189 281.828Z" fill="#FBBC00"/>
<path d="M254.396 276.821L251.623 275.974C250.159 271.737 247.771 265.344 244.459 266.114C244.151 264.42 239.991 261.261 239.683 263.649C239.606 264.111 238.143 263.11 236.987 263.649C236.602 261.184 242.764 253.79 252.239 250.786C261.405 247.859 271.727 251.556 274.115 266.653C274.808 271.121 271.804 275.204 270.957 280.75C270.88 281.212 270.802 281.674 270.802 282.213C270.802 282.213 269.262 284.062 267.567 284.447C265.488 284.986 261.559 282.983 260.943 280.673C260.327 278.362 259.094 274.125 255.397 274.741C254.627 274.895 254.396 275.82 254.396 276.821Z" fill="#5C3800"/>
<path d="M235.601 264.574C238.066 267.039 240.607 262.956 244.459 265.96C246.23 264.188 252.47 253.173 250.698 251.402C245.614 254.252 237.064 251.402 233.521 254.098C229.13 257.41 233.829 262.802 235.601 264.574Z" fill="#5C3800"/>
<path d="M200.707 286.45C201.939 286.681 204.019 286.295 204.404 286.604C204.481 286.681 202.864 287.836 200.553 288.529C197.78 289.3 196.856 289.454 196.47 289.839C194.083 291.379 197.934 296.694 198.473 297.233C200.553 299.159 204.944 298.851 207.1 298.312C209.488 297.773 211.568 295.231 212.492 293.921C213.109 293.074 214.264 292.612 215.034 292.227C218.038 290.917 217.73 285.14 216.19 284.37C212.569 281.597 207.023 281.905 204.558 282.983C203.095 283.6 200.476 283.985 199.398 283.831C199.089 283.831 198.858 283.985 198.781 284.293C198.704 285.14 199.089 286.141 200.707 286.45Z" fill="#FCD2B7"/>
<path d="M217.114 318.185C222.737 320.496 232.52 313.641 232.52 307.478L225.895 297.85C219.271 296.926 211.26 303.781 210.336 308.788L217.114 318.185Z" fill="#FFCC33"/>
<path d="M216.036 284.216C217.807 285.14 222.198 296.232 228.36 305.861C229.67 307.863 231.056 309.866 232.443 311.638L226.743 322.807C224.124 319.187 221.351 315.027 218.886 310.791C212.415 299.622 210.027 289.839 210.027 289.839C209.719 286.758 213.956 283.138 216.036 284.216Z" fill="#FCD2B7"/>
<path d="M230.132 305.553C230.132 305.553 233.521 311.33 235.216 313.024C237.218 316.105 226.743 327.968 224.432 326.273C220.888 324.501 215.728 311.099 215.728 311.099C216.421 307.17 227.513 302.317 230.132 305.553Z" fill="#FBBC00"/>
<path d="M217.114 318.185C217.191 312.639 226.974 305.938 232.52 307.478L225.895 297.85C219.271 296.926 211.26 303.781 210.336 308.788L217.114 318.185Z" fill="#FFCD35"/>
<path d="M235.601 312.947C237.218 311.869 255.474 305.09 259.865 304.32C266.027 303.165 272.035 305.475 275.27 311.638C276.888 314.719 275.809 319.649 271.496 321.035C265.796 322.807 230.825 329.585 225.587 327.351C221.659 325.503 232.134 315.258 235.601 312.947Z" fill="#FBBC00"/>
</svg>
