<svg width="414" height="441" viewBox="0 0 414 441" fill="none" xmlns="http://www.w3.org/2000/svg">
<path d="M448.097 410.579H408.533V410.938H448.097V410.579Z" fill="#EBEBEB"/>
<path d="M306.217 413.926H295.818V414.284H306.217V413.926Z" fill="#EBEBEB"/>
<path d="M407.338 399.582H384.389V399.941H407.338V399.582Z" fill="#EBEBEB"/>
<path d="M24.7286 401.495H-26.9075V401.853H24.7286V401.495Z" fill="#EBEBEB"/>
<path d="M42.8969 401.495H35.3666V401.853H42.8969V401.495Z" fill="#EBEBEB"/>
<path d="M179.517 406.634H67.5197V406.993H179.517V406.634Z" fill="#EBEBEB"/>
<path d="M193.622 338.025H-37.1869C-40.8923 338.025 -44 334.918 -44 331.212V6.8131C-44 3.10773 -40.8923 0 -37.1869 0H193.622C197.327 0 200.435 3.10773 200.435 6.8131V331.212C200.435 335.037 197.447 338.025 193.622 338.025ZM-37.1869 0.358584C-40.7727 0.358584 -43.7609 3.22726 -43.7609 6.93263V331.332C-43.7609 334.918 -40.8923 337.906 -37.1869 337.906H193.622C197.208 337.906 200.196 335.037 200.196 331.332V6.8131C200.196 3.22726 197.327 0.239056 193.622 0.239056H-37.1869V0.358584Z" fill="#EBEBEB"/>
<path d="M452.161 338.025H221.352C217.647 338.025 214.539 334.918 214.539 331.212V6.8131C214.539 3.10773 217.647 0 221.352 0H452.161C455.866 0 458.974 3.10773 458.974 6.8131V331.212C458.974 335.037 455.986 338.025 452.161 338.025ZM221.352 0.358584C217.766 0.358584 214.778 3.22726 214.778 6.93263V331.332C214.778 334.918 217.647 337.906 221.352 337.906H452.161C455.747 337.906 458.735 335.037 458.735 331.332V6.8131C458.735 3.22726 455.866 0.239056 452.161 0.239056H221.352V0.358584Z" fill="#EBEBEB"/>
<path d="M203.423 440.7C331.423 440.7 435.188 434.653 435.188 427.193C435.188 419.734 331.423 413.687 203.423 413.687C75.4229 413.687 -28.3418 419.734 -28.3418 427.193C-28.3418 434.653 75.4229 440.7 203.423 440.7Z" fill="#F5F5F5"/>
<path d="M320.082 340.535H204.977C192.068 340.535 182.267 330.017 183.223 317.108L202.467 41.9544C203.423 29.0453 214.659 18.5269 227.568 18.5269H342.673C355.582 18.5269 365.384 29.0453 364.427 41.9544L345.183 317.108C344.347 330.017 333.111 340.535 320.082 340.535Z" fill="#FFCC33"/>
<path d="M314.106 340.535H199.001C186.092 340.535 176.29 330.017 177.246 317.108L196.49 41.9544C197.447 29.0453 208.682 18.5269 221.591 18.5269H336.697C349.606 18.5269 359.407 29.0453 358.451 41.9544L339.207 317.108C338.37 330.017 327.135 340.535 314.106 340.535Z" fill="#263238"/>
<path d="M336.338 23.9056H306.456C304.544 23.9056 302.751 25.34 302.392 27.2524L302.153 28.2087C301.197 32.9898 296.894 36.4561 292.113 36.4561H263.665C258.884 36.4561 255.059 32.8702 254.82 28.2087V27.2524C254.701 25.34 253.147 23.9056 251.234 23.9056H221.352C211.431 23.9056 202.706 32.0335 201.989 41.9544L182.745 317.108C182.028 327.029 189.558 335.157 199.598 335.157H314.704C324.625 335.157 333.35 327.029 334.067 317.108L353.311 41.9544C353.789 32.0335 346.259 23.9056 336.338 23.9056Z" fill="#FFCC33"/>
<path opacity="0.8" d="M353.072 41.9544L333.828 317.108C333.111 327.029 324.505 335.157 314.465 335.157H199.359C189.438 335.157 181.908 327.029 182.506 317.108L201.75 41.9544C202.467 32.0335 211.073 23.9056 221.113 23.9056H250.995C252.908 23.9056 254.462 25.34 254.581 27.372V28.3282C254.82 33.1093 258.645 36.6951 263.426 36.6951H291.874C296.655 36.6951 300.958 33.1093 301.914 28.3282L302.153 27.372C302.512 25.4595 304.305 23.9056 306.217 23.9056H336.099C346.259 23.9056 353.789 32.0335 353.072 41.9544Z" fill="white"/>
<path d="M336.219 283.999L333.948 317.108C333.231 327.029 324.625 335.157 314.584 335.157H199.479C189.558 335.157 182.028 327.029 182.625 317.108L184.896 283.999H336.219Z" fill="#263238"/>
<path opacity="0.5" d="M336.219 283.999L333.948 317.108C333.231 327.029 324.625 335.157 314.584 335.157H199.479C189.558 335.157 182.028 327.029 182.625 317.108L184.896 283.999H336.219Z" fill="white"/>
<g opacity="0.7">
<path opacity="0.7" d="M271.554 26.8938C271.435 28.2086 270.359 29.1649 269.164 29.1649C267.849 29.1649 266.892 28.0891 267.012 26.8938C267.132 25.579 268.207 24.6228 269.403 24.6228C270.717 24.6228 271.674 25.6986 271.554 26.8938Z" fill="black"/>
<path opacity="0.7" d="M287.929 24.6228C286.973 24.6228 280.997 24.6228 280.041 24.6228C278.726 24.6228 277.65 25.6986 277.65 26.8938C277.53 28.2086 278.487 29.1649 279.802 29.1649C280.638 29.1649 286.854 29.1649 287.69 29.1649C289.005 29.1649 290.081 28.0891 290.081 26.8938C290.2 25.6986 289.244 24.6228 287.929 24.6228Z" fill="black"/>
</g>
<path d="M214.778 36.4561H217.169L217.408 34.0656H214.898L214.778 36.4561Z" fill="#FFCC33"/>
<path d="M219.798 34.0655L219.679 36.456H222.069L222.189 34.0655L222.428 31.6749H219.918L219.798 34.0655Z" fill="#FFCC33"/>
<path d="M224.938 29.2844L224.819 31.675L224.58 34.0655L224.46 36.4561H226.851L227.09 34.0655L227.209 31.675L227.448 29.2844H224.938Z" fill="#FFCC33"/>
<path d="M329.047 29.4039L328.928 31.1969H327.732L327.493 34.7827H328.688L328.569 36.5756H339.207L339.685 29.5235H329.047V29.4039ZM333.47 34.6632H329.884L330.123 31.0773H333.709L333.47 34.6632Z" fill="#FFCC33"/>
<path d="M221.591 166.622H220.755C220.157 166.622 219.798 166.144 219.798 165.666L220.994 148.573C221.233 145.226 224.101 142.477 227.448 142.477H244.541C245.138 142.477 245.497 142.955 245.497 143.434V144.27C245.497 144.868 245.019 145.226 244.421 145.226H227.329C225.536 145.226 223.982 146.661 223.862 148.454L222.667 165.546C222.667 166.144 222.189 166.622 221.591 166.622Z" fill="#FFCC33"/>
<path d="M286.615 237.263V236.426C286.615 235.829 287.093 235.47 287.69 235.47H304.783C306.576 235.47 308.13 234.036 308.249 232.243L309.444 215.15C309.444 214.553 309.923 214.194 310.52 214.194H311.357C311.955 214.194 312.313 214.672 312.313 215.15L311.118 232.243C310.879 235.59 308.01 238.339 304.663 238.339H287.571C286.973 238.219 286.495 237.861 286.615 237.263Z" fill="#FFCC33"/>
<path d="M314.704 166.622H313.867C313.269 166.622 312.911 166.144 312.911 165.666L314.106 148.693C314.106 147.976 313.987 147.259 313.628 146.78C313.03 145.824 312.074 145.346 310.998 145.346H293.906C293.308 145.346 292.95 144.868 292.95 144.39V143.553C292.95 142.956 293.428 142.597 294.025 142.597H310.879C312.313 142.597 313.867 143.075 314.943 144.031C316.258 145.227 316.975 146.9 316.855 148.693L315.66 165.785C315.779 166.144 315.301 166.622 314.704 166.622Z" fill="#FFCC33"/>
<path d="M220.874 238.219C219.081 238.219 217.408 237.383 216.332 236.068C215.495 234.873 215.137 233.438 215.256 232.004L216.452 215.15C216.452 214.553 216.93 214.194 217.527 214.194H218.364C218.962 214.194 219.32 214.672 219.32 215.15L218.125 232.123C218.125 232.841 218.245 233.558 218.603 234.036C219.201 234.992 220.157 235.47 221.233 235.47H238.325C238.923 235.47 239.282 235.948 239.282 236.426V237.263C239.282 237.861 238.803 238.219 238.206 238.219H220.874Z" fill="#FFCC33"/>
<path d="M237.13 262.484C236.413 263.32 235.457 263.679 234.381 263.679C232.947 263.679 231.871 263.081 230.436 261.527C227.687 261.169 225.894 259.137 226.133 256.388C226.372 253.4 228.763 251.248 231.99 251.248C235.098 251.248 237.369 253.4 237.13 256.388C237.01 258.778 235.337 260.571 233.186 261.288C233.664 261.767 234.022 262.006 234.5 262.006C235.098 262.006 235.696 261.767 236.174 261.288L237.13 262.484ZM231.393 259.495C233.186 259.495 234.62 258.181 234.739 256.268C234.859 254.356 233.664 253.041 231.871 253.041C230.078 253.041 228.644 254.356 228.524 256.268C228.285 258.3 229.6 259.495 231.393 259.495Z" fill="#263238"/>
<path d="M244.899 261.408L243.106 258.659H242.987H240.955L240.716 261.408H238.445L239.162 251.367H243.465C246.095 251.367 247.768 252.802 247.529 254.953C247.409 256.507 246.573 257.583 245.258 258.181L247.29 261.408H244.899ZM243.226 253.16H241.313L241.074 256.627H242.987C244.421 256.627 245.138 255.909 245.258 254.834C245.377 253.878 244.66 253.16 243.226 253.16Z" fill="#263238"/>
<path d="M252.788 256.388C253.027 253.4 255.418 251.248 258.645 251.248C260.438 251.248 261.753 251.846 262.709 253.041L261.155 254.475C260.557 253.758 259.721 253.28 258.765 253.28C256.852 253.28 255.418 254.595 255.298 256.507C255.179 258.42 256.374 259.735 258.286 259.735C259.243 259.735 260.199 259.376 260.916 258.539L262.35 259.974C261.275 261.169 259.84 261.767 258.047 261.767C254.701 261.527 252.549 259.376 252.788 256.388Z" fill="#263238"/>
<path d="M263.068 256.388C263.307 253.4 265.697 251.248 268.924 251.248C272.032 251.248 274.303 253.4 274.064 256.388C273.825 259.376 271.315 261.527 268.207 261.527C264.98 261.527 262.829 259.376 263.068 256.388ZM271.674 256.388C271.793 254.475 270.598 253.161 268.805 253.161C267.012 253.161 265.578 254.475 265.458 256.388C265.339 258.3 266.534 259.615 268.327 259.615C270.12 259.495 271.554 258.3 271.674 256.388Z" fill="#263238"/>
<path d="M276.216 251.367H280.758C283.985 251.367 286.137 253.399 285.897 256.388C285.658 259.376 283.268 261.408 280.041 261.408H275.499L276.216 251.367ZM280.041 259.495C282.073 259.495 283.387 258.3 283.507 256.388C283.626 254.475 282.431 253.28 280.399 253.28H278.248L277.77 259.495H280.041Z" fill="#263238"/>
<path d="M295.221 259.495L295.101 261.408H287.332L288.049 251.367H295.579L295.46 253.28H290.2L290.081 255.431H294.743L294.623 257.224H289.961L289.842 259.495H295.221Z" fill="#263238"/>
<path d="M348.889 101.957H197.327L200.793 50.7994H352.475L348.889 101.957Z" fill="#FFCC33"/>
<path opacity="0.2" d="M182.984 316.152C182.625 321.172 184.418 325.714 187.526 329.061L348.65 27.85C345.661 24.8618 341.478 22.9493 336.697 22.9493H221.591C211.671 22.9493 202.945 31.0772 202.228 40.9981L182.984 316.152Z" fill="white"/>
<path d="M238.803 59.8835L236.413 92.8733" stroke="#E0E0E0" stroke-miterlimit="10"/>
<path d="M276.574 59.8835L274.303 92.8733" stroke="#E0E0E0" stroke-miterlimit="10"/>
<path d="M314.345 59.8835L312.074 92.8733" stroke="#E0E0E0" stroke-miterlimit="10"/>
<path d="M229.002 150.008L228.763 153.235H231.99L232.11 150.008H229.002Z" fill="#263238"/>
<path d="M232.11 150.008L231.99 153.235H235.098L235.337 150.008H232.11Z" fill="#263238"/>
<path d="M235.337 150.008L235.098 153.235H238.325L238.564 150.008H235.337Z" fill="#263238"/>
<path d="M238.564 150.008L238.325 153.235H241.553L241.792 150.008H238.564Z" fill="#263238"/>
<path d="M241.792 150.008L241.553 153.235H244.78L245.019 150.008H241.792Z" fill="#263238"/>
<path d="M245.019 150.008L244.78 153.235H248.007L248.246 150.008H245.019Z" fill="#263238"/>
<path d="M248.246 150.008L248.007 153.235H251.234L251.473 150.008H248.246Z" fill="#263238"/>
<path d="M261.036 150.008L260.797 153.235H264.024L264.263 150.008H261.036Z" fill="#263238"/>
<path d="M270.717 150.008L270.478 153.235H273.706L273.825 150.008H270.717Z" fill="#263238"/>
<path d="M273.825 150.008L273.706 153.235H276.813L277.052 150.008H273.825Z" fill="#263238"/>
<path d="M277.052 150.008L276.813 153.235H280.041L280.28 150.008H277.052Z" fill="#263238"/>
<path d="M280.28 150.008L280.041 153.235H283.268L283.507 150.008H280.28Z" fill="#263238"/>
<path d="M286.734 150.008L286.495 153.235H289.722L289.961 150.008H286.734Z" fill="#263238"/>
<path d="M289.961 150.008L289.722 153.235H292.95L293.189 150.008H289.961Z" fill="#263238"/>
<path d="M293.189 150.008L292.95 153.235H296.177L296.296 150.008H293.189Z" fill="#263238"/>
<path d="M296.296 150.008L296.177 153.235H299.285L299.524 150.008H296.296Z" fill="#263238"/>
<path d="M299.524 150.008L299.285 153.235H302.512L302.751 150.008H299.524Z" fill="#263238"/>
<path d="M302.751 150.008L302.512 153.235H305.739L305.978 150.008H302.751Z" fill="#263238"/>
<path d="M305.978 150.008L305.739 153.235H308.966L309.205 150.008H305.978Z" fill="#263238"/>
<path d="M228.763 153.235L228.524 156.343H231.751L231.99 153.235H228.763Z" fill="#263238"/>
<path d="M248.007 153.235L247.768 156.343H250.995L251.234 153.235H248.007Z" fill="#263238"/>
<path d="M257.569 153.235L257.33 156.343H260.557L260.797 153.235H257.569Z" fill="#263238"/>
<path d="M273.706 153.235L273.467 156.343H276.694L276.813 153.235H273.706Z" fill="#263238"/>
<path d="M276.813 153.235L276.694 156.343H279.802L280.041 153.235H276.813Z" fill="#263238"/>
<path d="M280.041 153.235L279.802 156.343H283.029L283.268 153.235H280.041Z" fill="#263238"/>
<path d="M286.495 153.235L286.256 156.343H289.483L289.722 153.235H286.495Z" fill="#263238"/>
<path d="M305.739 153.235L305.5 156.343H308.727L308.966 153.235H305.739Z" fill="#263238"/>
<path d="M228.524 156.343L228.285 159.57H231.512L231.751 156.343H228.524Z" fill="#263238"/>
<path d="M234.859 156.343L234.739 159.57H237.847L238.086 156.343H234.859Z" fill="#263238"/>
<path d="M238.086 156.343L237.847 159.57H241.074L241.313 156.343H238.086Z" fill="#263238"/>
<path d="M241.313 156.343L241.074 159.57H244.302L244.541 156.343H241.313Z" fill="#263238"/>
<path d="M247.768 156.343L247.529 159.57H250.756L250.995 156.343H247.768Z" fill="#263238"/>
<path d="M254.223 156.343L253.983 159.57H257.211L257.33 156.343H254.223Z" fill="#263238"/>
<path d="M263.785 156.343L263.546 159.57H266.773L267.012 156.343H263.785Z" fill="#263238"/>
<path d="M273.467 156.343L273.227 159.57H276.455L276.694 156.343H273.467Z" fill="#263238"/>
<path d="M286.256 156.343L286.017 159.57H289.244L289.483 156.343H286.256Z" fill="#263238"/>
<path d="M292.711 156.343L292.472 159.57H295.699L295.938 156.343H292.711Z" fill="#263238"/>
<path d="M295.938 156.343L295.699 159.57H298.926L299.165 156.343H295.938Z" fill="#263238"/>
<path d="M299.165 156.343L298.926 159.57H302.153L302.273 156.343H299.165Z" fill="#263238"/>
<path d="M305.5 156.343L305.261 159.57H308.488L308.727 156.343H305.5Z" fill="#263238"/>
<path d="M228.285 159.57L228.046 162.797H231.273L231.512 159.57H228.285Z" fill="#263238"/>
<path d="M234.739 159.57L234.5 162.797H237.728L237.847 159.57H234.739Z" fill="#263238"/>
<path d="M237.847 159.57L237.728 162.797H240.835L241.074 159.57H237.847Z" fill="#263238"/>
<path d="M241.074 159.57L240.835 162.797H244.063L244.302 159.57H241.074Z" fill="#263238"/>
<path d="M247.529 159.57L247.29 162.797H250.517L250.756 159.57H247.529Z" fill="#263238"/>
<path d="M257.211 159.57L256.972 162.797H260.199L260.318 159.57H257.211Z" fill="#263238"/>
<path d="M273.227 159.57L272.988 162.797H276.216L276.455 159.57H273.227Z" fill="#263238"/>
<path d="M276.455 159.57L276.216 162.797H279.443L279.682 159.57H276.455Z" fill="#263238"/>
<path d="M286.017 159.57L285.778 162.797H289.005L289.244 159.57H286.017Z" fill="#263238"/>
<path d="M292.472 159.57L292.232 162.797H295.46L295.699 159.57H292.472Z" fill="#263238"/>
<path d="M295.699 159.57L295.46 162.797H298.687L298.926 159.57H295.699Z" fill="#263238"/>
<path d="M298.926 159.57L298.687 162.797H301.914L302.153 159.57H298.926Z" fill="#263238"/>
<path d="M305.261 159.57L305.022 162.797H308.249L308.488 159.57H305.261Z" fill="#263238"/>
<path d="M228.046 162.797L227.807 166.024H231.034L231.273 162.797H228.046Z" fill="#263238"/>
<path d="M234.5 162.797L234.261 166.024H237.489L237.728 162.797H234.5Z" fill="#263238"/>
<path d="M237.728 162.797L237.489 166.024H240.716L240.835 162.797H237.728Z" fill="#263238"/>
<path d="M240.835 162.797L240.716 166.024H243.824L244.063 162.797H240.835Z" fill="#263238"/>
<path d="M247.29 162.797L247.051 166.024H250.278L250.517 162.797H247.29Z" fill="#263238"/>
<path d="M256.972 162.797L256.733 166.024H259.96L260.199 162.797H256.972Z" fill="#263238"/>
<path d="M266.534 162.797L266.295 166.024H269.522L269.761 162.797H266.534Z" fill="#263238"/>
<path d="M269.761 162.797L269.522 166.024H272.749L272.988 162.797H269.761Z" fill="#263238"/>
<path d="M272.988 162.797L272.749 166.024H275.977L276.216 162.797H272.988Z" fill="#263238"/>
<path d="M276.216 162.797L275.977 166.024H279.204L279.443 162.797H276.216Z" fill="#263238"/>
<path d="M285.778 162.797L285.539 166.024H288.766L289.005 162.797H285.778Z" fill="#263238"/>
<path d="M292.232 162.797L291.993 166.024H295.221L295.46 162.797H292.232Z" fill="#263238"/>
<path d="M295.46 162.797L295.221 166.024H298.448L298.687 162.797H295.46Z" fill="#263238"/>
<path d="M298.687 162.797L298.448 166.024H301.675L301.914 162.797H298.687Z" fill="#263238"/>
<path d="M305.022 162.797L304.902 166.024H308.01L308.249 162.797H305.022Z" fill="#263238"/>
<path d="M227.807 166.025L227.568 169.252H230.795L231.034 166.025H227.807Z" fill="#263238"/>
<path d="M247.051 166.025L246.812 169.252H250.039L250.278 166.025H247.051Z" fill="#263238"/>
<path d="M259.96 166.025L259.721 169.252H262.948L263.187 166.025H259.96Z" fill="#263238"/>
<path d="M263.187 166.025L262.948 169.252H266.056L266.295 166.025H263.187Z" fill="#263238"/>
<path d="M269.522 166.025L269.283 169.252H272.51L272.749 166.025H269.522Z" fill="#263238"/>
<path d="M272.749 166.025L272.51 169.252H275.738L275.977 166.025H272.749Z" fill="#263238"/>
<path d="M275.977 166.025L275.738 169.252H278.965L279.204 166.025H275.977Z" fill="#263238"/>
<path d="M279.204 166.025L278.965 169.252H282.192L282.431 166.025H279.204Z" fill="#263238"/>
<path d="M285.539 166.025L285.419 169.252H288.527L288.766 166.025H285.539Z" fill="#263238"/>
<path d="M304.902 166.025L304.663 169.252H307.891L308.01 166.025H304.902Z" fill="#263238"/>
<path d="M227.568 169.252L227.329 172.479H230.556L230.795 169.252H227.568Z" fill="#263238"/>
<path d="M230.795 169.252L230.556 172.479H233.783L234.022 169.252H230.795Z" fill="#263238"/>
<path d="M234.022 169.252L233.783 172.479H237.01L237.25 169.252H234.022Z" fill="#263238"/>
<path d="M237.25 169.252L237.01 172.479H240.238L240.477 169.252H237.25Z" fill="#263238"/>
<path d="M240.477 169.252L240.238 172.479H243.465L243.704 169.252H240.477Z" fill="#263238"/>
<path d="M243.704 169.252L243.465 172.479H246.692L246.812 169.252H243.704Z" fill="#263238"/>
<path d="M246.812 169.252L246.692 172.479H249.8L250.039 169.252H246.812Z" fill="#263238"/>
<path d="M253.266 169.252L253.027 172.479H256.254L256.494 169.252H253.266Z" fill="#263238"/>
<path d="M259.721 169.252L259.482 172.479H262.709L262.948 169.252H259.721Z" fill="#263238"/>
<path d="M266.056 169.252L265.936 172.479H269.044L269.283 169.252H266.056Z" fill="#263238"/>
<path d="M272.51 169.252L272.271 172.479H275.499L275.738 169.252H272.51Z" fill="#263238"/>
<path d="M278.965 169.252L278.726 172.479H281.953L282.192 169.252H278.965Z" fill="#263238"/>
<path d="M285.419 169.252L285.18 172.479H288.408L288.527 169.252H285.419Z" fill="#263238"/>
<path d="M288.527 169.252L288.408 172.479H291.515L291.754 169.252H288.527Z" fill="#263238"/>
<path d="M291.754 169.252L291.515 172.479H294.743L294.982 169.252H291.754Z" fill="#263238"/>
<path d="M294.982 169.252L294.743 172.479H297.97L298.209 169.252H294.982Z" fill="#263238"/>
<path d="M298.209 169.252L297.97 172.479H301.197L301.436 169.252H298.209Z" fill="#263238"/>
<path d="M301.436 169.252L301.197 172.479H304.424L304.663 169.252H301.436Z" fill="#263238"/>
<path d="M304.663 169.252L304.424 172.479H307.652L307.891 169.252H304.663Z" fill="#263238"/>
<path d="M253.027 172.479L252.788 175.587H256.015L256.254 172.479H253.027Z" fill="#263238"/>
<path d="M265.936 172.479L265.697 175.587H268.924L269.044 172.479H265.936Z" fill="#263238"/>
<path d="M269.044 172.479L268.924 175.587H272.032L272.271 172.479H269.044Z" fill="#263238"/>
<path d="M278.726 172.479L278.487 175.587H281.714L281.953 172.479H278.726Z" fill="#263238"/>
<path d="M227.209 175.587L226.97 178.814H230.078L230.317 175.587H227.209Z" fill="#263238"/>
<path d="M230.317 175.587L230.078 178.814H233.305L233.544 175.587H230.317Z" fill="#263238"/>
<path d="M233.544 175.587L233.305 178.814H236.532L236.771 175.587H233.544Z" fill="#263238"/>
<path d="M239.999 175.587L239.76 178.814H242.987L243.226 175.587H239.999Z" fill="#263238"/>
<path d="M243.226 175.587L242.987 178.814H246.214L246.453 175.587H243.226Z" fill="#263238"/>
<path d="M246.453 175.587L246.214 178.814H249.441L249.561 175.587H246.453Z" fill="#263238"/>
<path d="M249.561 175.587L249.441 178.814H252.549L252.788 175.587H249.561Z" fill="#263238"/>
<path d="M252.788 175.587L252.549 178.814H255.776L256.015 175.587H252.788Z" fill="#263238"/>
<path d="M262.47 175.587L262.231 178.814H265.458L265.697 175.587H262.47Z" fill="#263238"/>
<path d="M265.697 175.587L265.458 178.814H268.685L268.924 175.587H265.697Z" fill="#263238"/>
<path d="M268.924 175.587L268.685 178.814H271.913L272.032 175.587H268.924Z" fill="#263238"/>
<path d="M278.487 175.587L278.248 178.814H281.475L281.714 175.587H278.487Z" fill="#263238"/>
<path d="M281.714 175.587L281.475 178.814H284.702L284.941 175.587H281.714Z" fill="#263238"/>
<path d="M284.941 175.587L284.702 178.814H287.929L288.168 175.587H284.941Z" fill="#263238"/>
<path d="M297.731 175.587L297.492 178.814H300.719L300.958 175.587H297.731Z" fill="#263238"/>
<path d="M233.305 178.814L233.066 182.041H236.293L236.532 178.814H233.305Z" fill="#263238"/>
<path d="M236.532 178.814L236.293 182.041H239.521L239.76 178.814H236.532Z" fill="#263238"/>
<path d="M239.76 178.814L239.521 182.041H242.748L242.987 178.814H239.76Z" fill="#263238"/>
<path d="M249.441 178.814L249.202 182.041H252.43L252.549 178.814H249.441Z" fill="#263238"/>
<path d="M252.549 178.814L252.43 182.041H255.537L255.776 178.814H252.549Z" fill="#263238"/>
<path d="M255.776 178.814L255.537 182.041H258.765L259.004 178.814H255.776Z" fill="#263238"/>
<path d="M262.231 178.814L261.992 182.041H265.219L265.458 178.814H262.231Z" fill="#263238"/>
<path d="M265.458 178.814L265.219 182.041H268.446L268.685 178.814H265.458Z" fill="#263238"/>
<path d="M278.248 178.814L278.009 182.041H281.236L281.475 178.814H278.248Z" fill="#263238"/>
<path d="M284.702 178.814L284.463 182.041H287.69L287.929 178.814H284.702Z" fill="#263238"/>
<path d="M303.946 178.814L303.707 182.041H306.934L307.173 178.814H303.946Z" fill="#263238"/>
<path d="M233.066 182.041L232.947 185.269H236.054L236.293 182.041H233.066Z" fill="#263238"/>
<path d="M245.975 182.041L245.736 185.269H248.963L249.202 182.041H245.975Z" fill="#263238"/>
<path d="M249.202 182.041L248.963 185.269H252.191L252.43 182.041H249.202Z" fill="#263238"/>
<path d="M258.765 182.041L258.526 185.269H261.753L261.992 182.041H258.765Z" fill="#263238"/>
<path d="M265.219 182.041L264.98 185.269H268.207L268.446 182.041H265.219Z" fill="#263238"/>
<path d="M271.674 182.041L271.435 185.269H274.662L274.901 182.041H271.674Z" fill="#263238"/>
<path d="M284.463 182.041L284.224 185.269H287.451L287.69 182.041H284.463Z" fill="#263238"/>
<path d="M287.69 182.041L287.451 185.269H290.679L290.918 182.041H287.69Z" fill="#263238"/>
<path d="M290.918 182.041L290.679 185.269H293.906L294.145 182.041H290.918Z" fill="#263238"/>
<path d="M297.372 182.041L297.133 185.269H300.241L300.48 182.041H297.372Z" fill="#263238"/>
<path d="M300.48 182.041L300.241 185.269H303.468L303.707 182.041H300.48Z" fill="#263238"/>
<path d="M303.707 182.041L303.468 185.269H306.695L306.934 182.041H303.707Z" fill="#263238"/>
<path d="M226.492 185.268L226.253 188.496H229.48L229.719 185.268H226.492Z" fill="#263238"/>
<path d="M229.719 185.268L229.48 188.496H232.707L232.947 185.268H229.719Z" fill="#263238"/>
<path d="M232.947 185.268L232.707 188.496H235.935L236.054 185.268H232.947Z" fill="#263238"/>
<path d="M239.282 185.268L239.042 188.496H242.27L242.509 185.268H239.282Z" fill="#263238"/>
<path d="M255.418 185.268L255.179 188.496H258.406L258.526 185.268H255.418Z" fill="#263238"/>
<path d="M258.526 185.268L258.406 188.496H261.514L261.753 185.268H258.526Z" fill="#263238"/>
<path d="M264.98 185.268L264.741 188.496H267.968L268.207 185.268H264.98Z" fill="#263238"/>
<path d="M268.207 185.268L267.968 188.496H271.195L271.435 185.268H268.207Z" fill="#263238"/>
<path d="M271.435 185.268L271.195 188.496H274.423L274.662 185.268H271.435Z" fill="#263238"/>
<path d="M274.662 185.268L274.423 188.496H277.65L277.889 185.268H274.662Z" fill="#263238"/>
<path d="M280.997 185.268L280.758 188.496H283.985L284.224 185.268H280.997Z" fill="#263238"/>
<path d="M284.224 185.268L283.985 188.496H287.212L287.451 185.268H284.224Z" fill="#263238"/>
<path d="M287.451 185.268L287.212 188.496H290.44L290.679 185.268H287.451Z" fill="#263238"/>
<path d="M300.241 185.268L300.121 188.496H303.229L303.468 185.268H300.241Z" fill="#263238"/>
<path d="M232.707 188.496L232.468 191.723H235.696L235.935 188.496H232.707Z" fill="#263238"/>
<path d="M235.935 188.496L235.696 191.723H238.923L239.042 188.496H235.935Z" fill="#263238"/>
<path d="M245.497 188.496L245.258 191.723H248.485L248.724 188.496H245.497Z" fill="#263238"/>
<path d="M251.951 188.496L251.712 191.723H254.94L255.179 188.496H251.951Z" fill="#263238"/>
<path d="M258.406 188.496L258.167 191.723H261.275L261.514 188.496H258.406Z" fill="#263238"/>
<path d="M267.968 188.496L267.729 191.723H270.956L271.195 188.496H267.968Z" fill="#263238"/>
<path d="M277.65 188.496L277.411 191.723H280.638L280.758 188.496H277.65Z" fill="#263238"/>
<path d="M280.758 188.496L280.638 191.723H283.746L283.985 188.496H280.758Z" fill="#263238"/>
<path d="M283.985 188.496L283.746 191.723H286.973L287.212 188.496H283.985Z" fill="#263238"/>
<path d="M287.212 188.496L286.973 191.723H290.2L290.44 188.496H287.212Z" fill="#263238"/>
<path d="M293.667 188.496L293.428 191.723H296.655L296.894 188.496H293.667Z" fill="#263238"/>
<path d="M300.121 188.496L299.882 191.723H303.109L303.229 188.496H300.121Z" fill="#263238"/>
<path d="M303.229 188.496L303.109 191.723H306.217L306.456 188.496H303.229Z" fill="#263238"/>
<path d="M242.031 191.723L241.911 194.95H245.019L245.258 191.723H242.031Z" fill="#263238"/>
<path d="M248.485 191.723L248.246 194.95H251.473L251.712 191.723H248.485Z" fill="#263238"/>
<path d="M251.712 191.723L251.473 194.95H254.701L254.94 191.723H251.712Z" fill="#263238"/>
<path d="M258.167 191.723L257.928 194.95H261.155L261.275 191.723H258.167Z" fill="#263238"/>
<path d="M264.502 191.723L264.263 194.95H267.49L267.729 191.723H264.502Z" fill="#263238"/>
<path d="M277.411 191.723L277.172 194.95H280.399L280.638 191.723H277.411Z" fill="#263238"/>
<path d="M280.638 191.723L280.399 194.95H283.626L283.746 191.723H280.638Z" fill="#263238"/>
<path d="M283.746 191.723L283.626 194.95H286.734L286.973 191.723H283.746Z" fill="#263238"/>
<path d="M293.428 191.723L293.189 194.95H296.416L296.655 191.723H293.428Z" fill="#263238"/>
<path d="M303.109 191.723L302.87 194.95H306.098L306.217 191.723H303.109Z" fill="#263238"/>
<path d="M225.775 194.95L225.536 198.058H228.763L229.002 194.95H225.775Z" fill="#263238"/>
<path d="M235.457 194.95L235.218 198.058H238.445L238.684 194.95H235.457Z" fill="#263238"/>
<path d="M238.684 194.95L238.445 198.058H241.672L241.911 194.95H238.684Z" fill="#263238"/>
<path d="M241.911 194.95L241.672 198.058H244.78L245.019 194.95H241.911Z" fill="#263238"/>
<path d="M245.019 194.95L244.78 198.058H248.007L248.246 194.95H245.019Z" fill="#263238"/>
<path d="M248.246 194.95L248.007 198.058H251.234L251.473 194.95H248.246Z" fill="#263238"/>
<path d="M254.701 194.95L254.462 198.058H257.689L257.928 194.95H254.701Z" fill="#263238"/>
<path d="M257.928 194.95L257.689 198.058H260.916L261.155 194.95H257.928Z" fill="#263238"/>
<path d="M267.49 194.95L267.251 198.058H270.478L270.717 194.95H267.49Z" fill="#263238"/>
<path d="M277.172 194.95L276.933 198.058H280.16L280.399 194.95H277.172Z" fill="#263238"/>
<path d="M280.399 194.95L280.16 198.058H283.387L283.626 194.95H280.399Z" fill="#263238"/>
<path d="M283.626 194.95L283.387 198.058H286.615L286.734 194.95H283.626Z" fill="#263238"/>
<path d="M286.734 194.95L286.615 198.058H289.722L289.961 194.95H286.734Z" fill="#263238"/>
<path d="M296.416 194.95L296.177 198.058H299.404L299.643 194.95H296.416Z" fill="#263238"/>
<path d="M299.643 194.95L299.404 198.058H302.631L302.87 194.95H299.643Z" fill="#263238"/>
<path d="M302.87 194.95L302.631 198.058H305.859L306.098 194.95H302.87Z" fill="#263238"/>
<path d="M228.763 198.058L228.524 201.285H231.751L231.99 198.058H228.763Z" fill="#263238"/>
<path d="M231.99 198.058L231.751 201.285H234.979L235.218 198.058H231.99Z" fill="#263238"/>
<path d="M241.672 198.058L241.433 201.285H244.66L244.78 198.058H241.672Z" fill="#263238"/>
<path d="M248.007 198.058L247.768 201.285H250.995L251.234 198.058H248.007Z" fill="#263238"/>
<path d="M254.462 198.058L254.223 201.285H257.45L257.689 198.058H254.462Z" fill="#263238"/>
<path d="M257.689 198.058L257.45 201.285H260.677L260.916 198.058H257.689Z" fill="#263238"/>
<path d="M267.251 198.058L267.132 201.285H270.239L270.478 198.058H267.251Z" fill="#263238"/>
<path d="M273.706 198.058L273.467 201.285H276.694L276.933 198.058H273.706Z" fill="#263238"/>
<path d="M283.387 198.058L283.148 201.285H286.376L286.615 198.058H283.387Z" fill="#263238"/>
<path d="M289.722 198.058L289.603 201.285H292.711L292.95 198.058H289.722Z" fill="#263238"/>
<path d="M299.404 198.058L299.165 201.285H302.392L302.631 198.058H299.404Z" fill="#263238"/>
<path d="M225.297 201.285L225.177 204.513H228.285L228.524 201.285H225.297Z" fill="#263238"/>
<path d="M231.751 201.285L231.512 204.513H234.739L234.979 201.285H231.751Z" fill="#263238"/>
<path d="M241.433 201.285L241.194 204.513H244.421L244.66 201.285H241.433Z" fill="#263238"/>
<path d="M244.66 201.285L244.421 204.513H247.648L247.768 201.285H244.66Z" fill="#263238"/>
<path d="M247.768 201.285L247.648 204.513H250.756L250.995 201.285H247.768Z" fill="#263238"/>
<path d="M267.132 201.285L266.892 204.513H270.12L270.239 201.285H267.132Z" fill="#263238"/>
<path d="M276.694 201.285L276.455 204.513H279.682L279.921 201.285H276.694Z" fill="#263238"/>
<path d="M279.921 201.285L279.682 204.513H282.909L283.148 201.285H279.921Z" fill="#263238"/>
<path d="M283.148 201.285L282.909 204.513H286.136L286.376 201.285H283.148Z" fill="#263238"/>
<path d="M286.376 201.285L286.136 204.513H289.364L289.603 201.285H286.376Z" fill="#263238"/>
<path d="M289.603 201.285L289.364 204.513H292.591L292.711 201.285H289.603Z" fill="#263238"/>
<path d="M292.711 201.285L292.591 204.513H295.699L295.938 201.285H292.711Z" fill="#263238"/>
<path d="M250.756 204.512L250.637 207.74H253.744L253.983 204.512H250.756Z" fill="#263238"/>
<path d="M257.211 204.512L256.972 207.74H260.199L260.438 204.512H257.211Z" fill="#263238"/>
<path d="M263.665 204.512L263.426 207.74H266.653L266.892 204.512H263.665Z" fill="#263238"/>
<path d="M276.455 204.512L276.216 207.74H279.443L279.682 204.512H276.455Z" fill="#263238"/>
<path d="M289.364 204.512L289.125 207.74H292.352L292.591 204.512H289.364Z" fill="#263238"/>
<path d="M292.591 204.512L292.352 207.74H295.46L295.699 204.512H292.591Z" fill="#263238"/>
<path d="M298.926 204.512L298.687 207.74H301.914L302.153 204.512H298.926Z" fill="#263238"/>
<path d="M302.153 204.512L301.914 207.74H305.141L305.381 204.512H302.153Z" fill="#263238"/>
<path d="M224.938 207.74L224.699 210.967H227.926L228.165 207.74H224.938Z" fill="#263238"/>
<path d="M228.165 207.74L227.926 210.967H231.154L231.273 207.74H228.165Z" fill="#263238"/>
<path d="M231.273 207.74L231.154 210.967H234.261L234.5 207.74H231.273Z" fill="#263238"/>
<path d="M234.5 207.74L234.261 210.967H237.489L237.728 207.74H234.5Z" fill="#263238"/>
<path d="M237.728 207.74L237.489 210.967H240.716L240.955 207.74H237.728Z" fill="#263238"/>
<path d="M240.955 207.74L240.716 210.967H243.943L244.182 207.74H240.955Z" fill="#263238"/>
<path d="M244.182 207.74L243.943 210.967H247.17L247.409 207.74H244.182Z" fill="#263238"/>
<path d="M250.637 207.74L250.398 210.967H253.625L253.744 207.74H250.637Z" fill="#263238"/>
<path d="M253.744 207.74L253.625 210.967H256.733L256.972 207.74H253.744Z" fill="#263238"/>
<path d="M256.972 207.74L256.733 210.967H259.96L260.199 207.74H256.972Z" fill="#263238"/>
<path d="M266.653 207.74L266.414 210.967H269.642L269.881 207.74H266.653Z" fill="#263238"/>
<path d="M269.881 207.74L269.642 210.967H272.869L273.108 207.74H269.881Z" fill="#263238"/>
<path d="M273.108 207.74L272.869 210.967H275.977L276.216 207.74H273.108Z" fill="#263238"/>
<path d="M276.216 207.74L275.977 210.967H279.204L279.443 207.74H276.216Z" fill="#263238"/>
<path d="M282.67 207.74L282.431 210.967H285.658L285.897 207.74H282.67Z" fill="#263238"/>
<path d="M289.125 207.74L288.886 210.967H292.113L292.352 207.74H289.125Z" fill="#263238"/>
<path d="M292.352 207.74L292.113 210.967H295.34L295.46 207.74H292.352Z" fill="#263238"/>
<path d="M298.687 207.74L298.448 210.967H301.675L301.914 207.74H298.687Z" fill="#263238"/>
<path d="M301.914 207.74L301.675 210.967H304.902L305.141 207.74H301.914Z" fill="#263238"/>
<path d="M224.699 210.967L224.46 214.194H227.687L227.926 210.967H224.699Z" fill="#263238"/>
<path d="M243.943 210.967L243.704 214.194H246.931L247.17 210.967H243.943Z" fill="#263238"/>
<path d="M250.398 210.967L250.159 214.194H253.386L253.625 210.967H250.398Z" fill="#263238"/>
<path d="M263.187 210.967L262.948 214.194H266.175L266.414 210.967H263.187Z" fill="#263238"/>
<path d="M266.414 210.967L266.175 214.194H269.403L269.642 210.967H266.414Z" fill="#263238"/>
<path d="M269.642 210.967L269.403 214.194H272.63L272.869 210.967H269.642Z" fill="#263238"/>
<path d="M275.977 210.967L275.857 214.194H278.965L279.204 210.967H275.977Z" fill="#263238"/>
<path d="M288.886 210.967L288.647 214.194H291.874L292.113 210.967H288.886Z" fill="#263238"/>
<path d="M292.113 210.967L291.874 214.194H295.101L295.34 210.967H292.113Z" fill="#263238"/>
<path d="M298.448 210.967L298.328 214.194H301.436L301.675 210.967H298.448Z" fill="#263238"/>
<path d="M224.46 214.194L224.221 217.421H227.448L227.687 214.194H224.46Z" fill="#263238"/>
<path d="M230.915 214.194L230.675 217.421H233.903L234.142 214.194H230.915Z" fill="#263238"/>
<path d="M234.142 214.194L233.903 217.421H237.13L237.25 214.194H234.142Z" fill="#263238"/>
<path d="M237.25 214.194L237.13 217.421H240.238L240.477 214.194H237.25Z" fill="#263238"/>
<path d="M243.704 214.194L243.465 217.421H246.692L246.931 214.194H243.704Z" fill="#263238"/>
<path d="M250.159 214.194L249.92 217.421H253.147L253.386 214.194H250.159Z" fill="#263238"/>
<path d="M259.721 214.194L259.482 217.421H262.709L262.948 214.194H259.721Z" fill="#263238"/>
<path d="M262.948 214.194L262.709 217.421H265.936L266.175 214.194H262.948Z" fill="#263238"/>
<path d="M266.175 214.194L265.936 217.421H269.164L269.403 214.194H266.175Z" fill="#263238"/>
<path d="M269.403 214.194L269.164 217.421H272.391L272.63 214.194H269.403Z" fill="#263238"/>
<path d="M275.857 214.194L275.618 217.421H278.845L278.965 214.194H275.857Z" fill="#263238"/>
<path d="M278.965 214.194L278.845 217.421H281.953L282.192 214.194H278.965Z" fill="#263238"/>
<path d="M282.192 214.194L281.953 217.421H285.18L285.419 214.194H282.192Z" fill="#263238"/>
<path d="M285.419 214.194L285.18 217.421H288.408L288.647 214.194H285.419Z" fill="#263238"/>
<path d="M288.647 214.194L288.408 217.421H291.635L291.874 214.194H288.647Z" fill="#263238"/>
<path d="M291.874 214.194L291.635 217.421H294.862L295.101 214.194H291.874Z" fill="#263238"/>
<path d="M298.328 214.194L298.089 217.421H301.317L301.436 214.194H298.328Z" fill="#263238"/>
<path d="M224.221 217.422L223.982 220.529H227.209L227.448 217.422H224.221Z" fill="#263238"/>
<path d="M230.675 217.422L230.436 220.529H233.664L233.903 217.422H230.675Z" fill="#263238"/>
<path d="M233.903 217.422L233.664 220.529H236.891L237.13 217.422H233.903Z" fill="#263238"/>
<path d="M237.13 217.422L236.891 220.529H239.999L240.238 217.422H237.13Z" fill="#263238"/>
<path d="M243.465 217.422L243.226 220.529H246.453L246.692 217.422H243.465Z" fill="#263238"/>
<path d="M253.147 217.422L252.908 220.529H256.135L256.374 217.422H253.147Z" fill="#263238"/>
<path d="M256.374 217.422L256.135 220.529H259.362L259.482 217.422H256.374Z" fill="#263238"/>
<path d="M262.709 217.422L262.47 220.529H265.697L265.936 217.422H262.709Z" fill="#263238"/>
<path d="M272.391 217.422L272.152 220.529H275.379L275.618 217.422H272.391Z" fill="#263238"/>
<path d="M275.618 217.422L275.379 220.529H278.606L278.845 217.422H275.618Z" fill="#263238"/>
<path d="M285.18 217.422L284.941 220.529H288.168L288.408 217.422H285.18Z" fill="#263238"/>
<path d="M288.408 217.422L288.168 220.529H291.396L291.635 217.422H288.408Z" fill="#263238"/>
<path d="M291.635 217.422L291.396 220.529H294.623L294.862 217.422H291.635Z" fill="#263238"/>
<path d="M294.862 217.422L294.623 220.529H297.85L298.089 217.422H294.862Z" fill="#263238"/>
<path d="M223.982 220.529L223.743 223.757H226.97L227.209 220.529H223.982Z" fill="#263238"/>
<path d="M230.436 220.529L230.197 223.757H233.425L233.664 220.529H230.436Z" fill="#263238"/>
<path d="M233.664 220.529L233.425 223.757H236.652L236.891 220.529H233.664Z" fill="#263238"/>
<path d="M236.891 220.529L236.652 223.757H239.879L239.999 220.529H236.891Z" fill="#263238"/>
<path d="M243.226 220.529L242.987 223.757H246.214L246.453 220.529H243.226Z" fill="#263238"/>
<path d="M249.68 220.529L249.441 223.757H252.669L252.908 220.529H249.68Z" fill="#263238"/>
<path d="M265.697 220.529L265.458 223.757H268.685L268.924 220.529H265.697Z" fill="#263238"/>
<path d="M272.152 220.529L271.913 223.757H275.14L275.379 220.529H272.152Z" fill="#263238"/>
<path d="M288.168 220.529L287.929 223.757H291.157L291.396 220.529H288.168Z" fill="#263238"/>
<path d="M301.078 220.529L300.838 223.757H304.066L304.305 220.529H301.078Z" fill="#263238"/>
<path d="M223.743 223.756L223.504 226.984H226.731L226.97 223.756H223.743Z" fill="#263238"/>
<path d="M242.987 223.756L242.867 226.984H245.975L246.214 223.756H242.987Z" fill="#263238"/>
<path d="M249.441 223.756L249.202 226.984H252.43L252.669 223.756H249.441Z" fill="#263238"/>
<path d="M252.669 223.756L252.43 226.984H255.657L255.896 223.756H252.669Z" fill="#263238"/>
<path d="M259.123 223.756L258.884 226.984H262.111L262.35 223.756H259.123Z" fill="#263238"/>
<path d="M265.458 223.756L265.339 226.984H268.446L268.685 223.756H265.458Z" fill="#263238"/>
<path d="M268.685 223.756L268.446 226.984H271.674L271.913 223.756H268.685Z" fill="#263238"/>
<path d="M271.913 223.756L271.674 226.984H274.901L275.14 223.756H271.913Z" fill="#263238"/>
<path d="M275.14 223.756L274.901 226.984H278.128L278.367 223.756H275.14Z" fill="#263238"/>
<path d="M281.594 223.756L281.355 226.984H284.583L284.822 223.756H281.594Z" fill="#263238"/>
<path d="M287.929 223.756L287.81 226.984H290.918L291.157 223.756H287.929Z" fill="#263238"/>
<path d="M291.157 223.756L290.918 226.984H294.145L294.384 223.756H291.157Z" fill="#263238"/>
<path d="M297.611 223.756L297.372 226.984H300.599L300.838 223.756H297.611Z" fill="#263238"/>
<path d="M223.504 226.984L223.384 230.211H226.492L226.731 226.984H223.504Z" fill="#263238"/>
<path d="M226.731 226.984L226.492 230.211H229.719L229.958 226.984H226.731Z" fill="#263238"/>
<path d="M229.958 226.984L229.719 230.211H232.947L233.186 226.984H229.958Z" fill="#263238"/>
<path d="M233.186 226.984L232.947 230.211H236.174L236.413 226.984H233.186Z" fill="#263238"/>
<path d="M236.413 226.984L236.174 230.211H239.401L239.64 226.984H236.413Z" fill="#263238"/>
<path d="M239.64 226.984L239.401 230.211H242.628L242.867 226.984H239.64Z" fill="#263238"/>
<path d="M242.867 226.984L242.628 230.211H245.856L245.975 226.984H242.867Z" fill="#263238"/>
<path d="M249.202 226.984L248.963 230.211H252.191L252.43 226.984H249.202Z" fill="#263238"/>
<path d="M252.43 226.984L252.191 230.211H255.418L255.657 226.984H252.43Z" fill="#263238"/>
<path d="M255.657 226.984L255.418 230.211H258.645L258.884 226.984H255.657Z" fill="#263238"/>
<path d="M258.884 226.984L258.645 230.211H261.872L262.111 226.984H258.884Z" fill="#263238"/>
<path d="M262.111 226.984L261.872 230.211H265.1L265.339 226.984H262.111Z" fill="#263238"/>
<path d="M265.339 226.984L265.1 230.211H268.327L268.446 226.984H265.339Z" fill="#263238"/>
<path d="M274.901 226.984L274.662 230.211H277.889L278.128 226.984H274.901Z" fill="#263238"/>
<path d="M278.128 226.984L277.889 230.211H281.116L281.355 226.984H278.128Z" fill="#263238"/>
<path d="M284.583 226.984L284.344 230.211H287.571L287.81 226.984H284.583Z" fill="#263238"/>
<path d="M297.372 226.984L297.133 230.211H300.36L300.599 226.984H297.372Z" fill="#263238"/>
<path d="M300.599 226.984L300.36 230.211H303.588L303.827 226.984H300.599Z" fill="#263238"/>
<path d="M138.161 424.922L147.484 422.651L142.703 401.017L133.38 403.168L138.161 424.922Z" fill="#FF887B"/>
<path d="M147.125 420.38L136.966 422.89C136.607 423.01 136.368 423.368 136.368 423.727L136.726 432.333C136.726 433.17 137.444 433.767 138.28 433.648C138.4 433.648 138.519 433.648 138.519 433.648C142.225 432.692 147.364 431.257 152.026 430.062C157.405 428.747 157.883 428.986 164.218 427.432C168.043 426.476 168.043 422.412 166.369 422.412C158.6 422.532 156.927 422.89 149.516 420.5C148.799 420.261 147.962 420.261 147.125 420.38Z" fill="#263238"/>
<path opacity="0.2" d="M142.703 401.017L145.213 412.133L135.89 414.404L133.38 403.168L142.703 401.017Z" fill="black"/>
<path d="M148.321 419.783C148.201 419.783 148.201 419.783 148.082 419.663C147.962 419.544 147.962 419.424 148.082 419.305C148.44 418.946 151.667 416.197 152.863 416.555C153.102 416.675 153.341 416.794 153.341 417.033C153.46 417.392 153.46 417.87 153.221 418.229C152.624 418.826 151.907 419.185 151.07 419.305C150.353 419.663 149.277 419.783 148.321 419.783ZM148.918 419.305C151.07 419.185 152.504 418.707 152.982 418.109C153.102 417.87 153.221 417.631 153.102 417.392C153.102 417.273 152.982 417.273 152.863 417.153C152.743 417.153 152.624 417.153 152.385 417.153C151.07 417.631 149.875 418.348 148.918 419.305Z" fill="#407BFF"/>
<path d="M148.201 419.783C148.082 419.783 148.082 419.663 148.082 419.544C148.082 419.424 147.723 416.914 148.56 415.719C148.799 415.36 149.277 415.121 149.635 415.121C150.233 415.001 150.592 415.241 150.592 415.48C151.07 416.436 149.396 418.946 148.44 419.783H148.321H148.201ZM148.918 416.077C148.44 417.033 148.321 418.109 148.44 419.185C149.396 418.229 150.472 416.316 150.233 415.719C150.233 415.719 150.114 415.48 149.755 415.599H149.635C149.277 415.599 149.038 415.838 148.918 416.077Z" fill="#407BFF"/>
<path d="M66.4439 423.01L75.8866 424.444L79.7115 402.69L70.2688 401.136L66.4439 423.01Z" fill="#FF887B"/>
<path d="M76.0062 423.368L65.6072 421.695C65.2486 421.575 64.8901 421.814 64.7705 422.173L61.7823 430.301C61.5433 431.018 61.9019 431.855 62.619 432.094C62.7386 432.094 62.7386 432.094 62.8581 432.213C66.5635 432.691 72.0617 433.409 76.7233 434.126C82.2216 434.962 82.5802 435.321 89.0347 436.397C92.9792 436.994 94.533 433.289 92.9792 432.572C85.8075 429.823 84.0145 429.345 78.1577 424.324C77.56 423.846 76.8429 423.488 76.0062 423.368Z" fill="#263238"/>
<path opacity="0.2" d="M79.7115 402.69L77.56 415.36L68.1173 413.806L70.2688 401.136L79.7115 402.69Z" fill="black"/>
<path d="M77.321 423.249C77.2015 423.249 77.2015 423.129 77.2015 423.129C77.2015 423.01 77.2015 422.89 77.321 422.89C77.7991 422.771 81.7435 421.456 82.8193 422.173C83.0583 422.293 83.1779 422.532 83.0583 422.771C83.0583 423.129 82.8193 423.607 82.4607 423.846C81.7435 424.205 80.9068 424.324 80.0701 424.085C79.2334 423.846 78.2772 423.607 77.321 423.249ZM78.0382 423.01C80.0701 423.727 81.624 423.846 82.2216 423.368C82.4607 423.249 82.5802 423.01 82.5802 422.651C82.5802 422.532 82.5802 422.412 82.4607 422.412C82.3412 422.292 82.2216 422.292 82.1021 422.292C80.7873 422.412 79.353 422.651 78.0382 423.01Z" fill="#407BFF"/>
<path d="M77.2015 423.249C77.2015 423.129 77.0819 423.129 77.2015 423.01C77.2015 422.89 77.7991 420.38 79.1139 419.663C79.4725 419.424 79.9506 419.304 80.4287 419.424C81.0264 419.543 81.2654 419.902 81.1459 420.141C81.1459 421.217 78.7553 422.89 77.4405 423.249H77.321H77.2015ZM79.353 420.021C78.5163 420.739 78.0382 421.695 77.7991 422.771C78.9944 422.293 80.7873 420.858 80.7873 420.261C80.7873 420.261 80.7873 420.021 80.4287 419.902H80.3092C79.8311 419.782 79.592 419.902 79.353 420.021Z" fill="#407BFF"/>
<path d="M113.179 284.477C120.59 284.835 127.523 285.313 135.053 285.074C135.77 276.349 134.694 264.037 131.587 255.79C125.371 252.443 118.2 254.714 111.506 256.985L113.179 284.477Z" fill="#FFCC33"/>
<path opacity="0.2" d="M113.179 284.477C120.59 284.835 127.523 285.313 135.053 285.074C135.77 276.349 134.694 264.037 131.587 255.79C125.371 252.443 118.2 254.714 111.506 256.985L113.179 284.477Z" fill="black"/>
<path opacity="0.2" d="M111.506 257.105L114.016 258.181L117.482 282.086L135.053 283.162L134.934 285.194L113.179 284.596L111.506 257.105Z" fill="black"/>
<path opacity="0.2" d="M131.467 255.79L132.543 259.017L126.447 261.288L116.407 259.734L111.506 256.866C111.506 256.866 115.69 254.714 122.025 253.997C128.359 253.519 131.467 255.79 131.467 255.79Z" fill="white"/>
<path d="M124.176 216.226L137.802 331.571L147.962 404.244C148.201 406.156 147.006 407.949 145.332 408.188L134.097 411.057C132.423 411.296 130.87 410.101 130.391 408.308C126.806 393.247 117.124 363.963 115.331 335.157C115.331 335.157 96.2064 261.647 92.262 238.936L91.0667 218.378L124.176 216.226Z" fill="#FFCD35"/>
<path opacity="0.2" d="M107.203 244.076C107.203 244.076 110.669 276.707 107.203 303.362C107.203 303.362 99.9118 272.883 96.565 260.81L107.203 244.076Z" fill="black"/>
<path d="M109.952 210.608L98.4775 340.655L83.895 410.101C83.5365 411.894 81.9826 413.089 80.3092 412.73L67.8783 410.101C66.3244 409.742 65.1291 408.069 65.2487 406.156C66.444 391.215 65.7268 366.712 73.018 340.177C73.018 340.177 73.8547 250.531 76.9624 210.728L109.952 210.608Z" fill="#FFCC33"/>
<path d="M182.147 152.04L184.657 148.573L193.741 154.191C191.948 155.745 189.916 157.06 187.765 158.255C186.331 158.972 184.538 158.853 183.223 157.777L182.864 157.538C181.191 156.223 180.952 153.713 182.147 152.04Z" fill="#FF8B7B"/>
<path d="M191.948 143.434L196.73 151.681L193.741 154.191L184.657 148.573L191.948 143.434Z" fill="#FF8B7B"/>
<path d="M119.873 161.841C130.033 164.471 144.974 166.503 148.56 166.981C153.341 167.578 173.78 162.917 182.506 161.363C182.984 161.243 183.581 161.124 183.94 160.765C184.418 160.287 184.299 159.57 184.179 158.853C183.82 156.343 183.462 153.713 183.103 151.203C182.984 150.486 182.864 149.649 182.386 149.171C181.669 148.454 180.354 148.573 179.278 148.693C167.684 150.605 151.07 151.801 151.07 151.801C142.822 150.605 134.097 147.139 126.567 143.792C104.095 133.752 114.972 160.526 119.873 161.841Z" fill="#263238"/>
<path opacity="0.1" d="M119.873 161.841C130.033 164.471 144.974 166.503 148.56 166.981C153.341 167.578 173.78 162.917 182.506 161.363C182.984 161.243 183.581 161.124 183.94 160.765C184.418 160.287 184.299 159.57 184.179 158.853C183.82 156.343 183.462 153.713 183.103 151.203C182.984 150.486 182.864 149.649 182.386 149.171C181.669 148.454 180.354 148.573 179.278 148.693C167.684 150.605 151.07 151.801 151.07 151.801C142.822 150.605 134.097 147.139 126.567 143.792C104.095 133.752 114.972 160.526 119.873 161.841Z" fill="black"/>
<path d="M199.837 158.733L189.558 156.701L195.773 135.067L206.172 137.099L199.837 158.733Z" fill="#407BFF"/>
<path d="M208.204 136.262L201.152 160.526C201.033 161.124 200.435 161.482 199.718 161.363L199.12 161.243C199.718 161.363 200.315 161.004 200.435 160.407L207.487 136.142C207.726 135.425 207.248 134.828 206.531 134.589L207.128 134.708C207.965 134.947 208.443 135.545 208.204 136.262Z" fill="#FFCC33"/>
<path opacity="0.3" d="M208.204 136.262L201.152 160.526C201.033 161.124 200.435 161.482 199.718 161.363L199.12 161.243C199.718 161.363 200.315 161.004 200.435 160.407L207.487 136.142C207.726 135.425 207.248 134.828 206.531 134.589L207.128 134.708C207.965 134.947 208.443 135.545 208.204 136.262Z" fill="black"/>
<path d="M206.77 134.589L196.49 132.557C195.893 132.437 195.295 132.796 195.176 133.393L188.123 157.658C187.884 158.375 188.363 158.972 189.08 159.211L199.359 161.243C199.957 161.363 200.554 161.004 200.674 160.407L207.726 136.143C207.846 135.425 207.368 134.828 206.77 134.589ZM199.837 158.733L189.558 156.701L195.893 135.067L206.172 137.099L199.837 158.733Z" fill="#FFCC33"/>
<path d="M206.172 137.099L199.837 158.733L189.558 156.701L195.773 135.067L206.172 137.099Z" fill="#407BFF"/>
<path opacity="0.7" d="M206.172 137.099L199.837 158.733L189.558 156.701L195.773 135.067L206.172 137.099Z" fill="white"/>
<path d="M189.199 145.346L191.47 142.836C191.709 142.597 192.068 142.716 192.187 142.956L192.546 143.912C192.785 144.509 192.666 145.107 192.307 145.705L188.841 151.203L184.657 148.454L189.199 145.346Z" fill="#FF8B7B"/>
<path d="M125.969 175.228C126.088 206.664 128.001 218.497 123.339 218.497C114.614 218.497 82.9388 219.692 81.0264 219.334C67.2806 217.421 75.7671 186.225 75.5281 181.324C75.4085 178.336 75.1695 175.348 74.8109 172.359C74.5718 170.566 74.2133 168.773 73.6156 167.1C72.6594 164.231 70.986 161.721 68.2369 160.765C65.7268 159.928 62.9776 160.646 60.348 160.526C57.7184 160.407 54.7302 158.494 54.9692 155.864C55.0888 154.669 56.045 153.593 56.8817 152.757C60.7066 148.693 65.0096 144.629 66.5635 139.25C67.1611 136.979 67.4001 134.469 68.5954 132.556C73.8547 124.429 86.5247 132.317 92.7401 134.708C96.8041 136.142 100.39 138.413 104.454 139.848C108.637 141.402 116.048 141.76 121.427 141.999C126.208 141.999 125.969 175.228 125.969 175.228Z" fill="#263238"/>
<path d="M90.23 123.353C91.5448 128.612 91.3058 137.338 91.3058 143.314C91.3058 148.813 105.649 153.474 105.649 153.474C105.649 153.474 111.506 148.454 106.964 144.749C103.139 141.641 102.541 137.935 103.498 133.632L90.23 123.353Z" fill="#FF8B7B"/>
<path opacity="0.2" d="M95.7283 127.536L103.617 133.513C103.378 134.708 103.259 136.023 103.139 137.218C100.27 136.979 96.2064 133.991 95.7283 131.122C95.4892 129.927 95.4892 128.732 95.7283 127.536Z" fill="black"/>
<path d="M88.9152 113.432C89.9909 122.397 90.1105 127.656 94.8916 132.079C102.063 138.653 112.94 133.991 114.733 124.907C116.287 116.779 114.375 103.392 105.291 100.284C98.836 98.013 91.7839 101.36 89.5128 107.814C88.9152 109.607 88.6761 111.52 88.9152 113.432Z" fill="#FF8B7B"/>
<path d="M115.211 122.277C115.689 125.744 116.287 131.959 117.363 135.425C111.267 135.425 105.41 135.784 99.1946 135.784C98.3579 135.186 90.8276 128.612 91.4253 128.015C93.4573 125.863 96.0869 123.473 93.5768 121.082C92.8596 120.365 93.2182 119.05 93.0987 117.974C95.3697 121.321 103.856 123.712 107.801 122.994L115.211 122.277Z" fill="#263238"/>
<path d="M105.53 124.07C104.215 124.548 106.127 126.461 108.159 126.58H111.865C112.821 126.58 113.658 126.102 114.136 125.385C114.494 124.668 114.494 123.951 113.897 123.712C113.897 123.712 113.538 123.473 111.147 123.473C111.147 123.353 106.964 123.473 105.53 124.07Z" fill="#FF8B7B"/>
<path d="M112.343 124.907C110.311 125.504 108.04 125.146 106.366 123.831C106.247 123.712 106.247 123.592 106.366 123.472C106.486 123.353 106.605 123.353 106.605 123.472C108.159 124.668 110.311 125.026 112.223 124.429C112.343 124.429 112.462 124.429 112.462 124.548C112.582 124.668 112.462 124.787 112.343 124.907Z" fill="#263238"/>
<path d="M110.789 119.767C108.876 119.528 106.964 120.365 105.171 121.082C103.378 121.799 101.466 122.516 99.5532 122.158C101.227 123.353 103.02 124.07 105.171 124.429C107.083 124.668 108.996 124.429 111.267 123.353C113.418 124.787 116.646 124.907 118.558 124.07C116.287 124.668 115.331 121.56 113.06 120.365C112.462 120.006 111.386 119.767 110.789 119.767Z" fill="#263238"/>
<path opacity="0.1" d="M110.789 119.767C108.876 119.528 106.964 120.365 105.171 121.082C103.378 121.799 101.466 122.516 99.5532 122.158C101.227 123.353 103.02 124.07 105.171 124.429C107.083 124.668 108.996 124.429 111.267 123.353C113.418 124.787 116.646 124.907 118.558 124.07C116.287 124.668 115.331 121.56 113.06 120.365C112.462 120.006 111.386 119.767 110.789 119.767Z" fill="black"/>
<path d="M96.6845 111.281C97.2822 112.237 97.5212 113.432 97.5212 114.627C96.565 115.584 95.7283 116.659 95.0111 117.735C94.0549 119.409 93.6963 121.56 92.3815 122.994C92.3815 122.994 92.1425 123.233 92.1425 123.114C91.0667 121.201 90.1105 119.169 89.2738 117.138C91.3058 114.866 93.9354 112.715 96.6845 111.281Z" fill="#263238"/>
<path d="M85.5684 122.158C86.5246 124.19 88.3175 125.743 90.4691 126.461C93.3377 127.417 94.8916 124.907 94.2939 122.158C93.6963 119.648 91.5448 116.181 88.5566 116.42C85.6879 116.659 84.3731 119.648 85.5684 122.158Z" fill="#FF8B7B"/>
<path d="M104.215 115.225C104.215 115.942 104.693 116.54 105.171 116.54C105.649 116.54 106.008 115.942 106.008 115.225C106.008 114.508 105.53 113.91 105.051 113.91C104.573 113.91 104.215 114.508 104.215 115.225Z" fill="#263238"/>
<path d="M111.865 114.866C111.865 115.584 112.343 116.181 112.821 116.181C113.299 116.181 113.658 115.584 113.658 114.747C113.658 114.03 113.179 113.432 112.701 113.432C112.223 113.432 111.865 114.149 111.865 114.866Z" fill="#263238"/>
<path d="M109.474 114.388C110.908 116.42 112.462 117.257 114.255 118.811C113.299 120.245 110.908 120.126 110.908 120.126L109.474 114.388Z" fill="#FF5652"/>
<path d="M101.585 112.715C101.705 112.715 101.944 112.715 101.944 112.476C102.541 111.52 103.498 110.922 104.573 110.922C104.812 110.922 105.051 110.683 105.051 110.444C105.051 110.205 104.812 109.966 104.573 109.966C103.139 109.966 101.944 110.803 101.107 111.878C100.988 112.117 100.988 112.357 101.227 112.476C101.346 112.715 101.466 112.715 101.585 112.715Z" fill="#263238"/>
<path d="M114.494 112.237C114.614 112.237 114.614 112.237 114.733 112.237C114.972 112.117 114.972 111.878 114.853 111.639C114.255 110.444 112.94 109.488 111.626 109.368C111.386 109.368 111.147 109.488 111.147 109.727C111.147 109.966 111.267 110.205 111.506 110.205C112.582 110.325 113.538 111.042 114.016 111.998C114.136 112.237 114.255 112.356 114.494 112.237Z" fill="#263238"/>
<path opacity="0.4" d="M81.9826 153.474C81.9826 153.474 82.4607 169.61 79.2334 177.141C77.9186 180.129 76.7234 181.683 75.6476 182.4C75.1695 179.412 74.5719 176.424 73.8547 173.555C73.3766 171.881 72.7789 170.089 72.0618 168.415L71.8227 164.71L81.9826 153.474Z" fill="black"/>
<path opacity="0.2" d="M84.8512 221.127C84.7317 221.605 84.4926 224.354 84.0145 226.028C83.2974 229.135 80.3091 233.08 77.9186 234.275C75.528 235.59 76.9624 224.354 76.9624 224.354L77.4405 220.529L84.8512 221.127Z" fill="black"/>
<path d="M75.0499 221.127L84.2536 225.31C83.6559 228.777 81.624 231.884 78.7553 233.797L77.9186 234.395C77.9186 234.395 68.954 225.908 70.1493 223.278L75.0499 221.127Z" fill="#FF8B7B"/>
<path d="M56.7621 193.396C56.7621 206.664 61.3042 211.565 65.1291 222.92C65.9658 225.191 68.3564 226.506 70.7469 226.028C75.1695 225.071 79.4725 221.844 76.7233 216.107C76.7233 216.107 74.0937 208.696 72.3008 194.114C72.0617 192.082 71.8227 190.05 72.3008 188.137C73.6156 182.519 78.9944 171.284 80.1897 163.753C81.2654 157.299 82.5802 149.29 79.592 146.661C65.3682 134.11 56.7621 168.056 56.7621 193.396Z" fill="#263238"/>
<path opacity="0.4" d="M73.018 140.565C73.4961 142.477 75.4085 143.553 77.2015 142.717C80.0701 141.282 88.0785 144.031 91.3058 143.314C91.3058 143.314 91.3058 139.011 91.3058 137.816C91.3058 136.501 80.5482 132.557 77.321 132.198C72.0618 131.72 72.0618 136.262 73.018 140.565Z" fill="black"/>
<path d="M113.299 108.412C109.833 106.5 105.649 107.217 102.302 108.89C99.3141 110.444 96.8041 112.835 94.4135 115.225C91.9034 117.735 89.3933 120.006 87.0028 122.397C86.2856 123.114 85.0903 122.875 84.7317 122.038C84.4927 121.441 84.1341 120.843 83.7755 120.245C83.5364 119.887 83.5364 119.528 83.656 119.05C83.895 118.094 84.2536 117.257 84.4927 116.301C82.3412 109.846 83.656 102.436 87.8394 97.1765C90.5886 93.5906 95.9674 93.5906 100.39 94.5468C104.812 95.5031 108.757 98.3717 111.147 102.197C111.984 101.838 113.06 102.316 113.777 102.914C114.614 103.511 115.092 104.348 115.45 105.185C115.809 106.022 115.929 107.097 115.45 107.934C114.853 108.651 114.016 108.89 113.299 108.412Z" fill="#FFCC33"/>
<path d="M106.844 100.882C107.442 101.479 107.92 102.555 108.279 103.272C106.605 103.392 104.812 103.631 103.259 104.348C102.9 103.511 102.422 102.675 101.824 101.957C103.498 101.479 105.051 101.24 106.844 100.882Z" fill="white"/>
<path d="M85.6879 284.477C78.2772 284.835 71.3446 285.313 63.8143 285.074C63.0971 276.349 64.1729 264.037 67.2806 255.79C73.4961 252.443 80.6678 254.714 87.3613 256.985L85.6879 284.477Z" fill="#FFCC33"/>
<path opacity="0.2" d="M87.2418 257.105L84.7317 258.181L81.2654 282.086L63.6948 283.162L63.8143 285.194L85.688 284.596L87.2418 257.105Z" fill="black"/>
<path opacity="0.2" d="M67.2806 255.79L66.2049 259.017L72.3008 261.288L82.3412 259.734L87.2418 256.866C87.2418 256.866 83.0583 254.714 76.7233 253.997C70.3884 253.519 67.2806 255.79 67.2806 255.79Z" fill="white"/>
</svg>
