<svg width="414" height="407" viewBox="0 0 414 407" fill="none" xmlns="http://www.w3.org/2000/svg">
<path d="M392.412 104.359C390.296 87.7841 386.152 71.9148 377.424 57.5442C361.29 30.6544 332.285 14.4324 302.838 6.23318C278.152 -0.643545 251.527 -2.6713 226.93 4.46992C199.863 12.3164 177.206 30.3017 152.872 44.4078C135.152 54.6348 116.373 63.1866 97.2415 70.5042C81.7248 76.4111 62.0644 79.7613 49.2807 91.0462C41.4342 97.9229 34.5575 105.946 28.6505 114.498C4.93463 149.234 -2.82373 193.492 0.879124 234.84C3.43586 263.67 11.3705 292.764 29.0913 315.598C54.0415 347.601 96.8007 363.382 137.179 359.415C183.024 354.919 226.401 327.5 271.981 334.112C294.639 337.374 316.327 349.012 339.161 346.896C361.643 344.78 380.863 329.263 394.44 311.19C405.284 296.731 412.601 279.186 413.218 260.937C413.924 241.188 405.019 223.203 400.523 204.336C392.765 171.363 396.732 137.596 392.412 104.359Z" fill="#FFD350"/>
<path d="M282.849 261.041H411.479V256.192H282.849V261.041Z" stroke="#263238" stroke-miterlimit="10" stroke-linecap="round" stroke-linejoin="round"/>
<path d="M288.756 392.153H405.484V261.143H288.756V392.153Z" stroke="#263238" stroke-miterlimit="10" stroke-linecap="round" stroke-linejoin="round"/>
<path d="M293.035 295.676H401.476V267.288H293.035V295.676Z" stroke="#263238" stroke-miterlimit="10" stroke-linecap="round" stroke-linejoin="round"/>
<path d="M341.987 284.127H352.831V278.925H341.987V284.127Z" fill="#263238" stroke="#263238" stroke-miterlimit="10" stroke-linecap="round" stroke-linejoin="round"/>
<path d="M293.035 331.608H401.476V303.219H293.035V331.608Z" stroke="#263238" stroke-miterlimit="10" stroke-linecap="round" stroke-linejoin="round"/>
<path d="M341.987 319.97H352.831V314.768H341.987V319.97Z" fill="#263238" stroke="#263238" stroke-miterlimit="10" stroke-linecap="round" stroke-linejoin="round"/>
<path d="M293.035 367.695H401.476V339.307H293.035V367.695Z" stroke="#263238" stroke-miterlimit="10" stroke-linecap="round" stroke-linejoin="round"/>
<path d="M341.987 356.057H352.831V350.856H341.987V356.057Z" fill="#263238" stroke="#263238" stroke-miterlimit="10" stroke-linecap="round" stroke-linejoin="round"/>
<path d="M352.474 198.87C353.796 199.487 356.97 199.399 356.97 199.399C356.97 199.399 356.265 197.283 356.177 197.195C355.472 195.696 353.267 193.316 351.416 193.492C350.094 193.668 349.388 194.991 349.653 196.225C350.094 197.459 351.416 198.341 352.474 198.87Z" fill="#263238"/>
<path d="M385.006 199.575C385.006 199.575 385.623 197.459 385.623 197.283C385.888 195.696 385.359 192.434 383.684 191.64C382.538 191.023 381.127 191.729 380.774 192.963C380.334 194.197 380.863 195.696 381.568 196.666C382.273 197.9 385.006 199.575 385.006 199.575Z" fill="#263238"/>
<path d="M394.616 187.938C392.765 187.761 390.649 190.23 389.943 191.729C389.855 191.817 389.238 194.021 389.238 194.021C388.885 194.374 388.533 194.814 388.18 195.343C387.475 196.225 386.681 197.195 385.888 198.341C385.094 199.487 384.213 200.721 383.507 202.132C382.714 203.542 382.009 205.041 381.48 206.716C381.48 206.716 381.48 206.716 381.48 206.805C381.48 206.276 381.48 204.777 381.48 204.689C381.303 203.102 379.893 200.016 378.13 199.751C376.807 199.487 375.749 200.545 375.661 201.779C375.573 203.102 376.454 204.336 377.424 205.129C378.482 206.011 381.303 206.981 381.568 206.981C381.039 208.568 380.686 210.243 380.334 211.918C380.157 212.888 379.981 213.858 379.893 214.916C379.893 214.475 379.893 214.034 379.893 213.946C379.716 212.359 378.306 209.273 376.543 209.009C375.22 208.744 374.162 209.802 374.074 211.036C373.986 212.359 374.867 213.593 375.837 214.475C376.719 215.268 379.187 216.15 379.805 216.326C379.716 216.679 379.716 217.12 379.628 217.472C379.452 219.324 379.187 221.175 378.923 222.938C378.835 223.556 378.747 224.173 378.57 224.79C378.57 224.349 378.57 223.996 378.57 223.996C378.394 222.409 376.983 219.324 375.22 219.059C373.898 218.795 372.84 219.853 372.752 221.087C372.663 222.409 373.545 223.644 374.515 224.437C375.396 225.231 377.601 226.024 378.394 226.2C378.218 226.818 378.13 227.435 377.953 228.052C377.865 228.493 377.777 228.845 377.601 229.286C377.512 229.727 377.336 230.08 377.248 230.52C376.983 231.314 376.719 232.019 376.366 232.813C376.19 233.342 376.014 233.782 375.749 234.311C375.837 233.694 376.014 232.46 376.014 232.372C376.014 231.314 375.661 229.551 374.868 228.316C374.868 228.14 374.868 227.964 374.868 227.876C374.691 226.641 373.457 225.671 372.223 226.024C370.459 226.465 369.313 229.639 369.225 231.226C369.225 231.314 369.313 232.372 369.313 233.077C369.225 232.724 369.137 232.284 369.049 231.931C368.872 231.138 368.696 230.344 368.432 229.551C368.343 229.11 368.167 228.757 368.079 228.316C367.991 227.876 367.814 227.523 367.638 227.082C367.285 226.112 366.845 225.142 366.492 224.261C367.197 224.084 369.578 223.467 370.547 222.762C371.517 222.057 372.575 220.822 372.575 219.5C372.575 218.266 371.517 217.12 370.195 217.296C368.343 217.472 366.756 220.382 366.492 221.969C366.492 222.057 366.404 223.203 366.316 223.908C366.051 223.379 365.787 222.762 365.522 222.233C364.729 220.558 363.847 218.971 362.965 217.296C362.701 216.767 362.436 216.326 362.172 215.797C362.436 215.709 365.346 215.092 366.404 214.21C367.374 213.505 368.432 212.271 368.432 210.948C368.432 209.714 367.374 208.568 366.051 208.744C364.2 208.92 362.613 211.83 362.348 213.417C362.348 213.505 362.172 215.268 362.172 215.621C361.555 214.475 361.026 213.417 360.497 212.271C359.792 210.772 359.174 209.185 358.734 207.686C358.822 207.686 361.908 206.981 362.965 206.099C363.935 205.394 364.993 204.16 364.993 202.837C364.993 201.603 363.935 200.457 362.613 200.633C360.761 200.809 359.174 203.719 358.91 205.306C358.91 205.394 358.734 206.716 358.734 207.333C358.645 207.333 358.645 207.333 358.645 207.333C358.116 205.658 357.852 203.983 357.676 202.396C357.588 201.515 357.499 200.633 357.499 199.751C358.116 199.663 360.673 199.311 361.819 198.694C362.877 198.076 364.023 196.93 364.112 195.696C364.2 194.462 363.318 193.227 361.996 193.227C360.144 193.227 358.293 195.96 357.764 197.459C357.764 197.547 357.587 198.429 357.411 199.046C357.411 198.694 357.411 198.253 357.411 197.9C357.411 196.489 357.499 195.255 357.588 194.109C357.676 193.492 357.676 192.875 357.764 192.346C358.293 191.993 360.409 190.494 361.026 189.436C361.643 188.378 362.172 186.88 361.731 185.645C361.29 184.499 359.88 183.794 358.734 184.411C357.147 185.293 356.706 188.555 356.97 190.142C356.97 190.318 357.588 192.434 357.676 192.434C357.588 192.963 357.499 193.492 357.499 194.109C357.411 195.255 357.235 196.489 357.235 197.9C357.235 199.311 357.235 200.809 357.323 202.396C357.499 203.983 357.676 205.658 358.116 207.333C358.116 207.333 358.116 207.334 358.116 207.422C357.852 206.981 356.97 205.747 356.882 205.658C355.824 204.424 353.003 202.661 351.328 203.366C350.094 203.895 349.741 205.306 350.358 206.452C350.975 207.598 352.474 208.127 353.708 208.303C355.031 208.48 357.94 207.686 358.205 207.598C358.645 209.185 359.263 210.86 359.968 212.447C360.321 213.329 360.761 214.298 361.202 215.18C360.938 214.827 360.673 214.475 360.673 214.387C359.615 213.152 356.794 211.389 355.119 212.094C353.885 212.623 353.532 214.034 354.149 215.18C354.766 216.326 356.265 216.855 357.499 217.031C358.734 217.208 361.202 216.591 361.819 216.326C361.996 216.679 362.172 217.031 362.348 217.384C363.142 219.059 364.023 220.646 364.817 222.321C365.081 222.938 365.346 223.467 365.61 224.085C365.346 223.732 365.17 223.467 365.17 223.379C364.112 222.145 361.29 220.382 359.615 221.087C358.381 221.616 358.028 223.027 358.645 224.173C359.263 225.319 360.761 225.848 361.996 226.024C363.142 226.2 365.434 225.583 366.227 225.407C366.492 226.024 366.668 226.641 366.933 227.17C367.021 227.611 367.197 227.964 367.285 228.405C367.374 228.845 367.55 229.198 367.638 229.639C367.814 230.432 367.991 231.226 368.167 232.019C368.255 232.548 368.432 233.077 368.52 233.606C368.255 232.989 367.726 231.931 367.638 231.843C366.756 230.432 364.288 228.316 362.525 228.757C361.202 229.11 360.673 230.432 361.114 231.667C361.555 232.901 362.965 233.694 364.112 234.047C365.434 234.4 368.255 234.047 368.608 234.047C368.784 234.929 368.961 235.722 369.049 236.516C369.313 238.279 369.578 239.778 369.754 241.1H362.525V256.264H381.48V241.1H374.162C374.603 240.042 375.132 238.808 375.661 237.485C376.014 236.692 376.366 235.81 376.719 234.929C377.072 235.017 379.893 235.546 381.215 235.281C382.45 235.017 383.86 234.311 384.389 233.165C384.918 232.019 384.477 230.609 383.155 230.168C381.392 229.551 378.747 231.578 377.777 232.901C377.689 232.989 377.16 233.871 376.895 234.488C377.072 234.135 377.16 233.782 377.336 233.342C377.601 232.548 377.865 231.843 378.13 230.961C378.218 230.52 378.394 230.168 378.482 229.727C378.57 229.286 378.659 228.845 378.835 228.493C379.099 227.523 379.276 226.465 379.452 225.495C380.157 225.76 382.45 226.553 383.684 226.465C384.918 226.377 386.417 225.936 387.122 224.878C387.827 223.82 387.563 222.321 386.417 221.704C384.83 220.822 381.832 222.409 380.686 223.556C380.598 223.644 379.893 224.525 379.452 225.054C379.54 224.437 379.628 223.82 379.716 223.203C379.981 221.351 380.157 219.5 380.334 217.737C380.422 217.208 380.422 216.591 380.51 216.062C380.774 216.15 383.507 217.208 384.918 217.12C386.152 217.031 387.651 216.591 388.356 215.533C389.062 214.475 388.797 212.976 387.651 212.359C386.064 211.477 383.067 213.064 381.921 214.21C381.832 214.298 380.774 215.621 380.51 215.973C380.598 214.739 380.774 213.505 380.951 212.271C381.215 210.596 381.568 209.009 382.009 207.422C382.097 207.422 385.006 208.568 386.417 208.48C387.651 208.391 389.15 207.951 389.855 206.893C390.561 205.835 390.296 204.336 389.15 203.719C387.563 202.837 384.565 204.424 383.419 205.57C383.331 205.658 382.538 206.628 382.185 207.157C382.097 207.157 382.185 207.157 382.097 207.069C382.626 205.394 383.331 203.895 384.036 202.485C384.477 201.691 384.918 200.898 385.359 200.192C385.888 200.457 388.268 201.603 389.503 201.691C390.737 201.779 392.324 201.427 393.117 200.457C393.911 199.487 393.823 197.988 392.765 197.283C391.266 196.225 388.18 197.459 386.858 198.517C386.77 198.605 386.152 199.222 385.712 199.663C385.888 199.311 386.152 198.958 386.329 198.694C387.122 197.547 387.827 196.489 388.533 195.608C388.974 195.079 389.326 194.638 389.679 194.285C390.296 194.285 392.941 194.197 394.087 193.668C395.233 193.139 396.467 192.169 396.732 190.935C396.732 189.348 395.938 188.026 394.616 187.938ZM374.427 236.868C373.81 238.367 373.104 239.689 372.575 240.924H370.636C370.459 239.601 370.195 237.926 369.754 236.163C369.578 235.281 369.401 234.4 369.137 233.43C369.313 233.342 370.547 232.813 371.605 232.284C372.575 233.342 374.956 234.488 375.22 234.664C375.132 235.369 374.779 236.163 374.427 236.868Z" fill="#263238"/>
<path d="M88.9541 138.39H10.1362V12.9336H107.733V138.39H94.1558" stroke="#263238" stroke-miterlimit="10"/>
<path d="M104.206 17.518H13.6627V133.893H104.206V17.518Z" stroke="#263238" stroke-miterlimit="10"/>
<path d="M31.8243 49.345C33.3231 50.7556 35.0864 52.0781 36.9378 53.4005C57.3917 67.3303 92.128 60.7181 103.854 80.4666" stroke="#263238" stroke-miterlimit="10"/>
<path d="M19.746 17.9588C19.746 17.9588 17.3655 33.5637 29.2676 46.7882" stroke="#263238" stroke-miterlimit="10"/>
<path d="M27.5044 82.0535C37.4668 76.7637 50.4268 73.0608 57.0391 83.7286C64.7093 96.1596 29.2677 118.112 29.2677 133.805" stroke="#263238" stroke-miterlimit="10"/>
<path d="M13.9272 91.0461C13.9272 91.0461 18.5117 87.2551 24.7713 83.5522" stroke="#263238" stroke-miterlimit="10"/>
<path d="M61.0945 17.9588C61.0945 17.9588 74.2308 38.4127 104.206 32.9465" stroke="#263238" stroke-miterlimit="10"/>
<path d="M65.0618 38.0601C65.15 38.5009 65.15 39.0298 65.15 39.5588C65.15 46.2592 59.772 51.6372 53.0716 51.6372C46.3712 51.6372 40.9933 46.2592 40.9933 39.5588C40.9933 32.8584 46.3712 27.4805 53.0716 27.4805C57.6561 27.4805 61.7116 30.1254 63.7394 33.9164" stroke="#263238" stroke-miterlimit="10"/>
<path d="M95.1255 55.7808C95.1255 58.9547 92.5687 61.4233 89.483 61.4233C86.3091 61.4233 83.8406 58.8665 83.8406 55.7808C83.8406 52.6069 86.3973 50.1384 89.483 50.1384C92.5687 50.1384 95.1255 52.6951 95.1255 55.7808Z" stroke="#263238" stroke-miterlimit="10"/>
<path d="M95.2137 94.0437C98.4758 94.9253 101.385 96.4241 103.942 98.4519" stroke="#263238" stroke-miterlimit="10"/>
<path d="M73.4374 133.982C68.7647 129.662 65.8553 123.578 65.8553 116.702C65.8553 103.742 76.3468 93.3384 89.2186 93.3384C89.6594 93.3384 90.1002 93.3384 90.541 93.3384" stroke="#263238" stroke-miterlimit="10"/>
<path d="M336.252 20.6039H158.339V350.246H336.252V20.6039Z" fill="white"/>
<path d="M336.252 293.998H158.339V350.246H336.252V293.998Z" fill="#DEDEDE"/>
<path d="M341.542 85.4038C342.776 85.4038 343.746 84.434 343.746 83.1997V61.2471C343.746 60.0128 342.776 59.043 341.542 59.043C341.365 59.043 341.277 59.043 341.101 59.043V17.959C341.101 10.1125 334.753 3.76471 326.907 3.76471H170.858C163.011 3.76471 156.664 10.1125 156.664 17.959V349.717C156.664 357.564 163.011 363.911 170.858 363.911H327.083C334.93 363.911 341.277 357.564 341.277 349.717V147.912C341.454 147.912 341.542 147.912 341.718 147.912C342.952 147.912 343.922 146.942 343.922 145.707V123.755C343.922 122.521 342.952 121.551 341.718 121.551C341.542 121.551 341.454 121.551 341.277 121.551V116.614C341.454 116.614 341.542 116.614 341.718 116.614C342.952 116.614 343.922 115.644 343.922 114.41V92.545C343.922 91.3108 342.952 90.341 341.718 90.341C341.542 90.341 341.454 90.341 341.277 90.341V85.4038C341.277 85.4038 341.454 85.4038 341.542 85.4038ZM332.99 342.576H164.863V28.2741H332.99V342.576Z" fill="#263238"/>
<path d="M327.259 31.5361H313.329V39.2063H327.259V31.5361Z" stroke="#263238" stroke-width="0.8211" stroke-miterlimit="10" stroke-linecap="round" stroke-linejoin="round"/>
<path d="M324.174 31.5361H313.329V39.2063H324.174V31.5361Z" fill="#263238" stroke="#263238" stroke-width="0.7251" stroke-miterlimit="10" stroke-linecap="round" stroke-linejoin="round"/>
<path d="M329.199 33.652H327.259V37.0022H329.199V33.652Z" fill="#263238" stroke="#263238" stroke-width="0.7251" stroke-miterlimit="10" stroke-linecap="round" stroke-linejoin="round"/>
<path d="M171.21 33.9166H168.654V38.3248H171.21V33.9166Z" fill="#263238" stroke="#263238" stroke-width="0.8831" stroke-miterlimit="10" stroke-linecap="round" stroke-linejoin="round"/>
<path d="M175.178 32.3297H172.621V38.2366H175.178V32.3297Z" fill="#263238" stroke="#263238" stroke-width="0.8831" stroke-miterlimit="10" stroke-linecap="round" stroke-linejoin="round"/>
<path d="M179.233 30.5663H176.677V38.3247H179.233V30.5663Z" fill="#263238" stroke="#263238" stroke-width="0.8831" stroke-miterlimit="10" stroke-linecap="round" stroke-linejoin="round"/>
<path d="M329.023 43.4382H167.596V85.8447H329.023V43.4382Z" fill="#FFE69A"/>
<path d="M208.327 49.5215V80.6431" stroke="white" stroke-miterlimit="10"/>
<path d="M249.499 49.5215V80.6431" stroke="white" stroke-miterlimit="10"/>
<path d="M290.672 49.5215V80.6431" stroke="white" stroke-miterlimit="10"/>
<path opacity="0.15" d="M339.69 147.912C339.867 147.912 339.955 147.912 340.131 147.912C341.365 147.912 342.335 146.942 342.335 145.707V137.861L331.491 156.992V342.576H226.312L214.234 363.911H325.672C333.519 363.911 339.867 357.564 339.867 349.717V147.912H339.69Z" fill="white"/>
<path d="M242.094 232.107C242.094 228.757 242.094 225.319 242.094 221.969C243.769 221.969 245.444 221.969 247.119 221.969C247.119 220.293 247.119 218.618 247.119 216.943C245.444 216.943 243.769 216.943 242.094 216.943C242.094 215.268 242.094 213.593 242.094 211.918C245.444 211.918 248.794 211.918 252.232 211.918C252.232 210.243 252.232 208.568 252.232 206.893C253.908 206.893 255.583 206.893 257.258 206.893C257.258 208.568 257.258 210.243 257.258 211.918C258.933 211.918 260.608 211.918 262.283 211.918C262.283 208.568 262.283 205.217 262.283 201.867C262.459 201.867 262.724 201.867 262.9 201.867C267.749 201.867 272.598 201.867 277.447 201.867C277.447 203.542 277.447 205.217 277.447 206.893C279.122 206.893 280.797 206.893 282.472 206.893C282.472 205.217 282.472 203.542 282.472 201.867C280.797 201.867 279.122 201.867 277.447 201.867C277.447 200.192 277.447 198.517 277.447 196.754C274.009 196.754 270.747 196.754 267.308 196.754C267.308 193.404 267.308 190.053 267.308 186.703C262.283 186.703 257.258 186.703 252.144 186.703C252.144 188.378 252.144 190.053 252.144 191.729C248.794 191.729 245.444 191.729 242.094 191.729C242.094 195.079 242.094 198.429 242.094 201.867C243.769 201.867 245.444 201.867 247.119 201.867C247.119 203.542 247.119 205.217 247.119 206.893C245.444 206.893 243.769 206.893 242.094 206.893C242.094 208.568 242.094 210.243 242.094 211.918C240.419 211.918 238.743 211.918 237.068 211.918C237.068 210.243 237.068 208.568 237.068 206.893C231.955 206.893 226.93 206.893 221.904 206.893C221.904 205.217 221.904 203.542 221.904 201.867C226.93 201.867 231.955 201.867 237.068 201.867C237.068 188.378 237.068 174.889 237.068 161.4C238.743 161.4 240.507 161.4 242.182 161.4C242.182 166.249 242.182 171.098 242.182 176.035C242.182 176.212 242.182 176.388 242.182 176.564C243.857 176.564 245.532 176.564 247.207 176.564C247.207 173.214 247.207 169.864 247.207 166.514C248.882 166.514 250.557 166.514 252.232 166.514C252.232 169.864 252.232 173.214 252.232 176.653C253.996 176.653 255.671 176.653 257.346 176.653C257.346 178.328 257.346 180.003 257.346 181.678C265.81 181.678 274.185 181.678 282.649 181.678C282.649 183.353 282.649 185.028 282.649 186.703C284.324 186.703 285.999 186.703 287.674 186.703C287.674 188.466 287.674 190.142 287.674 191.817C285.999 191.817 284.324 191.817 282.649 191.817C282.649 193.492 282.649 195.167 282.649 196.842C284.324 196.842 285.999 196.842 287.674 196.842C287.674 200.192 287.674 203.542 287.674 206.981C289.349 206.981 291.024 206.981 292.699 206.981C292.699 210.331 292.699 213.681 292.699 217.12C291.024 217.12 289.349 217.12 287.674 217.12C287.674 220.47 287.674 223.82 287.674 227.258C289.349 227.258 291.024 227.258 292.699 227.258C292.699 228.933 292.699 230.608 292.699 232.284C296.05 232.284 299.4 232.284 302.75 232.284C302.75 233.959 302.75 235.634 302.75 237.309C297.725 237.309 292.699 237.309 287.586 237.309C287.586 240.659 287.586 244.009 287.586 247.448C285.911 247.448 284.236 247.448 282.561 247.448C282.561 245.773 282.561 244.097 282.561 242.422C279.122 242.422 275.772 242.422 272.422 242.422C272.422 240.747 272.422 239.072 272.422 237.397C270.747 237.397 269.072 237.397 267.396 237.397C267.396 235.722 267.396 234.047 267.396 232.372C270.747 232.372 274.097 232.372 277.447 232.372C277.447 230.697 277.447 229.022 277.447 227.346C269.072 227.346 260.696 227.346 252.232 227.346C252.232 229.022 252.232 230.697 252.232 232.372C248.794 232.107 245.444 232.107 242.094 232.107ZM272.422 216.943C272.422 215.268 272.422 213.593 272.422 211.918C270.747 211.918 269.072 211.918 267.396 211.918C267.396 213.593 267.396 215.268 267.396 216.943C269.072 216.943 270.747 216.943 272.422 216.943C272.422 218.618 272.422 220.293 272.422 221.969C275.772 221.969 279.122 221.969 282.472 221.969C282.472 220.293 282.472 218.618 282.472 216.943C279.122 216.943 275.772 216.943 272.422 216.943ZM262.283 216.943C260.608 216.943 258.933 216.943 257.258 216.943C257.258 218.618 257.258 220.293 257.258 221.969C258.933 221.969 260.608 221.969 262.283 221.969C262.283 220.293 262.283 218.618 262.283 216.943ZM272.422 191.64C274.097 191.64 275.772 191.64 277.447 191.64C277.447 189.965 277.447 188.29 277.447 186.615C275.772 186.615 274.097 186.615 272.422 186.615C272.422 188.29 272.422 189.965 272.422 191.64Z" fill="#263238"/>
<path d="M196.602 176.476C196.602 164.662 196.602 152.937 196.602 141.123C208.415 141.123 220.141 141.123 231.955 141.123C231.955 152.849 231.955 164.662 231.955 176.476C220.141 176.476 208.415 176.476 196.602 176.476ZM201.627 146.148C201.627 154.612 201.627 162.987 201.627 171.363C210.09 171.363 218.466 171.363 226.841 171.363C226.841 162.899 226.841 154.524 226.841 146.148C218.466 146.148 210.09 146.148 201.627 146.148Z" fill="#263238"/>
<path d="M302.662 176.476C290.848 176.476 279.122 176.476 267.308 176.476C267.308 164.662 267.308 152.937 267.308 141.123C279.034 141.123 290.848 141.123 302.662 141.123C302.662 152.937 302.662 164.662 302.662 176.476ZM297.636 146.236C289.173 146.236 280.797 146.236 272.422 146.236C272.422 154.7 272.422 163.075 272.422 171.451C280.885 171.451 289.261 171.451 297.636 171.451C297.636 162.987 297.636 154.612 297.636 146.236Z" fill="#263238"/>
<path d="M196.602 211.918C208.415 211.918 220.141 211.918 231.955 211.918C231.955 223.732 231.955 235.458 231.955 247.271C220.229 247.271 208.415 247.271 196.602 247.271C196.602 235.458 196.602 223.732 196.602 211.918ZM226.93 216.943C218.466 216.943 210.09 216.943 201.715 216.943C201.715 225.407 201.715 233.782 201.715 242.158C210.179 242.158 218.554 242.158 226.93 242.158C226.93 233.782 226.93 225.407 226.93 216.943Z" fill="#263238"/>
<path d="M242.094 161.312C242.094 157.962 242.094 154.612 242.094 151.173C240.419 151.173 238.743 151.173 237.068 151.173C237.068 147.823 237.068 144.473 237.068 141.123C245.444 141.123 253.819 141.123 262.283 141.123C262.283 144.473 262.283 147.823 262.283 151.173C260.608 151.173 258.933 151.173 257.258 151.173C257.258 152.849 257.258 154.524 257.258 156.199C258.933 156.199 260.608 156.199 262.283 156.199C262.283 159.549 262.283 162.899 262.283 166.249C260.608 166.249 258.933 166.249 257.258 166.249C257.258 164.574 257.258 162.899 257.258 161.224C255.583 161.224 253.908 161.224 252.232 161.224C252.232 159.549 252.232 157.874 252.232 156.199C250.557 156.199 248.882 156.199 247.207 156.199C247.207 157.874 247.207 159.549 247.207 161.224C245.444 161.312 243.769 161.312 242.094 161.312ZM247.119 151.173C248.794 151.173 250.469 151.173 252.144 151.173C252.144 149.498 252.144 147.823 252.144 146.148C250.469 146.148 248.794 146.148 247.119 146.148C247.119 147.823 247.119 149.498 247.119 151.173Z" fill="#263238"/>
<path d="M221.816 186.615C221.816 188.29 221.816 189.965 221.816 191.64C225.166 191.64 228.517 191.64 231.867 191.64C231.867 193.315 231.867 194.991 231.867 196.666C226.841 196.666 221.816 196.666 216.703 196.666C216.703 200.016 216.703 203.366 216.703 206.804C209.914 206.804 203.214 206.804 196.513 206.804C196.513 203.454 196.513 200.104 196.513 196.754C198.188 196.754 199.864 196.754 201.539 196.754C201.539 198.429 201.539 200.104 201.539 201.779C204.889 201.779 208.239 201.779 211.677 201.779C211.677 196.754 211.677 191.729 211.677 186.615C215.116 186.615 218.466 186.615 221.816 186.615Z" fill="#263238"/>
<path d="M242.094 232.107C242.094 233.782 242.094 235.457 242.094 237.133C243.769 237.133 245.444 237.133 247.119 237.133C247.119 238.808 247.119 240.483 247.119 242.158C248.794 242.158 250.469 242.158 252.144 242.158C252.144 243.833 252.144 245.508 252.144 247.183C247.119 247.183 242.094 247.183 237.068 247.183C237.068 242.158 237.068 237.133 237.068 232.019C238.743 232.107 240.419 232.107 242.094 232.107Z" fill="#263238"/>
<path d="M211.766 186.615C208.415 186.615 205.065 186.615 201.627 186.615C201.627 188.29 201.627 189.965 201.627 191.64C199.952 191.64 198.277 191.64 196.602 191.64C196.602 188.29 196.602 184.94 196.602 181.59C201.627 181.59 206.652 181.59 211.766 181.59C211.766 183.265 211.766 184.94 211.766 186.615Z" fill="#263238"/>
<path d="M302.662 196.666C300.987 196.666 299.312 196.666 297.637 196.666C297.637 193.315 297.637 189.965 297.637 186.615C295.961 186.615 294.286 186.615 292.611 186.615C292.611 184.94 292.611 183.265 292.611 181.59C295.961 181.59 299.312 181.59 302.662 181.59C302.662 186.615 302.662 191.64 302.662 196.666Z" fill="#263238"/>
<path d="M221.904 186.615C221.904 184.94 221.904 183.265 221.904 181.59C225.254 181.59 228.605 181.59 231.955 181.59C231.955 183.265 231.955 184.94 231.955 186.615C228.605 186.615 225.254 186.615 221.904 186.615C221.816 186.615 221.904 186.615 221.904 186.615Z" fill="#263238"/>
<path d="M292.611 206.804C292.611 205.129 292.611 203.454 292.611 201.779C294.286 201.779 295.961 201.779 297.637 201.779C297.637 203.454 297.637 205.129 297.637 206.804C295.961 206.804 294.286 206.804 292.611 206.804Z" fill="#263238"/>
<path d="M297.725 211.918C299.4 211.918 301.075 211.918 302.75 211.918C302.75 213.593 302.75 215.268 302.75 216.943C301.075 216.943 299.4 216.943 297.725 216.943C297.725 215.268 297.725 213.593 297.725 211.918Z" fill="#263238"/>
<path d="M257.258 176.476C257.258 174.801 257.258 173.126 257.258 171.451C258.933 171.451 260.608 171.451 262.283 171.451C262.283 173.126 262.283 174.801 262.283 176.476C260.608 176.476 258.933 176.476 257.258 176.476Z" fill="#263238"/>
<path d="M242.094 221.969C240.419 221.969 238.743 221.969 237.068 221.969C237.068 220.293 237.068 218.618 237.068 216.943C238.743 216.943 240.419 216.943 242.094 216.943C242.094 218.618 242.094 220.293 242.094 221.969Z" fill="#263238"/>
<path d="M292.611 227.082C292.611 225.407 292.611 223.732 292.611 222.057C294.286 222.057 295.961 222.057 297.637 222.057C297.637 223.732 297.637 225.407 297.637 227.082C295.961 227.082 294.286 227.082 292.611 227.082Z" fill="#263238"/>
<path d="M287.586 191.64C289.261 191.64 290.936 191.64 292.611 191.64C292.611 193.316 292.611 194.991 292.611 196.666C290.936 196.666 289.261 196.666 287.586 196.666C287.586 195.079 287.586 193.316 287.586 191.64Z" fill="#263238"/>
<path d="M262.283 242.158C260.608 242.158 258.933 242.158 257.258 242.158C257.258 240.483 257.258 238.808 257.258 237.133C258.933 237.133 260.608 237.133 262.283 237.133C262.283 238.808 262.283 240.483 262.283 242.158Z" fill="#263238"/>
<path d="M272.422 242.246C272.422 243.921 272.422 245.596 272.422 247.271C270.747 247.271 269.072 247.271 267.397 247.271C267.397 245.596 267.397 243.921 267.397 242.246C269.072 242.246 270.747 242.246 272.422 242.246Z" fill="#263238"/>
<path d="M302.662 247.271C300.987 247.271 299.312 247.271 297.637 247.271C297.637 245.596 297.637 243.921 297.637 242.246C299.312 242.246 300.987 242.246 302.662 242.246C302.662 243.921 302.662 245.508 302.662 247.271Z" fill="#263238"/>
<path d="M262.283 201.779C260.608 201.779 258.933 201.779 257.258 201.779C257.258 200.104 257.258 198.429 257.258 196.754C258.933 196.754 260.608 196.754 262.283 196.754C262.283 198.429 262.283 200.104 262.283 201.779Z" fill="#263238"/>
<path d="M221.816 166.338C216.791 166.338 211.766 166.338 206.74 166.338C206.74 161.312 206.74 156.287 206.74 151.262C211.766 151.262 216.791 151.262 221.816 151.262C221.816 156.287 221.816 161.312 221.816 166.338Z" fill="#263238"/>
<path d="M277.447 166.338C277.447 161.312 277.447 156.287 277.447 151.262C282.472 151.262 287.498 151.262 292.523 151.262C292.523 156.287 292.523 161.312 292.523 166.338C287.586 166.338 282.561 166.338 277.447 166.338Z" fill="#263238"/>
<path d="M206.74 237.133C206.74 232.107 206.74 227.082 206.74 222.057C211.766 222.057 216.791 222.057 221.816 222.057C221.816 227.082 221.816 232.107 221.816 237.133C216.791 237.133 211.766 237.133 206.74 237.133Z" fill="#263238"/>
<path d="M211.237 129.133H189.196V153.554" stroke="#FFCC33" stroke-width="2" stroke-miterlimit="10"/>
<path d="M291.73 129.133H313.859V153.554" stroke="#FFCC33" stroke-width="2" stroke-miterlimit="10"/>
<path d="M211.237 257.763H189.196V233.342" stroke="#FFCC33" stroke-width="2" stroke-miterlimit="10"/>
<path d="M291.73 257.763H313.859V233.342" stroke="#FFCC33" stroke-width="2" stroke-miterlimit="10"/>
<path d="M143.968 159.725H136.65C135.328 159.725 134.27 158.667 134.27 157.345V136.803C134.27 135.481 135.328 134.423 136.65 134.423H143.968C145.29 134.423 146.348 135.481 146.348 136.803V157.345C146.26 158.667 145.29 159.725 143.968 159.725Z" fill="#263238" stroke="#263238" stroke-miterlimit="10"/>
<path d="M145.29 136.715H135.328V157.521H145.29V136.715Z" fill="white" stroke="#263238" stroke-miterlimit="10"/>
<path d="M38.3484 258.292C42.4039 258.38 46.0186 256.793 48.3108 255.383C48.1345 261.025 47.9582 265.257 47.9582 265.257C47.9582 265.257 48.928 266.932 49.3688 267.637C49.8096 268.342 53.9533 270.811 54.4823 272.927C54.9231 275.131 57.1271 276.277 56.8627 279.451C56.5982 282.625 53.9533 279.187 54.4823 279.892C54.9231 280.597 56.4218 283.066 56.4218 285.182C56.4218 287.298 51.8374 287.386 50.1623 285.887C48.4872 284.476 42.9329 281.038 42.4039 277.864L40.5525 270.811L38.3484 258.292Z" fill="white" stroke="#263238" stroke-miterlimit="10"/>
<path d="M48.399 275.836L49.5452 281.126C49.5452 281.126 53.3362 284.036 53.6888 286.151" fill="white"/>
<path d="M48.399 275.836L49.5452 281.126C49.5452 281.126 53.3362 284.036 53.6888 286.151" stroke="#263238" stroke-miterlimit="10"/>
<path d="M54.5704 280.068L52.8071 276.718" stroke="#263238" stroke-miterlimit="10"/>
<path d="M67.5305 387.539C67.5305 387.539 66.1198 398.912 67.266 400.235C68.3239 401.645 69.999 403.32 72.4676 403.585C74.9362 403.849 79.0798 402.527 79.0798 402.527C79.0798 402.527 83.2235 403.761 87.6317 403.32C92.0398 402.879 94.9492 401.204 95.3019 399C95.5663 396.884 91.7753 395.915 89.6594 393.622C87.5435 391.33 84.1051 387.275 84.1051 387.275L83.2235 384.277C83.2235 384.277 78.0219 386.922 74.6717 387.01C71.3215 387.186 69.0292 386.569 69.0292 386.569L67.5305 387.539Z" fill="white" stroke="#263238" stroke-miterlimit="10"/>
<path d="M95.2136 399.088C95.2136 398.824 95.2136 398.559 95.1255 398.295C94.0675 398.736 92.8332 399.265 91.2463 399.794C86.6618 401.469 84.3695 400.058 82.0773 400.058C79.7851 400.058 79.6087 402.527 73.1728 400.852C68.941 399.794 67.3541 398.295 66.8251 397.501C66.8251 398.824 66.9132 399.882 67.2659 400.234C68.3238 401.645 69.9989 403.32 72.4675 403.585C74.9361 403.849 79.0798 402.527 79.0798 402.527C79.0798 402.527 83.2234 403.761 87.6316 403.32C92.0397 402.879 94.9491 401.204 95.2136 399.088Z" fill="white" stroke="#263238" stroke-miterlimit="10"/>
<path d="M59.3313 246.742C59.3313 246.742 53.1599 267.461 55.3639 282.008C57.568 296.555 68.1476 323.885 68.1476 323.885C68.1476 323.885 66.8252 334.024 66.8252 337.551C66.8252 341.077 63.7394 347.689 65.9435 354.742C68.1476 361.795 68.1476 380.31 68.1476 381.632C68.1476 382.955 67.266 390.008 67.266 390.008C67.266 390.008 69.0292 392.653 75.6415 392.653C82.2537 392.653 84.017 387.363 84.017 387.363C84.017 387.363 90.6292 348.13 90.6292 341.959C90.6292 335.787 97.6823 312.865 100.327 303.608C102.972 294.351 106.234 288.444 107.997 285.358C109.761 282.272 108.703 244.979 108.703 244.979L58.4496 240.571L59.3313 246.742Z" fill="#737373" stroke="#263238" stroke-miterlimit="10"/>
<path d="M93.9794 390.448C93.9794 390.448 100.592 393.093 103.766 394.592C106.939 396.091 109.144 396.267 109.144 398.736C109.144 401.204 103.325 403.673 99.7982 404.29C96.2717 404.907 90.6292 404.731 90.0121 404.907C89.3949 405.084 77.9337 406.759 76.5231 403.849C75.1125 400.94 76.6994 390.977 76.6994 390.977C76.6994 390.977 84.6341 392.653 93.9794 390.448Z" fill="white" stroke="#263238" stroke-miterlimit="10"/>
<path d="M90.0121 404.907C90.6292 404.731 96.2716 404.907 99.7982 404.29C103.325 403.673 109.143 401.204 109.143 398.736C109.143 398.383 109.055 398.03 108.967 397.766C107.733 398.471 106.146 399.265 104.383 400.058C100.063 401.91 94.4202 403.144 85.8684 402.968C81.1957 402.879 78.0219 402.262 76.0823 401.733C76.1704 402.527 76.3468 403.232 76.5231 403.761C77.9337 406.759 89.3949 405.084 90.0121 404.907Z" fill="white" stroke="#263238" stroke-miterlimit="10"/>
<path d="M109.143 248.506C109.143 248.506 111.788 284.212 106.499 311.102C101.209 337.991 92.3925 374.579 91.9517 376.342C91.5109 378.106 95.0374 382.955 95.0374 382.955V390.008C95.0374 390.008 91.9517 393.093 84.8986 393.975C77.8456 394.857 75.6415 392.653 75.6415 392.653C75.6415 392.653 73.8782 380.751 73.8782 372.375C73.8782 364 75.6415 335.346 75.6415 335.346C75.6415 335.346 79.6088 306.253 79.168 301.844C78.7272 297.436 77.4047 283.771 77.4047 283.771L70.3517 275.396" fill="#737373"/>
<path d="M109.143 248.506C109.143 248.506 111.788 284.212 106.499 311.102C101.209 337.991 92.3925 374.579 91.9517 376.342C91.5109 378.106 95.0374 382.955 95.0374 382.955V390.008C95.0374 390.008 91.9517 393.093 84.8986 393.975C77.8456 394.857 75.6415 392.653 75.6415 392.653C75.6415 392.653 73.8782 380.751 73.8782 372.375C73.8782 364 75.6415 335.346 75.6415 335.346C75.6415 335.346 79.6088 306.253 79.168 301.844C78.7272 297.436 77.4047 283.771 77.4047 283.771L70.3517 275.396" stroke="#263238" stroke-miterlimit="10"/>
<path d="M34.9982 241.805L48.8399 239.337C48.7517 241.188 49.1925 229.374 49.1925 228.493C49.1925 226.553 53.777 214.475 53.777 214.475C53.777 214.475 57.3917 230.256 57.3917 232.196C57.3917 234.135 55.9811 248.947 57.8325 250.886C59.7721 252.826 66.5607 256.705 81.5484 256.176C96.5362 255.735 107.733 254.501 110.642 251.591C113.552 248.682 110.113 239.689 109.937 238.543C109.672 237.309 113.816 205.57 113.816 205.57C113.816 205.57 130.038 222.498 139.736 220.117C149.434 217.737 144.85 179.915 144.85 179.915L145.29 168.983C145.29 168.983 148.464 160.96 148.464 159.814C148.464 158.579 145.29 149.851 145.29 149.851C145.29 149.851 143.351 148.176 142.117 152.232C140.882 156.375 140.706 159.02 140.706 159.02C140.706 159.02 137.797 161.224 138.061 164.31C138.326 167.484 139.295 169.864 139.295 169.864L132.771 191.2C132.771 191.2 125.542 183.001 125.013 181.502C124.484 180.091 124.748 174.713 118.753 171.539C112.67 168.365 100.327 168.189 100.327 168.189L66.208 168.365C66.208 168.365 50.2505 169.776 46.5476 172.95C42.9329 176.124 31.7362 216.062 31.7362 222.145C31.7362 223.996 32.706 229.903 34.1166 237.133L34.9982 241.805Z" fill="white" stroke="#263238" stroke-miterlimit="10"/>
<path d="M145.467 149.675C145.467 149.675 144.761 155.758 145.202 156.904C145.731 158.138 146.172 161.048 145.731 163.428" stroke="#263238" stroke-miterlimit="10"/>
<path d="M139.912 219.941C149.61 217.561 145.026 179.738 145.026 179.738L145.114 177.27C142.381 175.242 139.648 175.242 137.62 175.771L132.948 191.112C132.948 191.112 125.718 182.912 125.189 181.414C124.66 180.003 124.925 174.625 118.93 171.451C112.846 168.277 100.504 168.101 100.504 168.101L66.208 168.365C66.208 168.365 50.2505 169.776 46.5476 172.95C42.9329 176.124 31.7362 216.062 31.7362 222.145C31.7362 225.76 35.3509 243.657 38.3484 258.292C42.404 258.38 46.0186 256.793 48.3109 255.383C48.6635 244.891 49.1925 229.639 49.1925 228.405C49.1925 226.465 53.777 214.387 53.777 214.387C53.777 214.387 57.3917 230.168 57.3917 232.107C57.3917 234.047 55.9811 248.858 57.8325 250.798C59.7721 252.738 66.5607 256.617 81.5484 256.088C96.5362 255.647 107.733 254.413 110.642 251.503C113.552 248.594 110.113 239.601 109.937 238.455C109.672 237.221 113.816 205.482 113.816 205.482C113.816 205.482 130.214 222.409 139.912 219.941Z" fill="#CB8404" stroke="#263238" stroke-miterlimit="10"/>
<path d="M49.1043 201.074L53.8651 214.387L43.9908 197.636" fill="#CB8404"/>
<path d="M49.1043 201.074L53.8651 214.387L43.9908 197.636" stroke="#263238" stroke-miterlimit="10"/>
<path d="M46.3712 193.492L48.0463 198.253" stroke="#263238" stroke-miterlimit="10"/>
<path d="M79.9614 201.956C82.0773 206.805 85.2512 212.8 89.0422 216.679L79.9614 201.956Z" fill="#CB8404"/>
<path d="M79.9614 201.956C82.0773 206.805 85.2512 212.8 89.0422 216.679" stroke="#263238" stroke-miterlimit="10"/>
<path d="M76.9639 194.373C76.9639 194.373 77.6692 196.401 78.8153 199.222L76.9639 194.373Z" fill="#CB8404"/>
<path d="M76.9639 194.373C76.9639 194.373 77.6692 196.401 78.8153 199.222" stroke="#263238" stroke-miterlimit="10"/>
<path d="M82.2537 210.596C82.2537 210.596 87.5435 221.175 90.1883 223.203L82.2537 210.596Z" fill="#CB8404"/>
<path d="M82.2537 210.596C82.2537 210.596 87.5435 221.175 90.1883 223.203" stroke="#263238" stroke-miterlimit="10"/>
<path d="M122.28 197.724L124.219 195.872" stroke="#263238" stroke-miterlimit="10"/>
<path d="M118.93 194.991L113.992 205.394L120.428 199.399" fill="#CB8404"/>
<path d="M118.93 194.991L113.992 205.394L120.428 199.399" stroke="#263238" stroke-miterlimit="10"/>
<path d="M141.852 200.898C141.587 198.87 132.859 191.111 132.859 191.111C132.859 191.111 141.852 194.726 144.232 197.9" fill="#CB8404"/>
<path d="M141.852 200.898C141.587 198.87 132.859 191.111 132.859 191.111C132.859 191.111 141.852 194.726 144.232 197.9" stroke="#263238" stroke-miterlimit="10"/>
<path d="M103.766 136.362C103.766 136.362 104.206 142.445 105 143.415C105.705 144.385 106.234 151.879 105 154.083C103.766 156.287 103.06 158.932 102.355 159.637C101.65 160.343 99.0048 160.343 98.035 160.343C97.0652 160.343 86.1329 159.814 86.1329 159.814L86.3974 144.561C86.3093 144.561 88.9542 133.188 103.766 136.362Z" fill="white" stroke="#263238" stroke-miterlimit="10"/>
<path d="M84.3696 119.347C84.3696 119.347 74.4072 122.521 72.2913 131.249C70.0872 139.977 77.1402 149.939 77.1402 149.939C77.1402 149.939 79.0798 156.992 80.7549 158.403C82.43 159.814 89.2186 158.403 91.4227 157.962C93.6268 157.521 98.4757 144.385 98.4757 144.385C98.4757 144.385 98.4757 147.559 99.8864 147.559C101.297 147.559 101.121 143.415 101.121 142.71C101.121 142.005 107.909 136.891 107.909 128.163C107.909 119.435 100.415 115.556 93.3623 116.085C86.3092 116.437 84.3696 119.347 84.3696 119.347Z" fill="#263238" stroke="#263238" stroke-miterlimit="10"/>
<path d="M105 167.572C105 167.572 103.589 162.458 102.796 161.753C102.09 161.048 97.5059 158.138 89.9239 157.609C82.43 157.169 71.2333 157.345 70.2635 157.874C69.2937 158.315 69.0292 162.458 69.0292 162.458C69.0292 162.458 65.8554 165.368 65.15 167.043C64.4447 168.718 63.7394 169.423 70.4398 175.066C77.2284 180.62 80.8431 182.824 87.8961 181.149C94.9492 179.474 105.088 169.247 105.088 169.247L105 167.572Z" fill="#CB8404" stroke="#263238" stroke-miterlimit="10"/>
<path d="M87.6317 171.01C94.4203 168.894 101.297 164.662 101.297 164.662L87.6317 171.01Z" fill="#CB8404"/>
<path d="M87.6317 171.01C94.4203 168.894 101.297 164.662 101.297 164.662" stroke="#263238" stroke-miterlimit="10"/>
<path d="M69.1174 163.516C69.1174 163.516 73.4374 172.245 81.1958 172.245C82.1656 172.245 83.2235 172.156 84.3697 171.892" fill="#CB8404"/>
<path d="M69.1174 163.516C69.1174 163.516 73.4374 172.245 81.1958 172.245C82.1656 172.245 83.2235 172.156 84.3697 171.892" stroke="#263238" stroke-miterlimit="10"/>
</svg>
