<svg width="106" height="106" viewBox="0 0 106 106" fill="none" xmlns="http://www.w3.org/2000/svg">
<path fill-rule="evenodd" clip-rule="evenodd" d="M52.9999 100.7C79.3434 100.7 100.7 79.3434 100.7 52.9999C100.7 26.6563 79.3434 5.29999 52.9999 5.29999C26.6563 5.29999 5.29999 26.6563 5.29999 52.9999C5.29999 79.3434 26.6563 100.7 52.9999 100.7ZM52.9999 106C82.2717 106 106 82.2717 106 52.9999C106 23.728 82.2717 0 52.9999 0C23.728 0 0 23.728 0 52.9999C0 82.2717 23.728 106 52.9999 106Z" fill="black"/>
<path d="M21.2 83.8193C21.2 81.0818 23.2457 78.7684 25.9699 78.4663C46.4146 76.2032 59.6778 76.4073 80.0775 78.5166C81.0962 78.6236 82.0617 79.0249 82.856 79.6716C83.6504 80.3182 84.2392 81.1822 84.5506 82.1581C84.862 83.1339 84.8825 84.1792 84.6096 85.1665C84.3366 86.1537 83.7821 87.0401 83.0137 87.7174C58.9385 108.703 45.1797 108.414 22.8959 87.7386C21.8095 86.7316 21.2 85.3006 21.2 83.8219V83.8193Z" fill="black"/>
<path fill-rule="evenodd" clip-rule="evenodd" d="M79.8047 81.1507C59.5667 79.0572 46.4942 78.8611 26.2589 81.1004C24.8968 81.2514 23.85 82.4148 23.85 83.8219C23.85 84.5798 24.1654 85.298 24.698 85.7962C35.7432 96.041 44.1119 100.671 52.2924 100.7C60.5021 100.729 69.3213 96.1364 81.2727 85.722C81.6524 85.384 81.9258 84.9431 82.0595 84.4527C82.1933 83.9623 82.1817 83.4436 82.0262 82.9597C81.8707 82.4758 81.5779 82.0474 81.1836 81.7268C80.7892 81.4061 80.3101 81.2069 79.8047 81.1534V81.1507ZM25.6785 75.8322C46.3379 73.5453 59.7946 73.752 80.3532 75.8799C81.8857 76.0399 83.3383 76.6432 84.5332 77.616C85.7281 78.5888 86.6134 79.8889 87.0808 81.3571C87.5482 82.8253 87.5773 84.398 87.1647 85.8825C86.752 87.3671 85.9155 88.6991 84.7575 89.7155C72.6338 100.284 62.5373 106.039 52.2765 106C41.9866 105.963 32.3353 100.109 21.0967 89.6811C20.292 88.9316 19.6506 88.0242 19.2124 87.0156C18.7742 86.007 18.5488 84.9189 18.5501 83.8193C18.5462 81.8435 19.2714 79.9358 20.5868 78.4615C21.9021 76.9873 23.7151 76.0501 25.6785 75.8296V75.8322Z" fill="black"/>
<path d="M74.1997 42.3999C74.1997 48.0225 71.9661 53.4148 67.9904 57.3905C64.0146 61.3663 58.6223 63.5998 52.9997 63.5998C47.3772 63.5998 41.9849 61.3663 38.0091 57.3905C34.0334 53.4148 31.7998 48.0225 31.7998 42.3999C31.7998 36.7773 34.0334 31.385 38.0091 27.4093C41.9849 23.4335 47.3772 21.1999 52.9997 21.1999C58.6223 21.1999 64.0146 23.4335 67.9904 27.4093C71.9661 31.385 74.1997 36.7773 74.1997 42.3999V42.3999Z" fill="black"/>
<path fill-rule="evenodd" clip-rule="evenodd" d="M52.9997 58.2998C57.2167 58.2998 61.2609 56.6247 64.2427 53.6429C67.2245 50.661 68.8997 46.6168 68.8997 42.3999C68.8997 38.183 67.2245 34.1387 64.2427 31.1569C61.2609 28.1751 57.2167 26.4999 52.9997 26.4999C48.7828 26.4999 44.7386 28.1751 41.7568 31.1569C38.775 34.1387 37.0998 38.183 37.0998 42.3999C37.0998 46.6168 38.775 50.661 41.7568 53.6429C44.7386 56.6247 48.7828 58.2998 52.9997 58.2998V58.2998ZM52.9997 63.5998C58.6223 63.5998 64.0146 61.3663 67.9904 57.3905C71.9661 53.4148 74.1997 48.0225 74.1997 42.3999C74.1997 36.7773 71.9661 31.385 67.9904 27.4093C64.0146 23.4335 58.6223 21.1999 52.9997 21.1999C47.3772 21.1999 41.9849 23.4335 38.0091 27.4093C34.0334 31.385 31.7998 36.7773 31.7998 42.3999C31.7998 48.0225 34.0334 53.4148 38.0091 57.3905C41.9849 61.3663 47.3772 63.5998 52.9997 63.5998V63.5998Z" fill="black"/>
</svg>
