<svg width="18" height="18" viewBox="0 0 18 18" fill="none" xmlns="http://www.w3.org/2000/svg">
<path d="M14.5413 6.92447H13.1579C13.1573 6.37427 12.9385 5.84675 12.5494 5.4577C12.1604 5.06864 11.6329 4.84983 11.0827 4.84928V3.46582C11.9996 3.46692 12.8787 3.83166 13.5271 4.48005C14.1755 5.12843 14.5402 6.00752 14.5413 6.92447Z" fill="#2688FF"/>
<path d="M17.3082 6.92479H15.9248C15.9233 5.64103 15.4127 4.41027 14.5049 3.50252C13.5972 2.59476 12.3664 2.08414 11.0827 2.08268V0.699219C12.7332 0.70105 14.3157 1.35754 15.4828 2.52467C16.6499 3.69179 17.3064 5.27423 17.3082 6.92479Z" fill="#2688FF"/>
<path d="M15.9248 17.9923H15.8072C2.21472 17.2107 0.28479 5.74177 0.0150153 2.24161C-0.0271483 1.6929 0.150375 1.1499 0.508539 0.732067C0.866702 0.314231 1.37617 0.0557762 1.92488 0.0135505C1.97976 0.0094001 2.03487 0.00732487 2.09021 0.00732487H5.73562C6.0127 0.00705664 6.28348 0.0899933 6.51287 0.245392C6.74227 0.400791 6.91972 0.621491 7.02224 0.878905L8.07367 3.46598C8.17491 3.71745 8.20003 3.99313 8.14592 4.25876C8.09181 4.52439 7.96085 4.76828 7.76931 4.96011L6.29593 6.44733C6.52514 7.75562 7.15117 8.96176 8.08912 9.90219C9.02707 10.8426 10.2316 11.4718 11.5392 11.7045L13.0403 10.2173C13.235 10.0278 13.4812 9.89993 13.7481 9.8495C14.0151 9.79906 14.2909 9.82833 14.5414 9.93365L17.1492 10.9782C17.4027 11.0839 17.619 11.2628 17.7705 11.4919C17.9221 11.721 18.0019 11.9901 18 12.2648V15.9171C18 16.4675 17.7814 16.9953 17.3922 17.3845C17.003 17.7737 16.4752 17.9923 15.9248 17.9923ZM2.09021 1.39079C1.99937 1.39051 1.90936 1.40813 1.82533 1.44265C1.7413 1.47716 1.6649 1.52788 1.60047 1.59192C1.53604 1.65596 1.48486 1.73206 1.44985 1.81588C1.41483 1.8997 1.39667 1.9896 1.3964 2.08044C1.3964 2.09981 1.39709 2.11895 1.39848 2.13785C1.71667 6.2329 3.75728 15.9171 15.8833 16.6088C16.0664 16.6198 16.2463 16.5576 16.3836 16.436C16.5208 16.3143 16.6041 16.1431 16.6152 15.96L16.6165 15.9171V12.2648L14.0087 11.2203L12.0235 13.1917L11.6914 13.1502C5.67337 12.3962 4.85713 6.37816 4.85713 6.3159L4.81562 5.98387L6.78014 3.99861L5.74254 1.39079H2.09021Z" fill="#2688FF"/>
</svg>
