<svg width="30" height="23" viewBox="0 0 30 23" fill="none" xmlns="http://www.w3.org/2000/svg">
<path fill-rule="evenodd" clip-rule="evenodd" d="M10.3794 0.965576C10.6553 0.965576 10.9311 1.24144 10.9311 1.5173H11.0001V2.27592H3.55184V1.5173C3.55184 1.24144 3.8277 0.965576 4.10356 0.965576H10.3794ZM11.8966 3.17268H28.1035C29.0691 3.17268 29.8277 3.9313 29.8277 4.82785V21.2417C29.8277 22.1382 29.0691 22.8968 28.1725 22.8968H2.17251C1.27595 22.8968 0.517334 22.1382 0.517334 21.2417V4.82785C0.517334 3.9313 1.27595 3.17268 2.17251 3.17268H2.5863H11.8966ZM15.138 19.3106C16.8622 19.3106 18.4484 18.621 19.6208 17.4485C20.7932 16.2761 21.4829 14.6899 21.4829 12.9658C21.4829 11.2416 20.8622 9.65544 19.6208 8.48303C18.3794 7.31061 16.8622 6.62095 15.138 6.62095C13.4139 6.62095 11.8277 7.24165 10.6553 8.48303C9.48285 9.72441 8.7932 11.2416 8.7932 12.9658C8.7932 14.6899 9.41389 16.2761 10.6553 17.4485C11.8966 18.621 13.4139 19.3106 15.138 19.3106Z" fill="#FAFAFA"/>
</svg>
