<svg width="26" height="27" viewBox="0 0 26 27" fill="none" xmlns="http://www.w3.org/2000/svg">
<path d="M3.4375 3.49316H6.625V6.73651H3.4375V3.49316Z" fill="white"/>
<path d="M9.8125 0.25V9.98002H0.25V0.25H9.8125ZM8.21875 1.87167H1.84375V8.35835H8.21875V1.87167ZM6.625 19.71H3.4375V22.9534H6.625V19.71Z" fill="white"/>
<path d="M9.8125 16.4665V26.1965H0.25V16.4665H9.8125ZM1.84375 18.0882V24.5749H8.21875V18.0882H1.84375ZM19.375 3.49316H22.5625V6.7365H19.375V3.49316Z" fill="white"/>
<path d="M16.1875 0.25V9.98002H25.75V0.25H16.1875ZM24.1562 1.87167V8.35835H17.7812V1.87167H24.1562ZM13 1.87167V0.25H14.5938V3.49334H13V6.73668H11.4062V1.87167H13ZM13 9.98002V6.73668H14.5938V9.98002H13ZM9.8125 13.2234V11.6017H11.4062V9.98002H13V13.2234H14.5938V11.6017H22.5625V13.2234H16.1875V14.845H11.4062V13.2234H9.8125ZM9.8125 13.2234V14.845H3.4375V13.2234H1.84375V14.845H0.25V11.6017H5.03125V13.2234H9.8125ZM25.75 14.845H24.1562V11.6017H25.75V14.845ZM24.1562 14.845H22.5625V18.0884H25.75V16.4667H24.1562V14.845ZM17.7812 14.845H20.9688V16.4667H19.375V18.0884H17.7812V14.845ZM20.9688 19.71V18.0884H19.375V19.71H17.7812V21.3317H14.5938V22.9534H19.375V19.71H20.9688ZM20.9688 19.71H25.75V21.3317H22.5625V22.9534H20.9688V19.71ZM14.5938 18.0884V19.71H16.1875V16.4667H11.4062V18.0884H14.5938Z" fill="white"/>
<path d="M11.4062 19.71H13V24.5749H19.375V26.1966H11.4062V19.71ZM25.75 22.9533V26.1966H20.9688V24.5749H24.1562V22.9533H25.75Z" fill="white"/>
</svg>
