<svg width="5" height="10" viewBox="0 0 5 10" fill="none" xmlns="http://www.w3.org/2000/svg">
<path d="M0.829615 9.31813C0.936345 9.31847 1.0418 9.29652 1.13823 9.25391C1.23466 9.2113 1.31962 9.1491 1.38686 9.07189L4.83748 5.07876C4.94256 4.95968 5 4.81031 5 4.65615C5 4.502 4.94256 4.35263 4.83748 4.23355L1.26541 0.240421C1.14414 0.104511 0.969891 0.0190414 0.780981 0.00281615C0.592071 -0.0134091 0.403979 0.0409387 0.258083 0.153903C0.112188 0.266868 0.0204399 0.429196 0.00302267 0.605177C-0.0143946 0.781159 0.0439456 0.956377 0.165209 1.09229L3.35864 4.65948L0.272372 8.22668C0.185011 8.32436 0.129518 8.44332 0.112458 8.56947C0.0953979 8.69562 0.117485 8.82368 0.176107 8.9385C0.234729 9.05332 0.327432 9.1501 0.443245 9.21737C0.559059 9.28465 0.693138 9.31962 0.829615 9.31813Z" fill="#2783FF"/>
</svg>
