<svg width="14" height="13" viewBox="0 0 14 13" fill="none" xmlns="http://www.w3.org/2000/svg">
<path d="M13.963 4.63939C13.919 4.51979 13.838 4.41469 13.73 4.33707C13.6221 4.25946 13.4918 4.21273 13.3554 4.20265L9.36467 3.90998L7.63776 0.381805C7.58277 0.26817 7.49331 0.171653 7.38019 0.103904C7.26708 0.0361547 7.13513 6.84051e-05 7.00029 9.71548e-08C6.86544 -6.82107e-05 6.73345 0.0358845 6.62025 0.103519C6.50706 0.171154 6.41749 0.26758 6.36236 0.381159L4.63545 3.90998L0.644722 4.20265C0.51064 4.21246 0.382457 4.2577 0.275508 4.33298C0.16856 4.40826 0.087374 4.51039 0.0416638 4.62714C-0.00404629 4.74389 -0.0123452 4.87032 0.0177599 4.99131C0.0478651 5.1123 0.1151 5.22272 0.21142 5.30937L3.16054 7.96277L2.11753 12.1312C2.08586 12.2574 2.09601 12.3894 2.14666 12.5102C2.19732 12.631 2.28614 12.7349 2.40159 12.8086C2.51705 12.8822 2.65382 12.9221 2.79414 12.9231C2.93447 12.924 3.07188 12.8861 3.18854 12.8141L7.00006 10.4689L10.8116 12.8141C10.9308 12.8872 11.0714 12.9248 11.2145 12.9219C11.3576 12.919 11.4963 12.8757 11.612 12.7979C11.7276 12.7201 11.8147 12.6114 11.8614 12.4866C11.9082 12.3617 11.9124 12.2267 11.8735 12.0995L10.5932 7.96471L13.7684 5.32746C13.9763 5.15431 14.0526 4.88425 13.963 4.63939Z" fill="#F5C324"/>
</svg>
