<svg width="14" height="14" viewBox="0 0 14 14" fill="none" xmlns="http://www.w3.org/2000/svg">
<path d="M2.11753 12.643C2.09355 12.7387 2.09312 12.8381 2.11627 12.934C2.13942 13.0298 2.18556 13.1195 2.25122 13.1964C2.31688 13.2733 2.40036 13.3353 2.49541 13.3778C2.59045 13.4203 2.6946 13.4423 2.80003 13.442C2.93831 13.442 3.07349 13.4039 3.18854 13.3324L7.00006 10.9649L10.8116 13.3324C10.9308 13.4061 11.0714 13.4441 11.2145 13.4412C11.3576 13.4383 11.4963 13.3946 11.612 13.316C11.7276 13.2375 11.8147 13.1278 11.8614 13.0018C11.9082 12.8757 11.9124 12.7394 11.8735 12.611L10.5932 8.4369L13.7684 5.77458C13.8701 5.68926 13.9427 5.57805 13.9773 5.45468C14.0119 5.33131 14.0069 5.20121 13.9629 5.08046C13.919 4.95971 13.838 4.85361 13.73 4.77528C13.6221 4.69695 13.4918 4.64983 13.3554 4.63974L9.36467 4.34363L7.63776 0.781919C7.58277 0.667203 7.49331 0.569769 7.38019 0.501376C7.26708 0.432983 7.13513 0.396553 7.00029 0.396484C6.86544 0.396416 6.73345 0.43271 6.62025 0.500987C6.50706 0.569265 6.41749 0.666607 6.36235 0.781267L4.63544 4.34363L0.644722 4.63908C0.51064 4.64898 0.382457 4.69466 0.275508 4.77065C0.16856 4.84665 0.087374 4.94975 0.0416638 5.0676C-0.00404629 5.18546 -0.0123452 5.3131 0.0177599 5.43524C0.0478651 5.55738 0.1151 5.66885 0.21142 5.75632L3.16124 8.43494L2.11753 12.643ZM7.00006 2.63419L8.42947 5.58283L8.84107 5.61348H8.84177L11.6222 5.81893L9.33247 7.73903L9.33177 7.74034L9.00767 8.01166L9.12737 8.40103V8.40298L10.0045 11.2629L7.00006 9.39695V2.63419Z" fill="white"/>
</svg>
