<svg width="16" height="17" viewBox="0 0 16 17" fill="none" xmlns="http://www.w3.org/2000/svg">
<path d="M13.2764 11.5105C12.9272 11.5119 12.582 11.5837 12.2613 11.7218C11.9406 11.8599 11.6511 12.0613 11.4102 12.314L5.09099 9.15186C5.24644 8.68051 5.24644 8.17171 5.09099 7.70036L11.4206 4.48115C11.8739 4.95892 12.4887 5.25104 13.1455 5.30076C13.8023 5.35047 14.454 5.15422 14.9742 4.75014C15.4943 4.34607 15.8456 3.76304 15.9598 3.11437C16.074 2.46571 15.9429 1.79776 15.5921 1.24034C15.2412 0.682927 14.6957 0.27587 14.0614 0.0982916C13.4272 -0.0792873 12.7496 -0.0147019 12.1603 0.279494C11.571 0.573691 11.1122 1.07648 10.8729 1.69014C10.6337 2.30379 10.6312 2.98448 10.8659 3.59989L4.59852 6.78799C4.26004 6.37403 3.80181 6.07489 3.28664 5.93157C2.77147 5.78826 2.22459 5.80778 1.72095 5.98748C1.21732 6.16717 0.781583 6.49823 0.473484 6.93528C0.165385 7.37233 0 7.89397 0 8.4287C0 8.96343 0.165385 9.48508 0.473484 9.92212C0.781583 10.3592 1.21732 10.6902 1.72095 10.8699C2.22459 11.0496 2.77147 11.0691 3.28664 10.9258C3.80181 10.7825 4.26004 10.4834 4.59852 10.0694L10.8503 13.216C10.7447 13.4997 10.6903 13.7998 10.6896 14.1025C10.6896 14.6151 10.8416 15.1163 11.1264 15.5425C11.4113 15.9688 11.8161 16.301 12.2897 16.4971C12.7633 16.6933 13.2845 16.7447 13.7872 16.6446C14.29 16.5446 14.7519 16.2978 15.1144 15.9353C15.4769 15.5728 15.7237 15.1109 15.8237 14.6082C15.9237 14.1054 15.8724 13.5842 15.6762 13.1106C15.4801 12.637 15.1478 12.2322 14.7216 11.9474C14.2953 11.6626 13.7942 11.5105 13.2816 11.5105H13.2764ZM13.2764 1.14271C13.584 1.14271 13.8847 1.23392 14.1404 1.40481C14.3961 1.57569 14.5955 1.81858 14.7132 2.10275C14.8309 2.38692 14.8617 2.69961 14.8017 3.00129C14.7417 3.30296 14.5936 3.58007 14.3761 3.79756C14.1586 4.01506 13.8815 4.16317 13.5798 4.22318C13.2781 4.28319 12.9654 4.25239 12.6813 4.13468C12.3971 4.01697 12.1542 3.81764 11.9833 3.56189C11.8124 3.30615 11.7212 3.00547 11.7212 2.69789C11.7212 2.28543 11.8851 1.88986 12.1767 1.59821C12.4684 1.30656 12.8639 1.14271 13.2764 1.14271ZM2.63382 9.95536C2.32624 9.95536 2.02556 9.86415 1.76981 9.69327C1.51407 9.52239 1.31474 9.2795 1.19703 8.99533C1.07932 8.71116 1.04852 8.39846 1.10853 8.09679C1.16854 7.79512 1.31665 7.51801 1.53415 7.30052C1.75164 7.08302 2.02875 6.93491 2.33042 6.8749C2.6321 6.81489 2.94479 6.84569 3.22896 6.9634C3.51313 7.0811 3.75602 7.28044 3.9269 7.53618C4.09778 7.79193 4.18899 8.09261 4.18899 8.40019C4.18899 8.81265 4.02515 9.20821 3.73349 9.49986C3.44184 9.79152 3.04628 9.95536 2.63382 9.95536ZM13.2764 15.6577C12.9688 15.6577 12.6681 15.5665 12.4124 15.3956C12.1566 15.2247 11.9573 14.9818 11.8396 14.6976C11.7219 14.4135 11.6911 14.1008 11.7511 13.7991C11.8111 13.4974 11.9592 13.2203 12.1767 13.0028C12.3942 12.7853 12.6713 12.6372 12.973 12.5772C13.2747 12.5172 13.5874 12.548 13.8715 12.6657C14.1557 12.7834 14.3986 12.9827 14.5695 13.2385C14.7404 13.4942 14.8316 13.7949 14.8316 14.1025C14.8316 14.515 14.6677 14.9105 14.3761 15.2022C14.0844 15.4938 13.6889 15.6577 13.2764 15.6577Z" fill="white"/>
</svg>
