<svg width="12" height="16" viewBox="0 0 12 16" fill="none" xmlns="http://www.w3.org/2000/svg">
<path d="M5.62241 1.27205L5.62241 1.27206L5.62444 1.27114C5.8588 1.16545 6.13335 1.16412 6.37791 1.27219C6.37801 1.27223 6.3781 1.27228 6.3782 1.27232L11.0442 3.34536C11.0442 3.34537 11.0442 3.34538 11.0443 3.34538C11.3802 3.49473 11.6 3.83176 11.6 4.19984V7.33317C11.6 10.8309 9.19801 14.0879 6 14.9206C2.80199 14.0879 0.4 10.8309 0.4 7.33317V4.19984C0.4 3.83176 0.619766 3.49473 0.95574 3.34538C0.955756 3.34538 0.955773 3.34537 0.955789 3.34536L5.62241 1.27205ZM7.06667 5.33317C7.06667 4.74559 6.58758 4.2665 6 4.2665C5.41242 4.2665 4.93333 4.74559 4.93333 5.33317C4.93333 5.92075 5.41242 6.39984 6 6.39984C6.58758 6.39984 7.06667 5.92075 7.06667 5.33317ZM7.06667 7.99984C7.06667 7.41226 6.58758 6.93317 6 6.93317C5.41242 6.93317 4.93333 7.41226 4.93333 7.99984V10.6665C4.93333 11.2541 5.41242 11.7332 6 11.7332C6.58758 11.7332 7.06667 11.2541 7.06667 10.6665V7.99984Z" stroke="#3C35FF" stroke-width="0.8"/>
</svg>
