<svg width="12" height="12" viewBox="0 0 12 12" fill="none" xmlns="http://www.w3.org/2000/svg">
<path d="M11.125 6V10C11.125 10.2984 11.0065 10.5845 10.7955 10.7955C10.5845 11.0065 10.2984 11.125 10 11.125H2C1.70163 11.125 1.41548 11.0065 1.2045 10.7955C0.993527 10.5845 0.875 10.2984 0.875 10V2C0.875 1.70163 0.993527 1.41548 1.2045 1.2045C1.41548 0.993527 1.70163 0.875 2 0.875H6C6.09946 0.875 6.19484 0.914509 6.26517 0.984835C6.33549 1.05516 6.375 1.15054 6.375 1.25C6.375 1.34946 6.33549 1.44484 6.26517 1.51517C6.19484 1.58549 6.09946 1.625 6 1.625H2C1.90054 1.625 1.80516 1.66451 1.73483 1.73483C1.66451 1.80516 1.625 1.90054 1.625 2V10C1.625 10.0995 1.66451 10.1948 1.73483 10.2652C1.80516 10.3355 1.90054 10.375 2 10.375H10C10.0995 10.375 10.1948 10.3355 10.2652 10.2652C10.3355 10.1948 10.375 10.0995 10.375 10V6C10.375 5.90054 10.4145 5.80516 10.4848 5.73484C10.5552 5.66451 10.6505 5.625 10.75 5.625C10.8495 5.625 10.9448 5.66451 11.0152 5.73484C11.0855 5.80516 11.125 5.90054 11.125 6Z" fill="#3C35FF"/>
<path d="M11.1249 1.25V3.6825C11.1249 3.78195 11.0854 3.87734 11.0151 3.94766C10.9448 4.01799 10.8494 4.0575 10.7499 4.0575C10.6505 4.0575 10.5551 4.01799 10.4848 3.94766C10.4144 3.87734 10.3749 3.78195 10.3749 3.6825V2.155L6.26492 6.265C6.19384 6.33123 6.09981 6.3673 6.00266 6.36558C5.90551 6.36387 5.81282 6.32451 5.74411 6.25581C5.67541 6.1871 5.63605 6.09441 5.63434 5.99726C5.63262 5.90011 5.66868 5.80608 5.73492 5.735L9.84492 1.625H8.31742C8.21797 1.625 8.12258 1.58549 8.05226 1.51516C7.98193 1.44484 7.94242 1.34946 7.94242 1.25C7.94242 1.15054 7.98193 1.05516 8.05226 0.984835C8.12258 0.914509 8.21797 0.875 8.31742 0.875H10.7499C10.7971 0.87538 10.8437 0.884711 10.8874 0.9025C10.9335 0.921355 10.9753 0.949192 11.0105 0.984388C11.0457 1.01958 11.0736 1.06143 11.0924 1.1075C11.1126 1.15239 11.1236 1.20082 11.1249 1.25Z" fill="#3C35FF"/>
</svg>
