<svg width="20" height="20" viewBox="0 0 20 20" fill="none" xmlns="http://www.w3.org/2000/svg">
<path d="M4.15 17.85V17.845L4.09 17.8C2.87725 16.8905 1.89079 15.7134 1.2074 14.3603C0.524254 13.0077 0.162407 11.5157 0.150008 10.0004C0.183597 7.39834 1.23217 4.91233 3.07225 3.07225C4.91225 1.23225 7.39812 0.183692 10 0.150012C12.6019 0.183692 15.0878 1.23225 16.9277 3.07225C18.7678 4.91233 19.8164 7.39834 19.85 10.0003C19.8376 11.5156 19.4757 13.0077 18.7926 14.3603C18.1092 15.7134 17.1227 16.8905 15.91 17.8L15.85 17.845V17.85H15.8491L15.8088 17.8809C14.1418 19.1584 12.1002 19.8506 10 19.8506C7.89984 19.8506 5.85824 19.1584 4.19124 17.8809L4.15086 17.85H4.15ZM5.92345 16.898L5.90027 17.0042L5.99394 17.0593C7.20812 17.7737 8.59125 18.1504 10 18.1504C11.4088 18.1504 12.7919 17.7737 14.0061 17.0593L14.0997 17.0042L14.0765 16.898C13.9233 16.196 13.5346 15.5675 12.975 15.1168C12.4154 14.6661 11.7186 14.4202 11 14.42H11H9H8.99995C8.28143 14.4202 7.58457 14.6661 7.02499 15.1168C6.46541 15.5675 6.07674 16.196 5.92345 16.898ZM15.4716 15.6979L15.5572 15.9024L15.7152 15.7469C16.4786 14.9961 17.0865 14.1022 17.5043 13.1163C17.9221 12.1305 18.1415 11.0719 18.15 10.0012L18.15 9.99816C18.1236 7.84534 17.2566 5.78814 15.7342 4.26576C14.2119 2.74337 12.1547 1.87643 10.0018 1.85001L10.0018 1.84997L9.99816 1.85001C7.84534 1.87643 5.78814 2.74337 4.26576 4.26576C2.74337 5.78814 1.87643 7.84534 1.85001 9.99816H1.84998L1.85 10.0012C1.85851 11.0719 2.07793 12.1305 2.4957 13.1163C2.91348 14.1022 3.52143 14.9961 4.28482 15.7469L4.44283 15.9024L4.52837 15.6979C4.89734 14.8161 5.51863 14.063 6.31422 13.5332C7.10981 13.0034 8.04422 12.7205 9.00007 12.72H10.9999C11.9558 12.7205 12.8902 13.0034 13.6858 13.5332C14.4814 14.063 15.1027 14.8161 15.4716 15.6979Z" fill="#2688FF" stroke="white" stroke-width="0.3"/>
<path d="M9.99426 4.25002L9.99426 4.25029L10.0059 4.25002C10.5008 4.23849 10.9928 4.32746 11.4523 4.51154C11.9118 4.69563 12.3291 4.971 12.6792 5.32101C13.0292 5.67102 13.3045 6.08839 13.4886 6.54787C13.6727 7.00736 13.7617 7.49941 13.7502 7.99426L13.7499 7.99426L13.7502 8.00591C13.7617 8.50076 13.6727 8.99281 13.4886 9.45229C13.3045 9.91178 13.0292 10.3291 12.6792 10.6792C12.3291 11.0292 11.9118 11.3045 11.4523 11.4886C10.9928 11.6727 10.5008 11.7617 10.0059 11.7502L10.0059 11.7499L9.99426 11.7502C9.49941 11.7617 9.00736 11.6727 8.54787 11.4886C8.08839 11.3045 7.67102 11.0292 7.32101 10.6792C6.971 10.3291 6.69563 9.91178 6.51154 9.45229C6.32746 8.99281 6.23849 8.50076 6.25002 8.00591L6.25029 8.00591L6.25002 7.99426C6.23849 7.49941 6.32746 7.00736 6.51154 6.54787C6.69563 6.08839 6.971 5.67102 7.32101 5.32101C7.67102 4.971 8.08839 4.69563 8.54787 4.51154C9.00736 4.32746 9.49941 4.23849 9.99426 4.25002ZM9.12969 10.1073C9.40693 10.2143 9.70325 10.263 10.0001 10.2503C10.2969 10.263 10.5932 10.2143 10.8705 10.1073C11.1515 9.99875 11.4067 9.83266 11.6197 9.61966C11.8327 9.40666 11.9988 9.15147 12.1073 8.87047C12.2143 8.59323 12.263 8.29692 12.2503 8.00008C12.263 7.70325 12.2143 7.40693 12.1073 7.12969C11.9988 6.8487 11.8327 6.5935 11.6197 6.3805C11.4067 6.16751 11.1515 6.00141 10.8705 5.8929C10.5932 5.78583 10.2969 5.73714 10.0001 5.74983C9.70325 5.73714 9.40693 5.78583 9.1297 5.8929C8.8487 6.00141 8.5935 6.16751 8.3805 6.3805C8.16751 6.5935 8.00141 6.8487 7.8929 7.1297C7.78583 7.40693 7.73714 7.70325 7.74983 8.00008C7.73714 8.29692 7.78583 8.59323 7.8929 8.87047C8.00141 9.15147 8.16751 9.40666 8.3805 9.61966C8.5935 9.83266 8.8487 9.99875 9.12969 10.1073Z" fill="#2688FF" stroke="white" stroke-width="0.5"/>
</svg>
