<svg width="16" height="16" viewBox="0 0 16 16" fill="none" xmlns="http://www.w3.org/2000/svg">
<path d="M1.33301 5.33341H14.6663M1.33301 4.00008C1.33301 3.64646 1.47348 3.30732 1.72353 3.05727C1.97358 2.80722 2.31272 2.66675 2.66634 2.66675H13.333C13.6866 2.66675 14.0258 2.80722 14.2758 3.05727C14.5259 3.30732 14.6663 3.64646 14.6663 4.00008V12.0001C14.6663 12.3537 14.5259 12.6928 14.2758 12.9429C14.0258 13.1929 13.6866 13.3334 13.333 13.3334H2.66634C2.31272 13.3334 1.97358 13.1929 1.72353 12.9429C1.47348 12.6928 1.33301 12.3537 1.33301 12.0001V4.00008Z" stroke="#3C35FF" stroke-linecap="round" stroke-linejoin="round"/>
<path d="M1.33301 8H5.99967C5.99967 8.66667 6.39967 10 7.99967 10C9.59967 10 9.99967 8.66667 9.99967 8H14.6663" stroke="#3C35FF" stroke-linecap="round" stroke-linejoin="round"/>
</svg>
